<?xml version="1.0" standalone="no"?>
<!DOCTYPE svg PUBLIC "-//W3C//DTD SVG 1.1//EN" "http://www.w3.org/Graphics/SVG/1.1/DTD/svg11.dtd" >
<svg xmlns="http://www.w3.org/2000/svg" xmlns:xlink="http://www.w3.org/1999/xlink" version="1.1">
<metadata>
Created by FontForge 20201107 at Tue Oct  8 08:03:37 2024
 By 
Copyright (c) 2022 by Connary Fagen. All rights reserved.
</metadata>
<defs>
<font id="QuincyCF-Regular" horiz-adv-x="0" >
  <font-face 
    font-family="Quincy CF"
    font-weight="400"
    font-stretch="normal"
    units-per-em="2048"
    panose-1="0 0 0 0 0 0 0 0 0 0"
    ascent="1638"
    descent="-410"
    x-height="924"
    cap-height="1272"
    bbox="-297 -590 2038 2087"
    underline-thickness="102"
    underline-position="-255"
    unicode-range="U+0020-FB02"
  />
<missing-glyph horiz-adv-x="1054" 
d="M864 1638v-2109h-667v2109h667zM352 -326h350v70h-215l148 98h67v70h-350v-70h148l-148 -98v-70zM352 -39h350v240h-350v-240zM352 326h350v239h-210v-119h71v50h70v-101h-211v170h-70v-239zM352 610h350v211h-69v-139h-281v-72zM352 731h211v148h139v69h-350v-69h140
v-78h-140v-70zM352 1006h350v71h-139v148h-211v-219zM352 1280h350v70h-139v77h139v70h-348v-70h138v-77h-140v-70zM422 31v100h211v-100h-211zM422 1077v76h70v-76h-70z" />
    <glyph glyph-name="fi" unicode="fi" horiz-adv-x="1175" 
d="M51 43q84 8 115 31t31 78v636q0 35 -11 47.5t-34 12.5h-111v45q86 15 121 35t35 67q0 198 96.5 300t265.5 102q120 0 193 -45t73 -115q0 -40 -23.5 -58t-56.5 -18t-58.5 18t-45 43.5t-40.5 51t-54 43.5t-76 18q-37 0 -59.5 -13.5t-33.5 -44t-14.5 -65t-3.5 -92.5v-143
q0 -39 21 -51.5t86 -12.5h141v-69l-141 4q-65 1 -86 -12t-21 -52v-632q0 -56 37 -79t146 -30v-43h-492v43zM694 848v39l226 51q34 8 52.5 -7.5t18.5 -51.5v-727q0 -55 29 -78t104 -31v-43h-428v43q73 8 102 31t29 78v577q0 74 -25.5 100t-107.5 19z" />
    <glyph glyph-name="fl" unicode="fl" horiz-adv-x="1124" 
d="M938 -12q-60 0 -95.5 35t-35.5 110v834q0 178 -69.5 273t-209.5 95q-55 0 -89 -15t-51 -51.5t-22.5 -79t-5.5 -114.5v-98q0 -39 21 -51.5t86 -12.5h141v-69l-141 4q-65 1 -86 -12t-21 -52v-632q0 -56 37 -79t146 -30v-43h-492v43q84 8 115 31t31 78v636q0 35 -11 47.5
t-34 12.5h-111v45q86 15 121 35t35 67v29q0 181 111 277t284 96q82 0 148 -22t119 -68.5t82.5 -128t29.5 -193.5v-848q0 -50 27 -63.5t77 -5.5v-25q-19 -25 -57 -40t-80 -15z" />
    <glyph glyph-name=".notdef" horiz-adv-x="1054" 
d="M864 1638v-2109h-667v2109h667zM352 -326h350v70h-215l148 98h67v70h-350v-70h148l-148 -98v-70zM352 -39h350v240h-350v-240zM352 326h350v239h-210v-119h71v50h70v-101h-211v170h-70v-239zM352 610h350v211h-69v-139h-281v-72zM352 731h211v148h139v69h-350v-69h140
v-78h-140v-70zM352 1006h350v71h-139v148h-211v-219zM352 1280h350v70h-139v77h139v70h-348v-70h138v-77h-140v-70zM422 31v100h211v-100h-211zM422 1077v76h70v-76h-70z" />
    <glyph glyph-name=".null" 
 />
    <glyph glyph-name="nonmarkingreturn" horiz-adv-x="682" 
 />
    <glyph glyph-name="space" unicode=" " horiz-adv-x="378" 
 />
    <glyph glyph-name="exclam" unicode="!" horiz-adv-x="421" 
d="M182 375q-3 153 -25.5 306t-43.5 273t-21 199q0 71 31 111.5t88 40.5q55 0 87 -40.5t32 -111.5q0 -79 -21.5 -199t-44.5 -273t-26 -306h-56zM100 100q0 47 33 81t78 34q46 0 79.5 -34t33.5 -81q0 -46 -33.5 -79t-79.5 -33q-45 0 -78 33t-33 79z" />
    <glyph glyph-name="quotedbl" unicode="&#x22;" horiz-adv-x="532" 
d="M385 889q-26 0 -29 39l-47 334q-5 40 16 65t60 25q38 0 59 -25t15 -65l-45 -334q-7 -39 -29 -39zM74 1262q-5 40 16 65t60 25q38 0 58.5 -25t14.5 -65l-45 -334q-7 -39 -28 -39q-26 0 -29 39z" />
    <glyph glyph-name="numbersign" unicode="#" horiz-adv-x="1067" 
d="M485 -61l111 430h-274l-111 -430h-47l110 430h-223v43h236l125 491h-219v43h231l111 430h47l-111 -430h274l111 430h47l-110 -430h223v-43h-236l-125 -491h219v-43h-231l-111 -430h-47zM334 412h274l125 491h-274z" />
    <glyph glyph-name="dollar" unicode="$" horiz-adv-x="970" 
d="M451 0v127q-99 0 -177.5 25.5t-156.5 70.5q-37 94 -34.5 179t42.5 85q20 0 29 -20q35 -115 113.5 -188.5t183.5 -92.5v439l-11 4q-165 57 -255.5 138t-90.5 208t95.5 210.5t261.5 92.5v133h41v-131h2q179 0 317 -82q38 -94 36 -179t-42 -85q-22 0 -29 22
q-39 116 -114.5 185.5t-169.5 83.5v-430l8 -2q163 -55 234 -97q165 -98 165 -260q0 -76 -34 -135.5t-92.5 -95t-129 -55t-151.5 -23.5v-127h-41zM240 1030q0 -85 54 -134.5t157 -86.5v420h-9q-102 0 -152 -58.5t-50 -140.5zM492 180h28q101 3 161 53.5t60 147.5q0 42 -14 75
t-33.5 55t-56 42t-66 31.5t-79.5 27.5v-432z" />
    <glyph glyph-name="percent" unicode="%" horiz-adv-x="1300" 
d="M958 1159q-49 -45 -112 -45q-36 0 -85 13t-79.5 24.5t-89.5 36.5q35 -56 35 -133q0 -130 -96 -228t-220 -98q-98 0 -153.5 67.5t-55.5 164.5q0 130 96 227.5t220 97.5q88 0 175.5 -24.5t159.5 -49t121 -24.5q48 0 89 23t84 81l67 -43l-833 -1249h-148zM240 983
q0 -203 114 -203q68 0 101.5 71.5t33.5 178.5q0 205 -114 205q-68 0 -101.5 -71.5t-33.5 -180.5zM674 209q0 131 95.5 229.5t219.5 98.5q98 0 153.5 -67.5t55.5 -164.5q0 -131 -95.5 -229.5t-219.5 -98.5q-98 0 -153.5 67.5t-55.5 164.5zM811 233q0 -204 115 -204
q68 0 101.5 71.5t33.5 180.5q0 90 -27 147t-88 57q-68 0 -101.5 -71.5t-33.5 -180.5z" />
    <glyph glyph-name="ampersand" unicode="&#x26;" horiz-adv-x="1521" 
d="M678 -20q-167 0 -300 45.5t-214.5 140.5t-81.5 227q0 72 25 132.5t63.5 100t86.5 67.5t93 40t84 12q-90 23 -151.5 95.5t-61.5 171.5q0 127 100.5 210t268.5 83q147 0 241.5 -60.5t94.5 -154.5q0 -45 -23.5 -72t-62.5 -27q-36 0 -61 25.5t-25 70.5q0 81 -37 121.5
t-119 40.5q-97 0 -151 -52t-54 -150q0 -115 73 -207.5t200 -128.5l-21 -52q-56 23 -113 23q-123 0 -189.5 -76.5t-66.5 -199.5q0 -169 122.5 -267t316.5 -98q102 0 183 28.5t130.5 77t75.5 108.5t26 126q0 105 -58.5 167t-137.5 62q-58 0 -90.5 -26.5t-32.5 -69.5
q0 -30 23 -59h-52q-51 34 -51 90q0 43 29.5 81t77.5 67.5t105 58.5t114.5 60t105.5 65.5t77.5 81.5t29.5 102q0 91 -64.5 123.5t-142.5 -19.5l-25 31q60 84 185 84q93 0 155 -56t62 -153q0 -28 -6.5 -53t-15.5 -46t-29 -42.5t-37 -38t-49 -37t-55.5 -34.5t-67 -36.5
t-73 -36.5t-83 -40t-88.5 -43q169 0 269 -82t102 -205q0 -110 -81.5 -201t-226 -143.5t-321.5 -52.5z" />
    <glyph glyph-name="quotesingle" unicode="'" horiz-adv-x="296" 
d="M150 889q-26 0 -29 39l-47 334q-5 40 16 65t60 25q38 0 58.5 -25t14.5 -65l-45 -334q-7 -39 -28 -39z" />
    <glyph glyph-name="parenleft" unicode="(" horiz-adv-x="632" 
d="M537 -340q-22 0 -39 14q-182 164 -294 409.5t-112 522.5t112 522.5t294 409.5q17 14 39 14h14q20 0 27.5 -8t-3.5 -18q-151 -148 -231.5 -390t-77.5 -530q-3 -284 74.5 -522.5t224.5 -386.5q15 -15 12 -26t-22 -11h-18z" />
    <glyph glyph-name="parenright" unicode=")" horiz-adv-x="632" 
d="M78 -340q-19 0 -22 11t12 26q147 148 224.5 386.5t74.5 522.5q3 288 -78 530t-232 390q-10 10 -2.5 18t27.5 8h14q22 0 39 -14q182 -164 294 -409.5t112 -522.5t-112 -522.5t-294 -409.5q-17 -14 -39 -14h-18z" />
    <glyph glyph-name="asterisk" unicode="*" horiz-adv-x="665" 
d="M88 1049q-31 7 -36.5 41t14.5 63q19 30 48 40.5t52 -11.5l113 -138q12 -14 2.5 -25t-29.5 -7zM66 834q-20 27 -14.5 61t36.5 41l164 37q20 4 29.5 -7.5t-2.5 -23.5l-113 -137q-23 -24 -52 -13.5t-48 42.5zM254 752l59 159q4 11 10.5 15.5t13 0t9.5 -15.5l62 -159
q11 -28 -14.5 -50t-61.5 -22t-62.5 22t-15.5 50zM254 1233q-11 28 15.5 50t62.5 22t61.5 -22t14.5 -50l-62 -160q-3 -11 -9.5 -15.5t-13 0t-10.5 15.5zM385 942q-12 12 -2 23.5t29 7.5l166 -37q30 -6 36 -41t-14 -61q-19 -32 -48 -42.5t-52 13.5zM385 1044l115 138
q23 22 52 11.5t48 -40.5q20 -28 14 -63t-36 -41l-166 -37q-19 -5 -29 7t2 25z" />
    <glyph glyph-name="plus" unicode="+" horiz-adv-x="962" 
d="M455 135v352h-353v56h353v352h55v-352h350v-56h-350v-352h-55z" />
    <glyph glyph-name="comma" unicode="," horiz-adv-x="358" 
d="M125 -166q30 26 52 64t22 63q0 35 -33 35q-44 0 -74.5 30t-30.5 76q0 49 34 80t81 31q60 0 90.5 -43.5t30.5 -108.5q0 -72 -39.5 -142.5t-105.5 -113.5z" />
    <glyph glyph-name="hyphen" unicode="-" horiz-adv-x="757" 
d="M102 510v53h553v-53h-553z" />
    <glyph glyph-name="period" unicode="." horiz-adv-x="387" 
d="M193 -12q-45 0 -78 33t-33 79q0 47 33 81t78 34q46 0 79 -34t33 -81q0 -46 -33 -79t-79 -33z" />
    <glyph glyph-name="slash" unicode="/" horiz-adv-x="776" 
d="M72 0l546 1313h87l-547 -1313h-86z" />
    <glyph glyph-name="zero" unicode="0" horiz-adv-x="1159" 
d="M580 -20q-100 0 -184.5 36.5t-143.5 99t-100 147t-60.5 180.5t-19.5 200q0 103 19.5 198.5t60.5 180.5t100 147.5t143.5 99t184.5 36.5t184.5 -36.5t143 -99t99.5 -147.5t60.5 -180.5t19.5 -198.5q0 -104 -19.5 -200t-60.5 -180.5t-99.5 -147t-143 -99t-184.5 -36.5z
M268 696q0 -103 9.5 -194.5t33.5 -178.5t60.5 -149.5t94.5 -100.5t132 -38q144 0 217.5 141t73.5 414q0 129 -16.5 240t-52.5 208.5t-102 154t-157 56.5q-146 0 -219.5 -140t-73.5 -413z" />
    <glyph glyph-name="one" unicode="1" horiz-adv-x="641" 
d="M61 41q104 9 141.5 32t37.5 79v878q0 66 -15.5 79.5t-70.5 10.5l-84 -6v39l272 127q61 26 61 -33v-1095q0 -56 37 -79t140 -32v-41h-519v41z" />
    <glyph glyph-name="two" unicode="2" horiz-adv-x="1093" 
d="M82 0q0 73 25 142t67 125t97 109.5t115 101.5t120.5 94.5t115.5 95t97 97t67 105.5t25 117q0 67 -26 125.5t-85.5 99.5t-142.5 41q-113 0 -182.5 -72.5t-69.5 -176.5q0 -45 15.5 -81.5t15.5 -56.5q0 -46 -27.5 -67t-64.5 -21q-56 0 -90.5 50t-34.5 126q0 64 26.5 124.5
t78 112t139.5 83t200 31.5q206 0 319 -96t113 -257q0 -72 -27.5 -135.5t-73.5 -110.5t-108.5 -93t-129 -83t-138 -81t-134 -86t-118 -98t-88.5 -118h535q118 0 170.5 31t87.5 119h41l-33 -152q-22 -105 6 -145h-903z" />
    <glyph glyph-name="three" unicode="3" horiz-adv-x="1122" 
d="M530 -20q-197 0 -327.5 102t-130.5 260q0 129 98 129q34 0 51 -17.5t22 -43t18 -80.5t32 -103q16 -40 34.5 -70.5t48 -60.5t73 -46.5t98.5 -16.5q139 0 222 96.5t83 255.5q0 146 -69 217.5t-175 71.5q-74 0 -166 -39l-22 55q66 22 105 36.5t83.5 35t68.5 40.5t46 47.5
t30.5 61t8.5 76.5q0 116 -62.5 191t-173.5 75q-105 0 -161 -68.5t-56 -180.5q0 -56 -18 -86.5t-68 -30.5q-52 0 -77 31t-25 83q0 55 26 107.5t76 97t133.5 72t188.5 27.5q193 0 294 -79.5t101 -203.5q0 -197 -262 -287q42 5 90 -4.5t96.5 -36t87.5 -65.5t63.5 -98.5
t24.5 -129.5q0 -181 -147 -301t-363 -120z" />
    <glyph glyph-name="four" unicode="4" horiz-adv-x="1124" 
d="M516 41q88 9 122 32t34 79v190h-586l-35 102l613 861l172 -33v-793h206v-137h-206v-190q0 -56 33.5 -79t123.5 -32v-41h-477v41zM170 526q-15 -22 -9 -34.5t29 -12.5h482v750z" />
    <glyph glyph-name="five" unicode="5" horiz-adv-x="1107" 
d="M528 -20q-196 0 -326 99.5t-130 258.5q0 133 102 133q44 0 56 -23t22.5 -91t38.5 -128q15 -36 36.5 -67.5t53 -62t76 -48.5t96.5 -18q130 0 212.5 98.5t82.5 259.5q0 81 -22.5 153.5t-64.5 130t-110.5 91t-154.5 33.5q-92 0 -165.5 -37.5t-117.5 -102.5h-43l49 613h408
q252 0 321 28l-22 -188h-670l-31 -371q57 58 149.5 94.5t190.5 36.5q67 0 132.5 -16t127 -51t108.5 -85.5t75 -124t28 -161.5q0 -206 -142.5 -330t-365.5 -124z" />
    <glyph glyph-name="six" unicode="6" horiz-adv-x="1062" 
d="M543 -20q-103 0 -185 34t-135 91.5t-88 137t-49.5 166t-13.5 183.5q1 107 19.5 207t60 193t103 162t154 110t205.5 41q153 0 234 -68l-27 -39q-82 43 -164 43t-150.5 -32.5t-113.5 -85.5t-76 -122t-45 -140t-14 -142q0 -43 19 -44q9 -1 16 9q52 56 131 93.5t178 37.5
q171 0 285 -114t114 -285q0 -86 -31 -164t-87.5 -139t-144.5 -97t-195 -36zM256 414q0 -93 35 -178.5t106.5 -144t163.5 -58.5q67 0 118 31.5t80 84.5t43.5 114t14.5 126q0 152 -73 249t-195 97q-121 0 -207 -89.5t-86 -231.5z" />
    <glyph glyph-name="seven" unicode="7" horiz-adv-x="1019" 
d="M807 1065q11 20 3.5 33.5t-30.5 13.5h-387q-57 0 -91.5 -3.5t-71.5 -16t-62.5 -39.5t-44.5 -70h-51l92 305q61 -16 315 -16h490l-643 -1272h-131z" />
    <glyph glyph-name="eight" unicode="8" horiz-adv-x="1114" 
d="M537 -20q-212 0 -338.5 103.5t-126.5 268.5q0 238 270 334q-91 46 -140.5 121.5t-49.5 169.5q0 145 113 236.5t294 91.5q178 0 283.5 -88.5t105.5 -219.5q0 -84 -50 -156.5t-157 -119.5q144 -46 222.5 -135.5t78.5 -210.5q0 -169 -142 -282t-363 -113zM221 377
q0 -145 88.5 -244.5t249.5 -99.5q147 0 222 81t75 205q0 109 -71 172t-246 113q-62 21 -119.5 14.5t-101.5 -31.5t-70.5 -79.5t-26.5 -130.5zM317 1038q0 -187 240 -256q68 -17 116.5 -6t79 47.5t44.5 81.5t14 96q0 48 -13.5 90t-42 79t-81 59t-123.5 22q-120 0 -177 -61
t-57 -152z" />
    <glyph glyph-name="nine" unicode="9" horiz-adv-x="1062" 
d="M520 1305q86 0 157.5 -23.5t122.5 -66.5t89 -99.5t60 -126.5t32.5 -143.5t9.5 -153.5q-1 -107 -19.5 -207t-60 -193t-103 -161.5t-154 -109.5t-205.5 -41q-154 0 -234 67l27 39q82 -43 164 -43t150.5 32.5t113.5 85.5t76 122t45 140t14 142q0 43 -19 44q-9 1 -16 -9
q-52 -56 -131 -93.5t-178 -37.5q-171 0 -285.5 114.5t-114.5 284.5q0 116 52.5 214t159 160.5t247.5 62.5zM246 895q0 -152 73 -249t195 -97q121 0 207 89.5t86 231.5q0 93 -35 178.5t-106.5 144t-163.5 58.5q-67 0 -118 -31.5t-80 -84.5t-43.5 -114t-14.5 -126z" />
    <glyph glyph-name="colon" unicode=":" horiz-adv-x="389" 
d="M193 670q-45 0 -78 33t-33 79q0 47 33 81t78 34q46 0 79 -34t33 -81q0 -46 -33 -79t-79 -33zM84 100q0 47 33 81t78 34q46 0 79 -34t33 -81q0 -46 -33 -79t-79 -33q-45 0 -78 33t-33 79z" />
    <glyph glyph-name="semicolon" unicode=";" horiz-adv-x="358" 
d="M176 668q-44 0 -77 33t-33 79q0 47 33 81t77 34q46 0 79.5 -34t33.5 -81q0 -46 -33.5 -79t-79.5 -33zM61 102q0 49 34 80t81 31q60 0 90.5 -43.5t30.5 -108.5q0 -72 -39.5 -142.5t-105.5 -113.5l-27 29q30 26 52 64t22 63q0 35 -33 35q-44 0 -74.5 30t-30.5 76z" />
    <glyph glyph-name="less" unicode="&#x3c;" horiz-adv-x="960" 
d="M858 121l-756 358v70l756 358v-67l-678 -326l678 -326v-67z" />
    <glyph glyph-name="equal" unicode="=" horiz-adv-x="962" 
d="M102 303v55h758v-55h-758zM102 672v55h758v-55h-758z" />
    <glyph glyph-name="greater" unicode="&#x3e;" horiz-adv-x="960" 
d="M102 121v67l678 326l-678 326v67l756 -358v-70z" />
    <glyph glyph-name="question" unicode="?" horiz-adv-x="935" 
d="M430 356q-6 82 4.5 150.5t31.5 115.5t48 87t55 74t51.5 67.5t38.5 76t15 91.5q0 101 -62.5 161t-162.5 60q-98 0 -145.5 -56.5t-47.5 -135.5q0 -31 20.5 -83t20.5 -81q0 -34 -31 -60t-69 -26q-53 0 -89 49t-36 125q0 147 114 240.5t301 93.5q176 0 276.5 -84.5
t100.5 -223.5q0 -58 -19 -106.5t-49 -83.5t-67.5 -67.5t-75.5 -68.5t-70.5 -77.5t-56 -102.5t-28.5 -135h-68zM352 100q0 47 33 81t78 34q46 0 79 -34t33 -81q0 -46 -33 -79t-79 -33q-45 0 -78 33t-33 79z" />
    <glyph glyph-name="at" unicode="@" horiz-adv-x="1445" 
d="M743 -170q-192 0 -348 87t-245 243t-89 350q0 195 89.5 351t243.5 241.5t341 85.5q136 0 255 -47.5t206.5 -133t137.5 -211.5t50 -276q0 -185 -73 -289t-201 -104q-89 0 -137 47t-64 117q-36 -63 -115 -113.5t-176 -50.5q-40 0 -75.5 10.5t-66.5 31.5t-49.5 60t-18.5 90
q0 49 19 87t66 73t133.5 62.5t213.5 46.5q51 8 51 43q0 205 -184 205q-55 0 -83 -22t-28 -79q0 -51 -19.5 -73.5t-58.5 -22.5q-34 0 -54 18.5t-20 53.5q0 57 52 99.5t123.5 61.5t146.5 19q135 0 198.5 -69t63.5 -206v-342q0 -100 76 -100q42 0 72 29.5t44 77.5t19.5 93.5
t5.5 94.5q0 106 -22 205t-66.5 184.5t-107 149t-148.5 99.5t-186 36q-156 0 -273 -79.5t-177 -215.5t-60 -309q0 -110 25 -209.5t74.5 -182t119.5 -143t164.5 -94t204.5 -33.5q73 0 137 17l8 -41q-95 -23 -195 -23zM557 340q0 -65 33 -102t96 -37q85 0 145 59t60 141v76
q0 34 -11.5 50t-43.5 12q-84 -11 -142.5 -34t-86.5 -53t-39 -56.5t-11 -55.5z" />
    <glyph glyph-name="A" unicode="A" horiz-adv-x="1460" 
d="M41 43q72 13 111 45.5t71 104.5l395 923q41 94 41 156l117 12l451 -1040q48 -114 82.5 -152.5t109.5 -48.5v-43h-461v43q48 7 74.5 18t34.5 28.5t3.5 37.5t-19.5 53l-60 137q-18 39 -46 54.5t-73 15.5h-397q-92 0 -117 -61l-59 -136q-27 -66 6 -101t125 -46v-43h-389v43z
M434 506q-10 -26 -1.5 -40.5t30.5 -14.5h418q20 0 31 14.5t1 36.5l-221 514q-10 26 -19.5 26t-21.5 -28z" />
    <glyph glyph-name="B" unicode="B" horiz-adv-x="1269" 
d="M61 43q69 12 96 31.5t27 72.5v979q0 52 -27.5 71.5t-95.5 31.5v43h594q219 0 339 -75t120 -218q0 -110 -74.5 -186t-222.5 -111q180 -28 275.5 -112.5t95.5 -221.5q0 -154 -117 -251t-305 -97q-28 0 -177.5 7.5t-292.5 7.5t-235 -15v43zM371 152q0 -91 73 -91h256
q299 0 299 281q0 107 -44.5 174.5t-155 105t-295.5 37.5q-70 0 -101.5 -18.5t-31.5 -69.5v-419zM371 805q0 -52 30 -70t97 -18h151q277 0 277 254q0 246 -273 246h-155q-66 0 -96.5 -19t-30.5 -70v-323z" />
    <glyph glyph-name="C" unicode="C" horiz-adv-x="1308" 
d="M723 -20q-103 0 -200 28t-181 84.5t-146.5 135t-98.5 185t-36 228.5q0 123 36.5 230t100.5 185.5t149.5 135t185.5 85t206 28.5q110 0 203.5 -30.5t153.5 -78.5t93.5 -105t33.5 -112t-32 -91t-85 -36q-47 0 -78 33t-35 94q-3 47 -23 90.5t-56.5 83t-99 63t-142.5 23.5
q-191 0 -307.5 -134t-116.5 -366q0 -140 46.5 -259t126.5 -200.5t188.5 -127.5t230.5 -46q113 0 199.5 43.5t168.5 135.5l29 -25q-23 -42 -63 -86t-102.5 -90t-154 -75t-194.5 -29z" />
    <glyph glyph-name="D" unicode="D" horiz-adv-x="1312" 
d="M61 43q69 12 96 31.5t27 72.5v979q0 52 -27.5 71.5t-95.5 31.5v43h480q111 0 207.5 -18.5t187 -64t154.5 -115t102.5 -179t38.5 -248.5q0 -164 -53.5 -290.5t-147 -202t-211 -113t-254.5 -37.5q-39 0 -144 5t-149 5q-91 0 -211 -14v43zM371 147q0 -90 180 -90
q105 0 188.5 31.5t138 85.5t91 130t52 160.5t15.5 182.5q0 97 -15.5 179.5t-52 156t-92.5 124.5t-140.5 80.5t-192.5 29.5h-45q-66 0 -96.5 -19t-30.5 -70v-981z" />
    <glyph glyph-name="E" unicode="E" horiz-adv-x="1150" 
d="M61 43q69 12 96 31.5t27 72.5v977q0 53 -27.5 73t-95.5 32v43h930q28 0 31 -25q12 -106 41 -223h-39q-38 97 -100 143.5t-164 46.5h-262q-65 0 -96 -21t-31 -75v-350q0 -55 30 -73.5t97 -18.5h202q89 0 122 34t46 113h33v-354h-33q-7 39 -15.5 63t-26.5 45.5t-49 31
t-77 9.5h-202q-66 0 -96.5 -19t-30.5 -73v-370q0 -57 40 -77.5t152 -19.5l236 2q54 1 93 9.5t64 26t39 34t29 41.5l49 76h41q-45 -80 -61 -219q-3 -29 -33 -29h-959v43z" />
    <glyph glyph-name="F" unicode="F" horiz-adv-x="1101" 
d="M61 43q69 12 96 31.5t27 72.5v977q0 53 -27.5 73t-95.5 32v43h930q28 0 31 -25q12 -106 41 -223h-39q-38 97 -100 143.5t-164 46.5h-262q-65 0 -96 -21t-31 -75v-350q0 -55 30 -73.5t97 -18.5h202q87 0 120.5 31t47.5 96h33v-314h-33q-14 64 -47.5 96.5t-120.5 32.5h-202
q-66 0 -96.5 -19t-30.5 -73v-379q0 -54 31 -73.5t114 -30.5v-43h-455v43z" />
    <glyph glyph-name="G" unicode="G" horiz-adv-x="1378" 
d="M723 -20q-137 0 -257.5 44.5t-210.5 126t-142 205.5t-52 275q0 157 55.5 286t150 213t217 129.5t259.5 45.5q109 0 202 -29t152.5 -75t92.5 -101.5t33 -110.5q0 -56 -30.5 -90.5t-84.5 -34.5q-45 0 -74 28.5t-35 76.5q-7 48 -27 93t-57 86t-100 66t-143 25
q-193 0 -308.5 -134t-115.5 -366q0 -146 49 -276t130.5 -221t190 -144t224.5 -53q89 0 136.5 35.5t47.5 116.5v143q0 60 -6 93.5t-26 58t-54.5 34.5t-95.5 15v41l483 2v-43q-83 -10 -106 -48t-23 -153v-150q0 -121 6 -174q1 -15 -9 -19.5t-24 3.5q-52 25 -102 25
q-44 0 -152.5 -22.5t-193.5 -22.5z" />
    <glyph glyph-name="H" unicode="H" horiz-adv-x="1404" 
d="M61 43q69 12 96 31.5t27 72.5v977q0 53 -27.5 73t-95.5 32v43h435v-43q-69 -12 -97 -32t-28 -73v-393q0 -72 73 -72h519q71 0 71 72v393q0 53 -27.5 73t-95.5 32v43h432v-43q-68 -12 -95 -32t-27 -73v-977q0 -53 27 -72.5t95 -31.5v-43h-432v43q69 12 96 31.5t27 72.5
v388q0 69 -69 69h-523q-71 0 -71 -69v-388q0 -53 28 -72.5t97 -31.5v-43h-435v43z" />
    <glyph glyph-name="I" unicode="I" horiz-adv-x="557" 
d="M61 43q69 12 96 31.5t27 72.5v977q0 53 -27.5 73t-95.5 32v43h435v-43q-69 -12 -97 -32t-28 -73v-977q0 -53 28 -72.5t97 -31.5v-43h-435v43z" />
    <glyph glyph-name="J" unicode="J" horiz-adv-x="735" 
d="M236 -20q-134 0 -205.5 57t-71.5 137q0 47 26 78t70 31q48 0 70 -32t22 -79q0 -54 27.5 -96.5t83.5 -42.5q54 0 80.5 38.5t26.5 106.5v946q0 54 -31.5 74t-114.5 31v43h455v-43q-68 -12 -95.5 -32t-27.5 -73v-841q0 -155 -82.5 -229t-232.5 -74z" />
    <glyph glyph-name="K" unicode="K" horiz-adv-x="1314" 
d="M61 43q69 12 96 31.5t27 72.5v977q0 53 -27.5 73t-95.5 32v43h435v-43q-69 -12 -97 -32t-28 -73v-563l528 541q42 42 36 69.5t-32 41.5t-61 16v43h385v-43q-133 -7 -258 -135l-307 -318q-22 -23 -25 -45.5t6 -42t31 -45.5l344 -432q33 -42 64.5 -72t51.5 -45.5t49 -27
t40 -14.5t41 -9v-43h-459v43q25 2 43 8.5t28 19t4.5 34t-28.5 49.5l-307 378q-32 37 -66 37q-44 0 -76 -58.5t-32 -154.5v-209q0 -53 28 -72.5t97 -31.5v-43h-435v43z" />
    <glyph glyph-name="L" unicode="L" horiz-adv-x="1128" 
d="M61 43q69 12 96 31.5t27 72.5v977q0 53 -27.5 73t-95.5 32v43h435v-43q-69 -12 -97 -32t-28 -73v-977q0 -50 27 -74.5t89 -23.5l295 17q155 7 226 127l34 61h45l-40 -129q-25 -74 -21 -125h-965v43z" />
    <glyph glyph-name="M" unicode="M" horiz-adv-x="1638" 
d="M61 43q70 12 98.5 31.5t28.5 72.5v977q0 53 -29 73t-98 32v43h320l453 -934l432 934h311v-43q-68 -12 -95.5 -32t-27.5 -73v-977q0 -53 27 -72.5t96 -31.5v-43h-432v43q69 12 96 31.5t27 72.5v973l-461 -999h-62l-489 1003v-977q0 -53 28.5 -72.5t96.5 -31.5v-43h-320v43
z" />
    <glyph glyph-name="N" unicode="N" horiz-adv-x="1337" 
d="M61 43q70 12 98.5 31.5t28.5 72.5v977q0 53 -29 73t-98 32v43h271l747 -975v827q0 53 -28 73t-95 32v43h320v-43q-69 -12 -98 -32t-29 -73v-1124h-70l-823 1075v-928q0 -53 27.5 -72.5t95.5 -31.5v-43h-318v43z" />
    <glyph glyph-name="O" unicode="O" horiz-adv-x="1435" 
d="M705 -20q-181 0 -328.5 83.5t-231.5 232.5t-84 335q0 189 88.5 344t242 242.5t339.5 87.5q136 0 255 -49t204.5 -135t134.5 -207t49 -259q0 -190 -88 -345t-241.5 -242.5t-339.5 -87.5zM270 707q0 -144 39 -268.5t105 -209.5t155.5 -133.5t188.5 -48.5q61 0 118 17.5
t110 58t92.5 101t63 152.5t23.5 206q0 143 -39 266.5t-105 208t-155 132.5t-188 48q-78 0 -147.5 -29t-129.5 -89t-95.5 -166t-35.5 -246z" />
    <glyph glyph-name="P" unicode="P" horiz-adv-x="1191" 
d="M61 43q69 12 96 31.5t27 72.5v977q0 53 -27.5 73t-95.5 32v43h555q253 0 389 -100t136 -287t-137.5 -292.5t-387.5 -105.5h-133q-62 0 -87 -26t-25 -84v-230q0 -54 31 -73.5t114 -30.5v-43h-455v43zM371 657q0 -60 25 -86t87 -26h133q172 0 249 90t77 246q0 333 -326 333
h-145q-54 0 -77 -19t-23 -73v-465z" />
    <glyph glyph-name="Q" unicode="Q" horiz-adv-x="1435" 
d="M1118 -344q-124 0 -246 86l-305 225q-80 58 -131 58q-34 0 -50.5 -20.5t-20 -49.5t-7 -58.5t-22 -50t-55.5 -20.5q-42 0 -67.5 23.5t-25.5 66.5q0 58 45 99.5t129 56.5q-140 85 -220.5 231t-80.5 328q0 189 88.5 344t242 242.5t339.5 87.5q136 0 255 -49t204.5 -135
t134.5 -207t49 -259q0 -269 -169.5 -456.5t-426.5 -214.5l236 -170q14 -9 33 -22.5t29.5 -20.5l24 -16t21.5 -13.5t17 -9t15.5 -6.5t12.5 -2q20 0 25.5 28t5.5 103q0 37 25 64.5t69 27.5t68 -29.5t24 -71.5q0 -78 -78 -134t-188 -56zM270 707q0 -144 39 -268.5t105 -209.5
t155.5 -133.5t188.5 -48.5q61 0 118 17.5t110 58t92.5 101t63 152.5t23.5 206q0 143 -39 266.5t-105 208t-155 132.5t-188 48q-78 0 -147.5 -29t-129.5 -89t-95.5 -166t-35.5 -246z" />
    <glyph glyph-name="R" unicode="R" horiz-adv-x="1259" 
d="M61 43q69 12 96 31.5t27 72.5v977q0 53 -27.5 73t-95.5 32v43h557q237 0 360.5 -89.5t123.5 -254.5q0 -241 -291 -316q-7 -2 -9.5 -5.5t0 -7t9.5 -5.5q158 -47 219 -246q56 -177 93 -241t96 -64v-43h-56q-61 0 -103 11t-72.5 30.5t-56 62t-45 90.5t-46.5 132
q-46 142 -118 197t-202 55q-88 0 -118.5 -25t-30.5 -86v-320q0 -54 31 -73.5t114 -30.5v-43h-455v43zM371 750q0 -60 25 -85.5t87 -25.5h148q280 0 280 285q0 290 -286 290h-119q-75 0 -105 -19t-30 -73v-372z" />
    <glyph glyph-name="S" unicode="S" horiz-adv-x="1093" 
d="M512 -20q-203 0 -389 110q-28 70 -37 141t3 116.5t42 45.5q14 0 20.5 -4t12.5 -20q50 -154 162.5 -241.5t259.5 -86.5q118 3 187 60t69 169q0 27 -5.5 51.5t-12.5 43.5t-23.5 37.5t-27.5 30.5t-37 26.5t-39.5 22t-47 20.5t-47.5 17.5t-53.5 17.5t-52.5 18q-91 31 -159 66
t-125 82.5t-86.5 110.5t-29.5 140q0 156 123 253.5t336 97.5q206 0 367 -95q28 -70 36.5 -141t-3.5 -116.5t-42 -45.5q-22 0 -32 25q-50 151 -153 232t-230 81q-118 0 -176 -66.5t-58 -160.5q0 -47 16 -85t40.5 -65t66 -51t80.5 -39.5t96 -34.5q173 -59 245 -98
q206 -110 214 -296v-15q0 -92 -43.5 -162.5t-117.5 -111t-162 -60.5t-187 -20z" />
    <glyph glyph-name="T" unicode="T" horiz-adv-x="1212" 
d="M305 43q128 11 168.5 30t40.5 74v936q0 39 -4.5 59.5t-22 36.5t-50.5 21.5t-91 5.5q-107 0 -156 -40t-92 -160h-47l33 254q3 16 22 16q66 -4 136 -4h729q73 0 135 4q21 0 24 -16l31 -254h-47q-43 120 -92 160t-156 40q-58 0 -91 -5.5t-50 -21.5t-21 -36t-4 -60v-936
q0 -56 39.5 -74.5t167.5 -29.5v-43h-602v43z" />
    <glyph glyph-name="U" unicode="U" horiz-adv-x="1339" 
d="M674 -20q-109 0 -199 32.5t-158 96.5t-105.5 168t-37.5 239v608q0 53 -27.5 73t-95.5 32v43h434v-43q-69 -12 -97 -32t-28 -73v-569q0 -243 93 -365t262 -122q60 0 112 14.5t100.5 49t83.5 87.5t55.5 136t20.5 188v581q0 53 -30.5 73t-100.5 32v43h332v-43
q-68 -12 -97.5 -32t-29.5 -73v-596q0 -264 -127 -406t-360 -142z" />
    <glyph glyph-name="V" unicode="V" horiz-adv-x="1460" 
d="M233 1028q-50 116 -83.5 153.5t-108.5 47.5v43h461v-43q-48 -7 -74 -18t-33.5 -29t-3.5 -37.5t19 -52.5l358 -836q12 -26 21.5 -26t19.5 28l350 823q29 66 -4 101.5t-125 46.5v43h389v-43q-74 -14 -112.5 -45t-69.5 -103l-395 -923q-41 -97 -41 -158h-123z" />
    <glyph glyph-name="W" unicode="W" horiz-adv-x="2078" 
d="M233 1028q-44 113 -80 152t-112 49v43h451v-43q-39 -6 -62 -14.5t-35.5 -18t-13.5 -26.5t3 -33t15 -45l318 -824q21 -51 41 0l200 520q40 107 -12 240q-46 114 -81 152.5t-111 48.5v43h448v-43q-90 -14 -105 -44.5t15 -92.5l315 -824q21 -51 41 0l312 813q24 66 -8 101.5
t-121 46.5v43h387v-43q-74 -14 -114.5 -45t-68.5 -103l-356 -923q-39 -105 -39 -158h-114l-310 799l-248 -641q-40 -108 -40 -158h-113z" />
    <glyph glyph-name="X" unicode="X" horiz-adv-x="1361" 
d="M41 43q51 4 99 32.5t138.5 123t229.5 272.5l102 131l-299 428q-74 107 -125 149.5t-123 49.5v43h453v-43q-68 -8 -80 -31t31 -88l262 -375q253 320 267 422q8 63 -66 71q-4 1 -8 1v43h395v-43q-50 -4 -97 -33t-136 -123t-228 -272l-92 -117l307 -440q77 -109 128 -151.5
t122 -49.5v-43h-453v43q45 5 64.5 16t17 35.5t-31.5 67.5l-271 389q-258 -324 -280 -428q-15 -67 55 -78q7 -1 16 -2v-43h-397v43z" />
    <glyph glyph-name="Y" unicode="Y" horiz-adv-x="1302" 
d="M395 43q97 11 130.5 30t33.5 74v349q0 23 -6 43.5t-13 32.5t-24 40l-268 424q-61 96 -107 135.5t-110 57.5v43h454v-43q-80 -17 -91 -49.5t32 -96.5l266 -421q6 -8 14.5 -8t14.5 8l252 413q25 41 29.5 70.5t-11 46t-38.5 25t-58 12.5v43h377v-43q-73 -8 -119.5 -43
t-105.5 -129l-273 -436q-29 -47 -29 -125v-349q0 -55 33.5 -74t130.5 -30v-43h-514v43z" />
    <glyph glyph-name="Z" unicode="Z" horiz-adv-x="1163" 
d="M827 1171q6 11 6.5 19.5t-6 15.5t-24 11t-45.5 4l-309 -2q-77 -1 -130.5 -14.5t-87.5 -43t-53.5 -62t-38.5 -83.5h-49l41 256h981l-788 -1157q-42 -64 38 -64l394 6q90 1 149.5 25.5t91.5 61.5t66 104h49l-53 -248h-1028z" />
    <glyph glyph-name="bracketleft" unicode="[" horiz-adv-x="532" 
d="M481 -340q-131 18 -389 18v1858q258 0 389 18v-34q0 -22 -47 -31l-194 -33v-1698l194 -32q47 -9 47 -31v-35z" />
    <glyph glyph-name="backslash" unicode="\" horiz-adv-x="776" 
d="M705 0h-87l-546 1313h86z" />
    <glyph glyph-name="bracketright" unicode="]" horiz-adv-x="532" 
d="M51 -305q0 22 47 31l195 32v1698l-195 33q-47 9 -47 31v34q131 -18 389 -18v-1858q-258 0 -389 -18v35z" />
    <glyph glyph-name="asciicircum" unicode="^" horiz-adv-x="868" 
d="M125 924q-17 0 -21.5 16t11.5 39l301 403q22 26 37 0l301 -403q17 -23 12.5 -39t-23.5 -16h-28q-12 0 -22.5 8.5t-30.5 32.5l-228 247l-225 -249q-36 -39 -53 -39h-31z" />
    <glyph glyph-name="underscore" unicode="_" horiz-adv-x="1253" 
d="M102 -86v45h1049v-45h-1049z" />
    <glyph glyph-name="grave" unicode="`" horiz-adv-x="575" 
d="M170 1251q-68 45 -68 95q0 27 22 47t50 20q36 0 82 -49l199 -215q28 -28 14 -49q-7 -14 -20.5 -16.5t-36.5 10.5z" />
    <glyph glyph-name="a" unicode="a" horiz-adv-x="1011" 
d="M328 -12q-72 0 -130.5 22t-97.5 74.5t-39 128.5q0 62 27.5 111.5t91.5 93.5t180 76t283 51q25 2 37 14t12 43v43q0 115 -55 179.5t-168 64.5q-71 0 -107 -26.5t-44 -64t-12.5 -75t-26 -64t-70.5 -26.5q-43 0 -65.5 24t-22.5 68q0 56 35.5 99.5t94.5 68t128 37t145 12.5
q178 0 255 -81t77 -255v-469q0 -88 94 -57v-23q-14 -30 -48 -49.5t-73 -19.5q-59 0 -97.5 37.5t-41.5 111.5q2 15 -9 13q-9 -1 -19 -13q-57 -69 -147 -109t-187 -40zM238 250q0 -73 47 -120.5t139 -47.5q110 0 189 71t79 175v94q0 40 -16.5 58t-65.5 12q-372 -45 -372 -242z
" />
    <glyph glyph-name="b" unicode="b" horiz-adv-x="1107" 
d="M180 -12q-11 0 -18.5 7.5t-7.5 20.5v1119q0 72 -26 97.5t-108 18.5v41l226 49q34 8 52.5 -7t18.5 -50v-446q0 -16 11 -21t28 12q33 40 114 76.5t173 36.5q171 0 287.5 -127.5t116.5 -333.5q0 -116 -37 -211t-99 -155.5t-141 -93.5t-164 -33q-59 0 -115 15.5t-90.5 34.5
t-67 34.5t-48.5 15.5q-18 0 -33 -15.5t-24 -34.5t-21.5 -34.5t-26.5 -15.5zM317 367q0 -67 18.5 -122.5t48.5 -92.5t69 -62.5t79.5 -37t81.5 -11.5q125 0 198 97.5t73 258.5q0 185 -93 308.5t-237 123.5q-42 0 -80 -11.5t-75.5 -37.5t-60 -78t-22.5 -124v-211z" />
    <glyph glyph-name="c" unicode="c" horiz-adv-x="997" 
d="M545 -12q-97 0 -184.5 32.5t-154 92t-106 150.5t-39.5 200q0 112 41 204t110 151.5t158.5 91.5t188.5 32q158 0 255 -75t97 -165q0 -43 -25.5 -70.5t-66.5 -27.5q-37 0 -61.5 22.5t-28.5 67.5q-9 80 -60 136.5t-155 56.5q-130 0 -207.5 -94.5t-77.5 -260.5
q0 -198 118.5 -315t293.5 -117q164 0 250 131l35 -28q-14 -35 -44.5 -70.5t-77 -69t-114.5 -54.5t-145 -21z" />
    <glyph glyph-name="d" unicode="d" horiz-adv-x="1107" 
d="M457 -12q-168 0 -282 130.5t-114 340.5q0 113 37 206t100 152.5t144 92t170 32.5q51 0 102 -11.5t80.5 -23t53.5 -17.5t33.5 5t9.5 45v195q0 72 -26 97.5t-108 18.5v41l226 49q34 8 52.5 -7t18.5 -50v-1147q0 -50 27.5 -64t77.5 -5v-25q-17 -24 -55 -39.5t-80 -15.5
q-101 0 -129 94q-7 31 -37 31q-18 0 -46.5 -19.5t-57.5 -43t-82 -43t-115 -19.5zM225 532q0 -189 92 -310.5t242 -121.5q41 0 79 11.5t74 36t57.5 72.5t21.5 114v235q0 82 -27.5 146t-72.5 100.5t-96 55t-103 18.5q-125 0 -196 -98t-71 -259z" />
    <glyph glyph-name="e" unicode="e" horiz-adv-x="978" 
d="M532 -12q-129 0 -235.5 57t-171 167.5t-64.5 254.5q0 111 38 201.5t103.5 150t151.5 91.5t183 32q154 0 244.5 -74t90.5 -192q0 -101 -86.5 -144.5t-304.5 -52.5l-182 -8q-29 -1 -41 -16.5t-12 -48.5q0 -57 27 -112t74 -99t117.5 -70.5t151.5 -26.5q167 0 258 117l33 -27
q-17 -31 -46 -62.5t-74 -64t-111.5 -53t-143.5 -20.5zM236 596q0 -49 15.5 -62.5t51.5 -11.5l150 2q147 5 199.5 36t52.5 114q0 93 -51 153t-154 60q-85 0 -147 -45t-89.5 -109.5t-27.5 -136.5z" />
    <glyph glyph-name="f" unicode="f" horiz-adv-x="757" 
d="M51 43q84 8 115 31t31 78v636q0 35 -11 47.5t-34 12.5h-111v45q86 15 121 35t35 67q0 198 92.5 300t255.5 102q96 0 154.5 -34.5t58.5 -98.5q0 -43 -27 -64.5t-61 -21.5q-30 0 -52 16t-35.5 39t-27.5 46.5t-37 39.5t-55 16q-58 0 -80.5 -52.5t-22.5 -162.5v-143
q0 -39 21 -51.5t86 -12.5h143v-71l-143 8q-63 4 -85 -11t-22 -55v-632q0 -56 37 -79t146 -30v-43h-492v43z" />
    <glyph glyph-name="g" unicode="g" horiz-adv-x="1044" 
d="M426 -389q-112 0 -200.5 26t-141.5 80t-53 129q0 129 164 199q45 19 46 21t-5 4q-4 1 -11 2q-67 11 -109 51.5t-42 95.5q0 54 44 91.5t128 49.5q-154 88 -154 265q0 142 100.5 229.5t276.5 87.5q107 0 195.5 -37t134.5 -106q-2 61 27 101t92 40q44 0 70 -21t26 -55
q0 -41 -31.5 -58.5t-69.5 -6.5q-44 14 -67 -6.5t-10 -65.5q12 -40 12 -98q0 -141 -100 -227.5t-269 -86.5q-40 0 -98 6.5t-78 6.5q-40 0 -61 -17t-21 -43q0 -52 94 -65l328 -58q157 -27 233 -73.5t76 -139.5q0 -94 -73.5 -168t-193 -113.5t-259.5 -39.5zM195 -129
q0 -101 85 -154t214 -53q132 0 213 55.5t81 149.5q0 60 -39 89.5t-128 45.5l-138 23q-148 26 -218 -21t-70 -135zM266 668q0 -133 65.5 -220.5t172.5 -87.5q88 0 128 65.5t40 164.5q0 132 -65 218.5t-171 86.5q-47 0 -81 -18.5t-53 -51.5t-27.5 -72t-8.5 -85z" />
    <glyph glyph-name="h" unicode="h" horiz-adv-x="1114" 
d="M938 -12q-60 0 -95.5 35t-35.5 110v422q0 129 -61 207t-171 78q-112 0 -179.5 -79t-67.5 -206v-403q0 -55 29 -78t104 -31v-43h-428v43q73 8 102 31t29 78v983q0 72 -25.5 97.5t-107.5 18.5v41l225 49q34 8 53 -7t19 -50v-407q0 -91 28 -87q9 1 19 11l16.5 16.5
t25.5 24.5t31.5 26.5t42.5 27.5t49.5 22.5t60.5 17.5t69 6q130 0 215.5 -83.5t85.5 -256.5v-465q0 -50 27 -63.5t77 -5.5v-25q-19 -25 -57 -40t-80 -15z" />
    <glyph glyph-name="i" unicode="i" horiz-adv-x="532" 
d="M51 43q75 8 104 31t29 78v577q0 74 -25 100t-106 19v39l223 51q34 8 53 -7.5t19 -51.5v-727q0 -55 29 -78t104 -31v-43h-430v43zM145 1268q0 44 30 73t73 29t72.5 -29t29.5 -73t-29.5 -73.5t-72.5 -29.5t-73 29.5t-30 73.5z" />
    <glyph glyph-name="j" unicode="j" horiz-adv-x="468" 
d="M72 -410q-78 0 -134.5 33t-56.5 94q0 36 20.5 59t55.5 23q33 0 58 -24t38 -52.5t31.5 -52.5t40.5 -24q47 0 47 106v977q0 74 -25.5 100t-107.5 19v39l225 51q33 8 52.5 -7.5t19.5 -51.5v-1006q0 -132 -72.5 -207.5t-191.5 -75.5zM131 1268q0 44 29.5 73t72.5 29t73 -29
t30 -73t-30 -73.5t-73 -29.5t-72.5 29.5t-29.5 73.5z" />
    <glyph glyph-name="k" unicode="k" horiz-adv-x="1042" 
d="M33 43q73 8 102 31t29 78v983q0 72 -25.5 97.5t-107.5 18.5v41l225 49q34 8 53 -7t19 -50v-745q0 -29 15.5 -37.5t35.5 8.5l319 289q18 19 18 35.5t-26 29t-74 17.5v43h338v-43q-23 -2 -42 -7t-31 -8.5t-28.5 -14.5t-22 -15.5t-25.5 -22t-27 -22.5l-225 -201l326 -451
q23 -32 39 -49.5t38.5 -27t35 -12t50.5 -7.5v-43h-383v43q57 7 64.5 23t-23.5 59l-204 285q-24 31 -40.5 41t-39.5 10q-37 0 -62.5 -38.5t-25.5 -103.5v-167q0 -55 29 -78t104 -31v-43h-428v43z" />
    <glyph glyph-name="l" unicode="l" horiz-adv-x="471" 
d="M285 -12q-61 0 -96 35t-35 110v1002q0 72 -26 97.5t-108 18.5v41l226 49q34 8 52.5 -7t18.5 -50v-1147q0 -50 27.5 -64t77.5 -5v-25q-17 -25 -55.5 -40t-81.5 -15z" />
    <glyph glyph-name="m" unicode="m" horiz-adv-x="1656" 
d="M1481 -12q-61 0 -96 35t-35 110v422q0 130 -51.5 207.5t-149.5 77.5t-157.5 -79t-59.5 -206v-403q0 -54 27.5 -77.5t93.5 -31.5v-43h-420v43q76 8 105.5 31t29.5 78v403q0 130 -51.5 207.5t-149.5 77.5q-99 0 -159 -79t-60 -206v-403q0 -55 29 -78t104 -31v-43h-428v43
q73 8 102 31t29 78v575q0 73 -25.5 99.5t-107.5 17.5v43l225 51q34 8 53 -7.5t19 -53.5q0 -87 26 -88q9 -1 19 12q1 1 16.5 20.5t26 30.5t34 30.5t47 30.5t59.5 20t75 9q158 0 234 -127q42 -72 82 -16q3 3 18 22t26 31t34.5 31t47 30.5t60 20t76.5 8.5q126 0 205 -82
t79 -252v-471q0 -50 27.5 -64t77.5 -5v-25q-19 -25 -57 -40t-80 -15z" />
    <glyph glyph-name="n" unicode="n" horiz-adv-x="1134" 
d="M958 -12q-60 0 -95.5 35t-35.5 110v422q0 130 -60 207.5t-171 77.5q-114 0 -181 -78.5t-67 -206.5v-403q0 -55 29 -78t104 -31v-43h-428v43q73 8 102 31t29 78v577q0 74 -25.5 100t-107.5 19v39l225 51q34 8 53 -7.5t19 -53.5q0 -90 28 -88q9 1 19 12q1 1 15 16.5
t24.5 24.5t30.5 26t41.5 28t48.5 22.5t60.5 17.5t70.5 6q133 0 219 -83.5t86 -256.5v-465q0 -90 105 -69v-25q-19 -24 -57.5 -39.5t-80.5 -15.5z" />
    <glyph glyph-name="o" unicode="o" horiz-adv-x="1064" 
d="M530 -12q-126 0 -232 56t-171.5 166t-65.5 253t66 254t173.5 168t236.5 57q125 0 230.5 -55.5t171 -165t65.5 -252.5t-66 -254.5t-173 -169t-235 -57.5zM242 539q0 -134 42 -246.5t120.5 -180t177.5 -67.5q110 0 176.5 88.5t66.5 257.5q0 134 -42.5 246.5t-121 180
t-176.5 67.5q-111 0 -177 -88t-66 -258z" />
    <glyph glyph-name="p" unicode="p" horiz-adv-x="1128" 
d="M43 -346q73 8 102 30.5t29 77.5v967q0 74 -25.5 100t-107.5 19v39l225 51q34 8 53 -8.5t19 -55.5v-28q0 -19 11 -24t28 12q35 39 115 73.5t172 34.5q172 0 287.5 -128t115.5 -337q0 -114 -37 -208.5t-99 -155t-140.5 -93t-163.5 -32.5q-60 0 -114 16.5t-88.5 33.5
t-47.5 17q-39 0 -39 -94v-199q0 -55 30.5 -77.5t110.5 -30.5v-43h-436v43zM338 367q0 -83 27.5 -148.5t72.5 -102.5t95 -56t102 -19q125 0 197.5 97.5t72.5 258.5q0 185 -93 308.5t-237 123.5q-42 0 -80 -11.5t-75 -37t-59.5 -77.5t-22.5 -123v-213z" />
    <glyph glyph-name="q" unicode="q" horiz-adv-x="1085" 
d="M639 -346q88 8 120 30.5t32 77.5v306q0 41 -33 41q-16 0 -29 -13q-108 -108 -262 -108q-177 0 -291.5 131.5t-114.5 343.5q0 113 36 205t98 151t144.5 91t176.5 32q65 0 118.5 -15t81 -33t53.5 -33t42 -15q18 0 35 14.5t28 32.5t25.5 32.5t28.5 14.5q11 0 18.5 -8.5
t7.5 -22.5v-1147q0 -55 29 -77.5t102 -30.5v-43h-446v43zM225 530q0 -188 91 -309t237 -121q33 0 64 6.5t63.5 25.5t56.5 48.5t39 79t15 113.5v137q0 83 -18.5 150t-48 109t-69.5 69.5t-80.5 39t-82.5 11.5q-124 0 -195.5 -98.5t-71.5 -260.5z" />
    <glyph glyph-name="r" unicode="r" horiz-adv-x="870" 
d="M53 43q73 8 102 31t29 78v577q0 74 -25.5 100t-107.5 19v39l225 51q34 8 53 -7.5t19 -53.5v-58q0 -18 12 -22t31 12q50 53 85 77q81 56 177 56q95 0 141 -50.5t46 -115.5q0 -55 -28.5 -88t-78.5 -33q-35 0 -53 19.5t-24.5 47.5t-13.5 55.5t-29 47t-62 19.5
q-90 0 -146.5 -93.5t-56.5 -273.5v-325q0 -55 30 -78t107 -31v-43h-432v43z" />
    <glyph glyph-name="s" unicode="s" horiz-adv-x="866" 
d="M416 -12q-99 0 -180.5 25t-129.5 67q-24 48 -32.5 95.5t3.5 80.5t44 33q31 0 45 -41q39 -107 105 -158t171 -51q95 0 146 41t51 113q0 20 -4 37t-9.5 31t-17.5 27t-21.5 22t-27.5 19t-29.5 16t-34 14.5t-35 12.5t-38 12.5l-37.5 12.5q-49 17 -87.5 34t-79.5 42.5
t-67.5 54t-43.5 68.5t-17 86q0 119 96.5 189.5t255.5 70.5q169 0 283 -78q36 -70 34 -138.5t-50 -68.5q-29 0 -43 41q-70 195 -250 195q-83 0 -127.5 -37.5t-44.5 -105.5q0 -80 52.5 -122.5t162.5 -80.5q141 -50 181 -69q146 -71 163 -183q2 -16 2 -33q0 -125 -108.5 -199.5
t-280.5 -74.5z" />
    <glyph glyph-name="t" unicode="t" horiz-adv-x="657" 
d="M410 -10q-111 0 -174.5 59t-63.5 182v568q0 37 -10.5 50t-34.5 13h-96v45q84 32 139.5 82t101.5 133q8 17 27 17h18q9 0 15 -6t6 -15l-2 -141q0 -32 19 -42.5t83 -10.5h158v-74l-158 8q-64 3 -83 -10t-19 -53v-541q0 -99 26 -148t97 -49q65 0 110 41q18 -13 20.5 -27.5
t-5.5 -17.5q-63 -63 -174 -63z" />
    <glyph glyph-name="u" unicode="u" horiz-adv-x="1144" 
d="M489 -12q-63 0 -116.5 18.5t-96.5 57t-67.5 104t-24.5 151.5v410q0 73 -25 98t-108 21v39l225 51q34 8 53 -7.5t19 -51.5v-514q0 -125 62 -202t172 -77q111 0 178 78t67 201v364q0 73 -25 98t-108 21v39l226 51q33 8 52 -7.5t19 -51.5v-742q0 -50 27.5 -64t77.5 -5v-25
q-19 -24 -57.5 -39.5t-80.5 -15.5q-57 0 -92.5 31.5t-42.5 91.5q-2 13 -5 18.5t-13 5.5q-15 0 -27 -12l-15.5 -15.5t-25 -23.5t-31 -25t-42 -26.5t-48.5 -22t-59.5 -17t-67.5 -5.5z" />
    <glyph glyph-name="v" unicode="v" horiz-adv-x="1060" 
d="M184 692q-40 98 -69 131t-95 58v43h408v-43q-59 -17 -79.5 -35.5t-18 -50.5t29.5 -103l179 -438q14 -35 24.5 -45.5t21.5 0.5t25 47l88 223q34 87 54 147.5t26.5 103.5t5 67.5t-18.5 41.5t-35 24.5t-54 17.5v43h364v-43q-90 -25 -127 -59t-75 -130l-279 -692h-96z" />
    <glyph glyph-name="w" unicode="w" horiz-adv-x="1544" 
d="M184 692q-38 97 -67.5 130.5t-96.5 58.5v43h404v-43q-59 -17 -79.5 -35.5t-17.5 -50.5t31 -103l170 -436q14 -35 25.5 -46.5t22.5 0t24 46.5l64 178q35 95 35 169.5t-25 127.5q-26 62 -57 94t-95 56v43h402v-43q-35 -11 -54.5 -20.5t-31.5 -21.5t-11 -33t7.5 -46
t23.5 -68l172 -436q14 -35 25.5 -46.5t22.5 0t24 46.5l78 223q24 68 40.5 117t26.5 89.5t14.5 67t0.5 47.5t-9.5 32.5t-22 21.5t-30.5 15t-41 12v43h365v-43q-90 -25 -126.5 -59t-74.5 -130l-272 -692h-95l-204 520l-203 -520h-92z" />
    <glyph glyph-name="x" unicode="x" horiz-adv-x="1019" 
d="M31 43q94 25 147.5 64t140.5 149l130 170l-195 270q-64 88 -107.5 126.5t-107.5 58.5v43h414v-43q-34 -9 -52.5 -20t-25.5 -24t1 -35t22 -45t42 -61l103 -149q95 125 127.5 192t18 96t-74.5 46v43h371v-43q-95 -25 -148 -64t-139 -149l-125 -162l201 -277
q63 -88 106.5 -126.5t108.5 -59.5v-43h-414v43q29 8 46.5 16t25 20t8.5 23.5t-9 32.5t-22 40.5t-36 53.5l-107 154q-73 -97 -110 -156t-44 -97.5t11 -56.5t63 -30v-43h-370v43z" />
    <glyph glyph-name="y" unicode="y" horiz-adv-x="1071" 
d="M246 -406q-76 0 -121 36t-45 91q0 45 28.5 73t73.5 28q39 0 58 -24t21 -53t14 -53t40 -24q63 0 123 152q21 53 22.5 107t-6.5 86t-24 75l-246 604q-40 98 -69 131t-95 58v43h408v-43q-59 -17 -80 -35.5t-18 -51t32 -102.5l183 -448q20 -44 35.5 -44t35.5 46l91 233
q30 75 48.5 130t29.5 95t10 68t-5.5 45.5t-22 30t-33.5 19t-46 14.5v43h363v-43q-89 -25 -126 -59.5t-75 -129.5l-344 -850q-25 -62 -46 -101t-51 -76t-70 -54t-93 -17z" />
    <glyph glyph-name="z" unicode="z" horiz-adv-x="903" 
d="M588 799q42 63 -39 63h-244q-69 0 -109.5 -40t-66.5 -122h-43l37 224h749l-555 -799q-45 -64 39 -64h262q69 0 110 40.5t69 121.5h43l-37 -223h-772z" />
    <glyph glyph-name="braceleft" unicode="{" horiz-adv-x="540" 
d="M463 -340q-75 30 -124.5 75t-73.5 103t-33 115.5t-9 134.5v371q0 45 -25 67t-106 58v43q81 36 106 58t25 67v370q0 77 9 134.5t33 115.5t73.5 103t124.5 75l26 -55q-67 -35 -92.5 -124.5t-25.5 -248.5v-383q0 -47 -37.5 -76.5t-110.5 -54.5v-6q74 -25 111 -53.5t37 -75.5
v-385q0 -159 25.5 -248.5t92.5 -124.5z" />
    <glyph glyph-name="bar" unicode="|" horiz-adv-x="464" 
d="M205 -440v2078h55v-2078h-55z" />
    <glyph glyph-name="braceright" unicode="}" horiz-adv-x="540" 
d="M51 -285q67 35 93 124.5t26 248.5v385q0 47 37 75.5t110 53.5v6q-72 24 -109.5 54t-37.5 77v383q0 159 -26 248.5t-93 124.5l27 55q60 -24 104 -59.5t69.5 -74t40.5 -89t20 -97.5t5 -108v-370q0 -45 25.5 -66.5t106.5 -58.5v-43q-81 -37 -106.5 -58.5t-25.5 -66.5v-371
q0 -61 -5 -108t-20 -97.5t-40.5 -89t-69.5 -74t-104 -59.5z" />
    <glyph glyph-name="asciitilde" unicode="~" horiz-adv-x="997" 
d="M676 371q-60 0 -126.5 22.5t-114.5 50t-99.5 50t-85.5 22.5q-42 0 -70 -27t-28 -79h-50q0 116 63 179.5t157 63.5q59 0 125.5 -22.5t114 -50t99.5 -50t87 -22.5q41 0 69.5 27.5t28.5 78.5h49q0 -117 -62 -180t-157 -63z" />
    <glyph glyph-name="uni00A0" unicode="&#xa0;" horiz-adv-x="378" 
 />
    <glyph glyph-name="exclamdown" unicode="&#xa1;" horiz-adv-x="421" 
d="M238 547q3 -153 26 -306t44.5 -273t21.5 -199q0 -71 -32 -111.5t-87 -40.5q-57 0 -88 40.5t-31 111.5q0 79 21 199t43.5 273t25.5 306h56zM100 821q0 46 33.5 79.5t77.5 33.5q46 0 79.5 -33.5t33.5 -79.5q0 -47 -33.5 -80.5t-79.5 -33.5q-45 0 -78 33.5t-33 80.5z" />
    <glyph glyph-name="cent" unicode="&#xa2;" horiz-adv-x="997" 
d="M307 -125l41 150q-130 52 -208.5 165.5t-78.5 272.5q0 112 41 204t110 151.5t158.5 91.5t188.5 32l39 -2l33 123h43l-35 -127q125 -19 198.5 -88.5t73.5 -145.5q0 -43 -25.5 -70.5t-66.5 -27.5q-37 0 -61.5 22.5t-28.5 67.5q-15 125 -108 170l-195 -708q95 -56 215 -56
q164 0 250 131l35 -28q-14 -35 -44.5 -70.5t-77 -69t-114.5 -54.5t-145 -21q-81 0 -158 22l-37 -135h-43zM229 532q0 -230 162 -352l191 699q-27 8 -68 8q-130 0 -207.5 -94.5t-77.5 -260.5z" />
    <glyph glyph-name="sterling" unicode="&#xa3;" horiz-adv-x="1085" 
d="M82 115q108 65 159.5 119.5t51.5 130.5q0 34 -14 88h-197v41h182q-15 40 -60.5 133t-72.5 171.5t-27 153.5q0 160 118.5 256.5t322.5 96.5q114 0 200 -32t134 -84.5t71 -112.5t23 -124q0 -77 -32 -125.5t-91 -48.5q-36 0 -64 19.5t-28 64.5q0 22 15 60t15 82
q0 104 -68 177.5t-183 73.5q-61 0 -108.5 -22t-75.5 -59.5t-42 -84t-14 -98.5q0 -61 21.5 -130t49 -122t55 -121.5t36.5 -123.5h364v-41h-360v-15q0 -47 -14.5 -86t-36 -66.5t-59.5 -54t-71 -44t-85 -40.5h446q150 0 217.5 31.5t104.5 118.5h39l-33 -168q-8 -45 -8 -74
t3.5 -37t10.5 -18h-895v115z" />
    <glyph glyph-name="currency" unicode="&#xa4;" horiz-adv-x="1105" 
d="M553 39q-152 0 -268 96l-123 -123l-60 58l125 123q-98 119 -98 274q0 154 96 270l-123 119l60 62l121 -123q116 98 270 98q151 0 270 -98l123 123l58 -62l-123 -121q94 -118 94 -268q0 -152 -96 -272l125 -125l-58 -58l-127 123q-117 -96 -266 -96zM213 467
q0 -143 97.5 -245.5t240.5 -102.5q139 0 240.5 103.5t101.5 244.5q0 142 -101 244t-241 102q-143 0 -240.5 -101t-97.5 -245z" />
    <glyph glyph-name="yen" unicode="&#xa5;" horiz-adv-x="1302" 
d="M236 459v39h323q0 22 -6 42t-13 32t-24 40l-268 424q-61 96 -107 135.5t-110 57.5v43h454v-43q-80 -17 -91 -49.5t32 -96.5l266 -421q6 -8 14.5 -8t14.5 8l252 413q25 41 29.5 70.5t-11 46t-38.5 25t-58 12.5v43h377v-43q-73 -8 -119.5 -43t-105.5 -129l-273 -436
q-29 -47 -29 -123h322v-39h-322v-88h322v-39h-322v-185q0 -55 33.5 -74t130.5 -30v-43h-514v43q97 11 130.5 30t33.5 74v185h-323v39h323v88h-323z" />
    <glyph glyph-name="brokenbar" unicode="&#xa6;" horiz-adv-x="464" 
d="M205 924v714h55v-714h-55zM205 -440v714h55v-714h-55z" />
    <glyph glyph-name="section" unicode="&#xa7;" horiz-adv-x="1003" 
d="M469 -410q-196 0 -348 93q-38 97 -35.5 185.5t43.5 88.5q20 0 29 -23q50 -136 148.5 -210.5t228.5 -73.5q104 2 164.5 53t60.5 150q0 33 -8 61t-19.5 48.5t-34.5 39.5t-41 31t-52.5 26.5t-55.5 22t-62 21.5q-27 9 -41 14q-84 29 -145 60t-113.5 74t-79 100t-26.5 128
q0 172 174 238q-168 104 -168 274q0 139 111 226.5t305 87.5q187 0 325 -86q40 -97 37.5 -186t-43.5 -89q-12 0 -17.5 4.5t-8.5 18.5q-45 135 -138.5 207.5t-209.5 72.5q-107 0 -158 -58t-51 -142q0 -44 14 -80.5t37 -62.5t60 -49t74 -38.5t89 -32.5q158 -54 217 -83
q185 -92 200 -247q1 -15 1 -30q0 -179 -187 -246q181 -100 181 -266q0 -83 -39 -147t-105 -101t-145 -55.5t-168 -18.5zM236 535q0 -55 19.5 -96.5t60.5 -72t83.5 -50.5t110.5 -44q148 -52 182 -67q74 52 74 160q0 34 -8.5 63t-21 50t-37 40.5t-44 32t-55.5 27t-58.5 22
t-65.5 21.5q-17 5 -25 8q-94 32 -150 63q-65 -54 -65 -157z" />
    <glyph glyph-name="dieresis" unicode="&#xa8;" horiz-adv-x="786" 
d="M582 1163q-41 0 -72 32t-31 73t31 71.5t72 30.5q40 0 71 -30.5t31 -71.5t-31 -73t-71 -32zM102 1268q0 41 31 71.5t72 30.5t71.5 -30.5t30.5 -71.5q0 -42 -30.5 -73.5t-71.5 -31.5t-72 32t-31 73z" />
    <glyph glyph-name="copyright" unicode="&#xa9;" horiz-adv-x="1474" 
d="M737 -20q-142 0 -267.5 50.5t-215 138.5t-141.5 211t-52 263q0 186 88 337.5t243 238t345 86.5t345 -86.5t243 -238t88 -337.5q0 -140 -52 -263t-141.5 -211t-215 -138.5t-267.5 -50.5zM121 643q0 -171 80 -310t221.5 -218.5t314.5 -79.5q174 0 315.5 79.5t222.5 218.5
t81 310q0 170 -81 309.5t-223 219t-315 79.5t-314.5 -80t-221.5 -219t-80 -309zM358 631q0 92 34.5 167t92 121t128.5 70.5t147 24.5q129 0 212 -62t83 -145q0 -42 -23.5 -70t-70.5 -28q-44 0 -70.5 28.5t-26.5 63.5q0 157 -133 157q-87 0 -133.5 -64.5t-46.5 -180.5
q0 -160 85.5 -256.5t209.5 -96.5q117 0 180 86l39 -28q-29 -58 -117 -112t-207 -54q-75 0 -143 25t-122 71.5t-86 120t-32 162.5z" />
    <glyph glyph-name="ordfeminine" unicode="&#xaa;" horiz-adv-x="737" 
d="M260 684q-74 -2 -123 32.5t-49 104.5q0 80 85.5 130.5t297.5 76.5v29q0 31 -1 49.5t-8 47t-20.5 44.5t-39.5 28.5t-64 12.5q-43 0 -63 -16.5t-22.5 -40t-4 -47t-16.5 -40t-50 -16.5q-28 0 -45.5 18t-17.5 50q0 64 71.5 100.5t171.5 36.5q114 0 168 -54.5t54 -168.5v-248
q0 -39 17.5 -57t49.5 -6v-45q-28 -17 -59 -17q-48 0 -79.5 25.5t-37.5 79.5q-26 -45 -84.5 -76.5t-130.5 -32.5zM111 496v53h510v-53h-510zM207 836q0 -43 23 -67t63 -24q68 0 123 46.5t55 119.5v78q-264 -35 -264 -153z" />
    <glyph glyph-name="guillemotleft" unicode="&#xab;" horiz-adv-x="819" 
d="M123 582q-11 8 -11 21t11 22l242 213q21 18 41 -2q13 -17 -7 -37l-149 -197l149 -194q20 -23 7 -39q-20 -20 -41 -2zM420 582q-10 8 -10 21t10 22l242 213q20 18 40 -2q14 -17 -6 -37l-149 -197l149 -194q19 -22 6 -39q-20 -20 -40 -2z" />
    <glyph glyph-name="logicalnot" unicode="&#xac;" horiz-adv-x="1079" 
d="M922 293v407h-820v56h875v-463h-55z" />
    <glyph glyph-name="uni00AD" unicode="&#xad;" horiz-adv-x="757" 
d="M102 510v53h553v-53h-553z" />
    <glyph glyph-name="registered" unicode="&#xae;" horiz-adv-x="1474" 
d="M737 -20q-142 0 -267.5 50.5t-215 138.5t-141.5 211t-52 263q0 186 88 337.5t243 238t345 86.5t345 -86.5t243 -238t88 -337.5q0 -140 -52 -263t-141.5 -211t-215 -138.5t-267.5 -50.5zM121 643q0 -171 80 -310t221.5 -218.5t314.5 -79.5q174 0 315.5 79.5t222.5 218.5
t81 310q0 170 -81 309.5t-223 219t-315 79.5t-314.5 -80t-221.5 -219t-80 -309zM389 262v37q76 12 76 76v532q0 64 -76 76v37h365q141 0 221 -53t80 -154q0 -142 -176 -188q-6 -1 -6 -7t6 -8q57 -14 90 -51.5t61 -120.5q27 -88 43 -112q17 -25 39 -27l-4 -37
q-63 0 -104.5 11t-69.5 37.5t-44 56.5t-34 82q-50 141 -156 141q-53 0 -72.5 -15.5t-19.5 -50.5v-149q0 -63 78 -76v-37h-297zM608 711q0 -36 16.5 -51t57.5 -15h78q82 0 112.5 42t30.5 112q0 81 -37.5 123.5t-122.5 42.5h-79q-56 0 -56 -58v-196z" />
    <glyph glyph-name="macron" unicode="&#xaf;" horiz-adv-x="899" 
d="M152 1202q-19 0 -26 6.5t-7 22.5v18q0 16 7 22.5t26 6.5h596q19 0 25.5 -6.5t6.5 -22.5v-18q0 -16 -6.5 -22.5t-25.5 -6.5h-596z" />
    <glyph glyph-name="degree" unicode="&#xb0;" horiz-adv-x="565" 
d="M283 874q-95 0 -158.5 63.5t-63.5 152.5q0 90 63 152.5t159 62.5t158.5 -62.5t62.5 -152.5q0 -89 -63 -152.5t-158 -63.5zM135 1090q0 -67 43 -110.5t105 -43.5q61 0 104 44t43 110t-43 109.5t-104 43.5q-62 0 -105 -43t-43 -110z" />
    <glyph glyph-name="plusminus" unicode="&#xb1;" horiz-adv-x="962" 
d="M455 342v352h-353v56h353v352h55v-352h350v-56h-350v-352h-55zM102 0v55h758v-55h-758z" />
    <glyph glyph-name="uni00B2" unicode="&#xb2;" horiz-adv-x="569" 
d="M82 776q0 57 29.5 101.5t71 74t83.5 57.5t71.5 65.5t29.5 82.5q0 39 -22 68.5t-71 29.5q-42 0 -64.5 -24t-21.5 -55.5t15 -63.5q0 -19 -15.5 -31t-35.5 -12q-29 0 -47.5 22.5t-18.5 59.5q0 60 49 102.5t146 42.5q92 0 142 -38.5t50 -106.5q0 -56 -40.5 -100.5
t-91.5 -69.5t-109 -58.5t-82 -64.5h219q52 0 82 43h36l-20 -96q-6 -29 -43 -29h-342z" />
    <glyph glyph-name="uni00B3" unicode="&#xb3;" horiz-adv-x="571" 
d="M274 766q-91 0 -146.5 43t-55.5 109q0 27 14 41t37 14t37.5 -17.5t22.5 -42.5t17.5 -50t29.5 -42.5t51 -17.5q46 0 72 34.5t26 88.5q0 52 -23.5 78.5t-56.5 24.5t-70 -17l-20 37q73 27 104 55t31 63q0 42 -23 65t-59 23q-37 0 -55 -26t-15.5 -56.5t7.5 -54.5
q-40 -23 -72.5 -7t-32.5 58q0 52 47.5 89.5t134.5 37.5q79 0 127 -32.5t48 -83.5q0 -81 -101 -117q67 0 103 -37t36 -94q0 -74 -61 -120t-154 -46z" />
    <glyph glyph-name="acute" unicode="&#xb4;" horiz-adv-x="575" 
d="M166 1094q-41 -26 -57 6q-17 20 12 49l201 215q43 49 81 49q28 0 49 -20t21 -47q0 -51 -67 -95z" />
    <glyph glyph-name="uni00B5" unicode="&#xb5;" horiz-adv-x="1144" 
d="M184 -297v1026q0 73 -25 98t-108 21v39l225 51q34 8 53 -7.5t19 -51.5v-514q0 -125 62 -202t172 -77q111 0 178 78t67 201v364q0 73 -25 98t-108 21v39l226 51q33 8 52 -7.5t19 -51.5v-742q0 -50 27.5 -64t77.5 -5v-25q-19 -24 -57.5 -39.5t-80.5 -15.5q-57 0 -92.5 31.5
t-42.5 91.5q-2 13 -5 18.5t-13 5.5q-15 0 -27 -12l-15.5 -15.5t-25 -23.5t-31 -25t-42 -26.5t-48.5 -22t-59.5 -17t-67.5 -5.5q-143 0 -225 88q3 -78 17 -137.5t31 -90.5t33.5 -53t26 -37.5t7.5 -29.5q-11 -80 -68 -120q-49 -34 -88 -8t-39 103z" />
    <glyph glyph-name="paragraph" unicode="&#xb6;" horiz-adv-x="1425" 
d="M516 -150q69 13 96 33.5t27 73.5v379q0 58 -25.5 83t-87.5 25q-218 0 -341.5 114.5t-123.5 305.5q0 190 122.5 299t342.5 109h838v-41q-69 -13 -96 -33.5t-27 -73.5v-1167q0 -53 27 -73.5t96 -33.5v-40h-848v40zM827 -43q0 -107 113 -107q115 0 115 107v1167
q0 107 -115 107q-113 0 -113 -107v-1167z" />
    <glyph glyph-name="periodcentered" unicode="&#xb7;" horiz-adv-x="428" 
d="M213 498q-45 0 -78 33t-33 79q0 47 33 81t78 34q46 0 79.5 -34t33.5 -81q0 -46 -33.5 -79t-79.5 -33z" />
    <glyph glyph-name="cedilla" unicode="&#xb8;" horiz-adv-x="507" 
d="M246 -426q-101 0 -158 37.5t-57 91.5q0 48 39.5 65.5t79.5 -18.5q0 -135 90 -135q55 0 88.5 43t33.5 100q0 47 -26.5 78t-71.5 31q-25 0 -54 -10.5t-40 -10.5q-23 0 -29 15.5t6 38.5l50 100h108l-47 -98q79 21 149 -23t70 -125t-68.5 -130.5t-162.5 -49.5z" />
    <glyph glyph-name="uni00B9" unicode="&#xb9;" horiz-adv-x="356" 
d="M66 807q67 4 67 70v317h-72v29l129 63q24 12 33.5 1.5t9.5 -32.5v-378q0 -67 62 -70v-31h-229v31z" />
    <glyph glyph-name="ordmasculine" unicode="&#xba;" horiz-adv-x="755" 
d="M377 684q-118 0 -203.5 79.5t-85.5 221.5q0 141 85 220t204 79q56 0 107.5 -19t93 -55.5t66 -95t24.5 -131.5q0 -143 -85 -221t-206 -78zM125 496v53h508v-53h-508zM203 1026q0 -126 60 -211.5t143 -85.5q63 0 105 55t42 158q0 125 -61 210t-142 85q-63 0 -105 -54
t-42 -157z" />
    <glyph glyph-name="guillemotright" unicode="&#xbb;" horiz-adv-x="819" 
d="M455 367q-21 -18 -41 2q-13 17 6 39l149 194l-149 197q-20 20 -6 37q20 20 41 2l241 -213q10 -9 10 -22t-10 -21zM117 369q-13 17 6 39l149 194l-149 197q-20 20 -6 37q20 20 41 2l241 -213q11 -9 11 -22t-11 -21l-241 -215q-21 -18 -41 2z" />
    <glyph glyph-name="onequarter" unicode="&#xbc;" horiz-adv-x="1220" 
d="M66 807q67 4 67 70v317h-72v29l129 63q24 12 33.5 1.5t9.5 -32.5v-378q0 -67 62 -70v-31h-229v31zM59 -10l928 1313h64l-928 -1313h-64zM741 139v62l252 317l70 -18v-314h76v-47h-76v-39q0 -37 16.5 -50.5t59.5 -18.5v-31h-252v31q43 5 57 18t14 51v39h-217zM799 186h159
v201z" />
    <glyph glyph-name="onehalf" unicode="&#xbd;" horiz-adv-x="1259" 
d="M66 807q67 4 67 70v317h-72v29l129 63q24 12 33.5 1.5t9.5 -32.5v-378q0 -67 62 -70v-31h-229v31zM59 -10l928 1313h64l-928 -1313h-64zM772 0q0 57 29.5 101.5t71 74t83.5 57.5t71.5 65.5t29.5 82.5q0 39 -21.5 68.5t-70.5 29.5q-42 0 -65 -24t-22 -55.5t15 -63.5
q0 -19 -15.5 -31t-35.5 -12q-29 0 -47.5 22.5t-18.5 59.5q0 60 49 102.5t146 42.5q92 0 142 -38.5t50 -106.5q0 -56 -40.5 -100.5t-91.5 -69.5t-109 -58.5t-82 -64.5h219q52 0 82 43h37l-21 -96q-6 -29 -43 -29h-342z" />
    <glyph glyph-name="threequarters" unicode="&#xbe;" horiz-adv-x="1443" 
d="M274 766q-91 0 -146.5 43t-55.5 109q0 27 14 41t37 14t37.5 -17.5t22.5 -42.5t17.5 -50t29.5 -42.5t51 -17.5q46 0 72 34.5t26 88.5q0 52 -23.5 78.5t-56.5 24.5t-70 -17l-20 37q73 27 104 55t31 63q0 42 -23 65t-59 23q-37 0 -55 -26t-15.5 -56.5t7.5 -54.5
q-40 -23 -72.5 -7t-32.5 58q0 52 47.5 89.5t134.5 37.5q79 0 127 -32.5t48 -83.5q0 -81 -101 -117q67 0 103 -37t36 -94q0 -74 -61 -120t-154 -46zM289 -10l928 1313h63l-928 -1313h-63zM965 139v62l252 317l69 -18v-314h76v-47h-76v-39q0 -37 16.5 -50.5t59.5 -18.5v-31
h-252v31q43 5 57.5 18t14.5 51v39h-217zM1022 186h160v201z" />
    <glyph glyph-name="questiondown" unicode="&#xbf;" horiz-adv-x="935" 
d="M506 776q6 -82 -4.5 -150.5t-31.5 -115.5t-48 -87t-55 -74t-51.5 -67t-38.5 -75.5t-15 -91.5q0 -101 62.5 -161t162.5 -60q98 0 145.5 56.5t47.5 135.5q0 31 -20.5 83t-20.5 81q0 34 31 60t69 26q53 0 89 -49t36 -125q0 -147 -114 -240.5t-301 -93.5q-176 0 -276.5 84
t-100.5 223q0 58 19 106.5t49 83.5t67.5 67.5t75.5 68.5t70.5 77.5t56 102.5t28.5 135h68zM360 1032q0 46 33.5 79.5t79.5 33.5q44 0 77.5 -33.5t33.5 -79.5q0 -47 -33 -80.5t-78 -33.5q-46 0 -79.5 33.5t-33.5 80.5z" />
    <glyph glyph-name="Agrave" unicode="&#xc0;" horiz-adv-x="1460" 
d="M41 43q72 13 111 45.5t71 104.5l395 923q41 94 41 156l117 12l451 -1040q48 -114 82.5 -152.5t109.5 -48.5v-43h-461v43q48 7 74.5 18t34.5 28.5t3.5 37.5t-19.5 53l-60 137q-18 39 -46 54.5t-73 15.5h-397q-92 0 -117 -61l-59 -136q-27 -66 6 -101t125 -46v-43h-389v43z
M434 506q-10 -26 -1.5 -40.5t30.5 -14.5h418q20 0 31 14.5t1 36.5l-221 514q-10 26 -19.5 26t-21.5 -28zM438 1694q0 27 22 47t50 20q36 0 82 -49l199 -215q28 -28 14 -49q-7 -14 -20.5 -16.5t-36.5 10.5l-242 157q-68 45 -68 95z" />
    <glyph glyph-name="Aacute" unicode="&#xc1;" horiz-adv-x="1460" 
d="M41 43q72 13 111 45.5t71 104.5l395 923q41 94 41 156l117 12l451 -1040q48 -114 82.5 -152.5t109.5 -48.5v-43h-461v43q48 7 74.5 18t34.5 28.5t3.5 37.5t-19.5 53l-60 137q-18 39 -46 54.5t-73 15.5h-397q-92 0 -117 -61l-59 -136q-27 -66 6 -101t125 -46v-43h-389v43z
M434 506q-10 -26 -1.5 -40.5t30.5 -14.5h418q20 0 31 14.5t1 36.5l-221 514q-10 26 -19.5 26t-21.5 -28zM639 1448q-17 20 12 49l201 215q43 49 82 49q28 0 49 -20t21 -47q0 -50 -68 -95l-240 -157q-41 -26 -57 6z" />
    <glyph glyph-name="Acircumflex" unicode="&#xc2;" horiz-adv-x="1460" 
d="M41 43q72 13 111 45.5t71 104.5l395 923q41 94 41 156l117 12l451 -1040q48 -114 82.5 -152.5t109.5 -48.5v-43h-461v43q48 7 74.5 18t34.5 28.5t3.5 37.5t-19.5 53l-60 137q-18 39 -46 54.5t-73 15.5h-397q-92 0 -117 -61l-59 -136q-27 -66 6 -101t125 -46v-43h-389v43z
M434 506q-10 -26 -1.5 -40.5t30.5 -14.5h418q20 0 31 14.5t1 36.5l-221 514q-10 26 -19.5 26t-21.5 -28zM481 1446l215 244q8 9 21 9t22 -9l213 -244q17 -20 -2 -39q-12 -12 -37 4l-196 145l-195 -145q-27 -16 -39 -4q-19 19 -2 39z" />
    <glyph glyph-name="Atilde" unicode="&#xc3;" horiz-adv-x="1460" 
d="M41 43q72 13 111 45.5t71 104.5l395 923q41 94 41 156l117 12l451 -1040q48 -114 82.5 -152.5t109.5 -48.5v-43h-461v43q48 7 74.5 18t34.5 28.5t3.5 37.5t-19.5 53l-60 137q-18 39 -46 54.5t-73 15.5h-397q-92 0 -117 -61l-59 -136q-27 -66 6 -101t125 -46v-43h-389v43z
M397 1540q0 91 48.5 138.5t132.5 47.5q43 0 80 -13.5t63.5 -32t51.5 -37.5t55 -32.5t61 -13.5q74 0 96 80q3 17 21 17h10q10 0 16 -7t6 -16q0 -91 -49.5 -138.5t-130.5 -47.5q-42 0 -79 13.5t-64 32.5t-52.5 37.5t-55 32t-60.5 13.5q-77 0 -96 -80q-3 -16 -23 -16h-8
q-10 0 -16.5 6.5t-6.5 15.5zM434 506q-10 -26 -1.5 -40.5t30.5 -14.5h418q20 0 31 14.5t1 36.5l-221 514q-10 26 -19.5 26t-21.5 -28z" />
    <glyph glyph-name="Adieresis" unicode="&#xc4;" horiz-adv-x="1460" 
d="M41 43q72 13 111 45.5t71 104.5l395 923q41 94 41 156l117 12l451 -1040q48 -114 82.5 -152.5t109.5 -48.5v-43h-461v43q48 7 74.5 18t34.5 28.5t3.5 37.5t-19.5 53l-60 137q-18 39 -46 54.5t-73 15.5h-397q-92 0 -117 -61l-59 -136q-27 -66 6 -101t125 -46v-43h-389v43z
M426 1616q0 41 30.5 71.5t71.5 30.5t72 -30.5t31 -71.5t-31 -73t-72 -32t-71.5 31.5t-30.5 73.5zM434 506q-10 -26 -1.5 -40.5t30.5 -14.5h418q20 0 31 14.5t1 36.5l-221 514q-10 26 -19.5 26t-21.5 -28zM803 1616q0 41 30.5 71.5t71.5 30.5q40 0 71.5 -30.5t31.5 -71.5
t-31.5 -73t-71.5 -32q-41 0 -71.5 31.5t-30.5 73.5z" />
    <glyph glyph-name="Aring" unicode="&#xc5;" horiz-adv-x="1460" 
d="M41 43q72 13 111 45.5t71 104.5l395 923q41 94 41 156l117 12l451 -1040q48 -114 82.5 -152.5t109.5 -48.5v-43h-461v43q48 7 74.5 18t34.5 28.5t3.5 37.5t-19.5 53l-60 137q-18 39 -46 54.5t-73 15.5h-397q-92 0 -117 -61l-59 -136q-27 -66 6 -101t125 -46v-43h-389v43z
M434 506q-10 -26 -1.5 -40.5t30.5 -14.5h418q20 0 31 14.5t1 36.5l-221 514q-10 26 -19.5 26t-21.5 -28zM537 1655q0 75 51 126.5t129 51.5q79 0 130.5 -51.5t51.5 -126.5q0 -72 -52 -125t-130 -53t-129 53t-51 125zM616 1655q0 -46 29.5 -75.5t71.5 -29.5t71 29.5t29 75.5
q0 45 -29 74.5t-71 29.5t-71.5 -29.5t-29.5 -74.5z" />
    <glyph glyph-name="AE" unicode="&#xc6;" horiz-adv-x="1921" 
d="M41 43q72 14 115.5 49.5t91.5 112.5l553 876q25 40 35.5 74.5t8 52.5t-13.5 21h-2v43h930q28 0 31 -25q12 -106 41 -223h-39q-38 97 -100 143.5t-164 46.5h-262q-65 0 -96 -21t-31 -75v-350q0 -55 30 -73.5t97 -18.5h202q89 0 122 34t46 113h33v-354h-33q-7 39 -15.5 63
t-26.5 45.5t-49 31t-77 9.5h-202q-66 0 -96.5 -19t-30.5 -73v-370q0 -57 40 -77.5t152 -19.5l236 2q54 1 93 9.5t64 26t39 34t29 41.5l49 76h41q-45 -80 -61 -219q-3 -29 -33 -29h-959v43q69 12 96 31.5t27 72.5v236h-438q-40 0 -62.5 -8t-39.5 -35l-86 -139
q-40 -66 -13 -106t119 -52v-43h-391v43zM510 494q-15 -26 -6 -39t33 -13h415v682q0 35 -12 56z" />
    <glyph glyph-name="Ccedilla" unicode="&#xc7;" horiz-adv-x="1308" 
d="M723 -20h-4l-37 -78q79 21 149 -23t70 -125t-68.5 -130.5t-162.5 -49.5q-101 0 -158 37.5t-57 91.5q0 48 39 65.5t79 -18.5q0 -135 91 -135q55 0 88.5 43t33.5 100q0 47 -26.5 78t-71.5 31q-25 0 -54 -10.5t-40 -10.5q-23 0 -29 15.5t6 38.5l43 88q-113 17 -212.5 69
t-176 133.5t-120.5 198t-44 252.5q0 123 36.5 230t100.5 185.5t149.5 135t185.5 85t206 28.5q110 0 203.5 -30.5t153.5 -78.5t93.5 -105t33.5 -112t-32 -91t-85 -36q-47 0 -78 33t-35 94q-3 47 -23 90.5t-56.5 83t-99 63t-142.5 23.5q-191 0 -307.5 -134t-116.5 -366
q0 -140 46.5 -259t126.5 -200.5t188.5 -127.5t230.5 -46q113 0 199.5 43.5t168.5 135.5l29 -25q-23 -42 -63 -86t-102.5 -90t-154 -75t-194.5 -29z" />
    <glyph glyph-name="Egrave" unicode="&#xc8;" horiz-adv-x="1150" 
d="M61 43q69 12 96 31.5t27 72.5v977q0 53 -27.5 73t-95.5 32v43h930q28 0 31 -25q12 -106 41 -223h-39q-38 97 -100 143.5t-164 46.5h-262q-65 0 -96 -21t-31 -75v-350q0 -55 30 -73.5t97 -18.5h202q89 0 122 34t46 113h33v-354h-33q-7 39 -15.5 63t-26.5 45.5t-49 31
t-77 9.5h-202q-66 0 -96.5 -19t-30.5 -73v-370q0 -57 40 -77.5t152 -19.5l236 2q54 1 93 9.5t64 26t39 34t29 41.5l49 76h41q-45 -80 -61 -219q-3 -29 -33 -29h-959v43zM301 1694q0 27 22 47t50 20q36 0 82 -49l198 -215q29 -29 15 -49q-7 -14 -21 -16.5t-37 10.5l-241 157
q-68 45 -68 95z" />
    <glyph glyph-name="Eacute" unicode="&#xc9;" horiz-adv-x="1150" 
d="M61 43q69 12 96 31.5t27 72.5v977q0 53 -27.5 73t-95.5 32v43h930q28 0 31 -25q12 -106 41 -223h-39q-38 97 -100 143.5t-164 46.5h-262q-65 0 -96 -21t-31 -75v-350q0 -55 30 -73.5t97 -18.5h202q89 0 122 34t46 113h33v-354h-33q-7 39 -15.5 63t-26.5 45.5t-49 31
t-77 9.5h-202q-66 0 -96.5 -19t-30.5 -73v-370q0 -57 40 -77.5t152 -19.5l236 2q54 1 93 9.5t64 26t39 34t29 41.5l49 76h41q-45 -80 -61 -219q-3 -29 -33 -29h-959v43zM502 1448q-17 20 12 49l201 215q43 49 82 49q28 0 48.5 -19.5t20.5 -47.5q0 -51 -67 -95l-240 -157
q-41 -26 -57 6z" />
    <glyph glyph-name="Ecircumflex" unicode="&#xca;" horiz-adv-x="1150" 
d="M61 43q69 12 96 31.5t27 72.5v977q0 53 -27.5 73t-95.5 32v43h930q28 0 31 -25q12 -106 41 -223h-39q-38 97 -100 143.5t-164 46.5h-262q-65 0 -96 -21t-31 -75v-350q0 -55 30 -73.5t97 -18.5h202q89 0 122 34t46 113h33v-354h-33q-7 39 -15.5 63t-26.5 45.5t-49 31
t-77 9.5h-202q-66 0 -96.5 -19t-30.5 -73v-370q0 -57 40 -77.5t152 -19.5l236 2q54 1 93 9.5t64 26t39 34t29 41.5l49 76h41q-45 -80 -61 -219q-3 -29 -33 -29h-959v43zM344 1446l215 244q7 9 20.5 9t22.5 -9l213 -244q17 -20 -2 -39q-12 -12 -37 4l-196 145l-195 -145
q-27 -16 -39 -4q-19 19 -2 39z" />
    <glyph glyph-name="Edieresis" unicode="&#xcb;" horiz-adv-x="1150" 
d="M61 43q69 12 96 31.5t27 72.5v977q0 53 -27.5 73t-95.5 32v43h930q28 0 31 -25q12 -106 41 -223h-39q-38 97 -100 143.5t-164 46.5h-262q-65 0 -96 -21t-31 -75v-350q0 -55 30 -73.5t97 -18.5h202q89 0 122 34t46 113h33v-354h-33q-7 39 -15.5 63t-26.5 45.5t-49 31
t-77 9.5h-202q-66 0 -96.5 -19t-30.5 -73v-370q0 -57 40 -77.5t152 -19.5l236 2q54 1 93 9.5t64 26t39 34t29 41.5l49 76h41q-45 -80 -61 -219q-3 -29 -33 -29h-959v43zM291 1616q0 41 30.5 71.5t71.5 30.5t72 -30.5t31 -71.5t-31 -73t-72 -32t-71.5 31.5t-30.5 73.5z
M668 1616q0 41 30.5 71.5t71.5 30.5q40 0 71 -30.5t31 -71.5t-31 -73t-71 -32q-41 0 -71.5 31.5t-30.5 73.5z" />
    <glyph glyph-name="Igrave" unicode="&#xcc;" horiz-adv-x="557" 
d="M61 43q69 12 96 31.5t27 72.5v977q0 53 -27.5 73t-95.5 32v43h435v-43q-69 -12 -97 -32t-28 -73v-977q0 -53 28 -72.5t97 -31.5v-43h-435v43zM-4 1694q0 27 22 47t50 20q36 0 82 -49l198 -215q28 -28 14 -49q-7 -14 -20.5 -16.5t-36.5 10.5l-242 157q-67 44 -67 95z" />
    <glyph glyph-name="Iacute" unicode="&#xcd;" horiz-adv-x="557" 
d="M61 43q69 12 96 31.5t27 72.5v977q0 53 -27.5 73t-95.5 32v43h435v-43q-69 -12 -97 -32t-28 -73v-977q0 -53 28 -72.5t97 -31.5v-43h-435v43zM197 1448q-17 20 12 49l201 215q43 49 82 49q28 0 48.5 -19.5t20.5 -47.5q0 -51 -67 -95l-240 -157q-41 -26 -57 6z" />
    <glyph glyph-name="Icircumflex" unicode="&#xce;" horiz-adv-x="557" 
d="M61 43q69 12 96 31.5t27 72.5v977q0 53 -27.5 73t-95.5 32v43h435v-43q-69 -12 -97 -32t-28 -73v-977q0 -53 28 -72.5t97 -31.5v-43h-435v43zM39 1446l215 244q8 9 21 9t22 -9l213 -244q17 -20 -2 -39q-12 -12 -37 4l-197 145l-194 -145q-27 -16 -39 -4q-19 19 -2 39z
" />
    <glyph glyph-name="Idieresis" unicode="&#xcf;" horiz-adv-x="557" 
d="M61 43q69 12 96 31.5t27 72.5v977q0 53 -27.5 73t-95.5 32v43h435v-43q-69 -12 -97 -32t-28 -73v-977q0 -53 28 -72.5t97 -31.5v-43h-435v43zM-14 1616q0 41 30.5 71.5t71.5 30.5t71.5 -30.5t30.5 -71.5q0 -42 -30.5 -73.5t-71.5 -31.5t-71.5 31.5t-30.5 73.5zM362 1616
q0 41 31 71.5t72 30.5q40 0 71 -30.5t31 -71.5t-31 -73t-71 -32q-41 0 -72 32t-31 73z" />
    <glyph glyph-name="Eth" unicode="&#xd0;" horiz-adv-x="1312" 
d="M63 612v47h121v467q0 52 -27.5 71.5t-95.5 31.5v43h480q111 0 207.5 -18.5t187 -64t154.5 -115t102.5 -179t38.5 -248.5q0 -164 -53.5 -290.5t-147 -202t-211 -113t-254.5 -37.5q-39 0 -144 5t-149 5q-91 0 -211 -14v43q69 12 96 31.5t27 72.5v465h-121zM371 147
q0 -90 180 -90q105 0 188.5 31.5t138 85.5t91 130t52 160.5t15.5 182.5q0 97 -15.5 179.5t-52 156t-92.5 124.5t-140.5 80.5t-192.5 29.5h-45q-66 0 -96.5 -19t-30.5 -70v-469h252v-47h-252v-465z" />
    <glyph glyph-name="Ntilde" unicode="&#xd1;" horiz-adv-x="1335" 
d="M61 43q70 12 98.5 31.5t28.5 72.5v977q0 53 -29 73t-98 32v43h271l747 -975v827q0 53 -28 73t-95 32v43h320v-43q-69 -12 -98 -32t-29 -73v-1124h-70l-823 1075v-928q0 -53 27.5 -72.5t95.5 -31.5v-43h-318v43zM348 1540q0 92 48 139t132 47q43 0 80 -13.5t64 -32
t52 -37.5t55 -32.5t61 -13.5q74 0 96 80q3 17 20 17h11q10 0 16 -7t6 -16q0 -91 -49.5 -138.5t-130.5 -47.5q-42 0 -79 13.5t-64 32.5t-52.5 37.5t-55 32t-60.5 13.5q-78 0 -97 -80q-3 -16 -22 -16h-8q-10 0 -16.5 6.5t-6.5 15.5z" />
    <glyph glyph-name="Ograve" unicode="&#xd2;" horiz-adv-x="1435" 
d="M705 -20q-181 0 -328.5 83.5t-231.5 232.5t-84 335q0 189 88.5 344t242 242.5t339.5 87.5q136 0 255 -49t204.5 -135t134.5 -207t49 -259q0 -190 -88 -345t-241.5 -242.5t-339.5 -87.5zM270 707q0 -144 39 -268.5t105 -209.5t155.5 -133.5t188.5 -48.5q61 0 118 17.5
t110 58t92.5 101t63 152.5t23.5 206q0 143 -39 266.5t-105 208t-155 132.5t-188 48q-78 0 -147.5 -29t-129.5 -89t-95.5 -166t-35.5 -246zM410 1694q0 27 21.5 47t49.5 20q36 0 82 -49l199 -215q28 -28 14 -49q-7 -14 -20.5 -16.5t-36.5 10.5l-242 157q-67 44 -67 95z" />
    <glyph glyph-name="Oacute" unicode="&#xd3;" horiz-adv-x="1435" 
d="M705 -20q-181 0 -328.5 83.5t-231.5 232.5t-84 335q0 189 88.5 344t242 242.5t339.5 87.5q136 0 255 -49t204.5 -135t134.5 -207t49 -259q0 -190 -88 -345t-241.5 -242.5t-339.5 -87.5zM270 707q0 -144 39 -268.5t105 -209.5t155.5 -133.5t188.5 -48.5q61 0 118 17.5
t110 58t92.5 101t63 152.5t23.5 206q0 143 -39 266.5t-105 208t-155 132.5t-188 48q-78 0 -147.5 -29t-129.5 -89t-95.5 -166t-35.5 -246zM618 1448q-16 20 13 49l200 215q43 49 82 49q28 0 49 -20t21 -47q0 -50 -68 -95l-239 -157q-42 -27 -58 6z" />
    <glyph glyph-name="Ocircumflex" unicode="&#xd4;" horiz-adv-x="1435" 
d="M705 -20q-181 0 -328.5 83.5t-231.5 232.5t-84 335q0 189 88.5 344t242 242.5t339.5 87.5q136 0 255 -49t204.5 -135t134.5 -207t49 -259q0 -190 -88 -345t-241.5 -242.5t-339.5 -87.5zM270 707q0 -144 39 -268.5t105 -209.5t155.5 -133.5t188.5 -48.5q61 0 118 17.5
t110 58t92.5 101t63 152.5t23.5 206q0 143 -39 266.5t-105 208t-155 132.5t-188 48q-78 0 -147.5 -29t-129.5 -89t-95.5 -166t-35.5 -246zM461 1446l215 244q8 9 21 9t22 -9l213 -244q17 -20 -2 -39q-12 -12 -37 4l-197 145l-194 -145q-27 -16 -39 -4q-19 19 -2 39z" />
    <glyph glyph-name="Otilde" unicode="&#xd5;" horiz-adv-x="1435" 
d="M705 -20q-181 0 -328.5 83.5t-231.5 232.5t-84 335q0 189 88.5 344t242 242.5t339.5 87.5q136 0 255 -49t204.5 -135t134.5 -207t49 -259q0 -190 -88 -345t-241.5 -242.5t-339.5 -87.5zM270 707q0 -144 39 -268.5t105 -209.5t155.5 -133.5t188.5 -48.5q61 0 118 17.5
t110 58t92.5 101t63 152.5t23.5 206q0 143 -39 266.5t-105 208t-155 132.5t-188 48q-78 0 -147.5 -29t-129.5 -89t-95.5 -166t-35.5 -246zM381 1540q0 92 48 139t132 47q43 0 80 -13.5t63.5 -32t51.5 -37.5t55 -32.5t61 -13.5q75 0 97 80q3 17 20 17h10q10 0 16.5 -7
t6.5 -16q0 -91 -49.5 -138.5t-130.5 -47.5q-42 0 -79 13.5t-64.5 32.5t-53 37.5t-55 32t-60.5 13.5q-77 0 -96 -80q-3 -16 -22 -16h-9q-22 0 -22 22z" />
    <glyph glyph-name="Odieresis" unicode="&#xd6;" horiz-adv-x="1435" 
d="M705 -20q-181 0 -328.5 83.5t-231.5 232.5t-84 335q0 189 88.5 344t242 242.5t339.5 87.5q136 0 255 -49t204.5 -135t134.5 -207t49 -259q0 -190 -88 -345t-241.5 -242.5t-339.5 -87.5zM270 707q0 -144 39 -268.5t105 -209.5t155.5 -133.5t188.5 -48.5q61 0 118 17.5
t110 58t92.5 101t63 152.5t23.5 206q0 143 -39 266.5t-105 208t-155 132.5t-188 48q-78 0 -147.5 -29t-129.5 -89t-95.5 -166t-35.5 -246zM408 1616q0 41 30.5 71.5t71.5 30.5t71.5 -30.5t30.5 -71.5q0 -42 -30.5 -73.5t-71.5 -31.5t-71.5 31.5t-30.5 73.5zM784 1616
q0 41 31 71.5t72 30.5q40 0 71 -30.5t31 -71.5t-31 -73t-71 -32q-41 0 -72 32t-31 73z" />
    <glyph glyph-name="multiply" unicode="&#xd7;" horiz-adv-x="780" 
d="M141 229l-39 37l250 250l-250 248l37 39l250 -250l250 250l39 -37l-250 -250l248 -250l-37 -39l-250 250z" />
    <glyph glyph-name="Oslash" unicode="&#xd8;" horiz-adv-x="1435" 
d="M225 8l-28 23l84 100q-104 90 -162 219t-58 281q0 189 88.5 344t242 242.5t339.5 87.5q230 0 406 -136l75 93l29 -23l-78 -94q100 -89 155.5 -215.5t55.5 -274.5q0 -190 -88 -345t-241.5 -242.5t-339.5 -87.5q-229 0 -396 129zM270 707q0 -261 119 -443l643 778
q-68 93 -159.5 144t-194.5 51q-78 0 -147.5 -29t-129.5 -89t-95.5 -166t-35.5 -246zM412 233q66 -90 155.5 -138t190.5 -48q61 0 118 17.5t110 58t92.5 101t63 152.5t23.5 206q0 249 -112 430z" />
    <glyph glyph-name="Ugrave" unicode="&#xd9;" horiz-adv-x="1339" 
d="M674 -20q-109 0 -199 32.5t-158 96.5t-105.5 168t-37.5 239v608q0 53 -27.5 73t-95.5 32v43h434v-43q-69 -12 -97 -32t-28 -73v-569q0 -243 93 -365t262 -122q60 0 112 14.5t100.5 49t83.5 87.5t55.5 136t20.5 188v581q0 53 -30.5 73t-100.5 32v43h332v-43
q-68 -12 -97.5 -32t-29.5 -73v-596q0 -264 -127 -406t-360 -142zM414 1694q0 27 21.5 47t49.5 20q36 0 82 -49l199 -215q28 -28 14 -49q-7 -14 -20.5 -16.5t-36.5 10.5l-242 157q-67 44 -67 95z" />
    <glyph glyph-name="Uacute" unicode="&#xda;" horiz-adv-x="1339" 
d="M674 -20q-109 0 -199 32.5t-158 96.5t-105.5 168t-37.5 239v608q0 53 -27.5 73t-95.5 32v43h434v-43q-69 -12 -97 -32t-28 -73v-569q0 -243 93 -365t262 -122q60 0 112 14.5t100.5 49t83.5 87.5t55.5 136t20.5 188v581q0 53 -30.5 73t-100.5 32v43h332v-43
q-68 -12 -97.5 -32t-29.5 -73v-596q0 -264 -127 -406t-360 -142zM623 1448q-17 20 12 49l201 215q43 49 82 49q28 0 48.5 -19.5t20.5 -47.5q0 -51 -67 -95l-240 -157q-41 -26 -57 6z" />
    <glyph glyph-name="Ucircumflex" unicode="&#xdb;" horiz-adv-x="1339" 
d="M674 -20q-109 0 -199 32.5t-158 96.5t-105.5 168t-37.5 239v608q0 53 -27.5 73t-95.5 32v43h434v-43q-69 -12 -97 -32t-28 -73v-569q0 -243 93 -365t262 -122q60 0 112 14.5t100.5 49t83.5 87.5t55.5 136t20.5 188v581q0 53 -30.5 73t-100.5 32v43h332v-43
q-68 -12 -97.5 -32t-29.5 -73v-596q0 -264 -127 -406t-360 -142zM465 1446l215 244q8 9 21 9t22 -9l213 -244q17 -20 -2 -39q-12 -12 -37 4l-197 145l-194 -145q-27 -16 -39 -4q-19 19 -2 39z" />
    <glyph glyph-name="Udieresis" unicode="&#xdc;" horiz-adv-x="1339" 
d="M674 -20q-109 0 -199 32.5t-158 96.5t-105.5 168t-37.5 239v608q0 53 -27.5 73t-95.5 32v43h434v-43q-69 -12 -97 -32t-28 -73v-569q0 -243 93 -365t262 -122q60 0 112 14.5t100.5 49t83.5 87.5t55.5 136t20.5 188v581q0 53 -30.5 73t-100.5 32v43h332v-43
q-68 -12 -97.5 -32t-29.5 -73v-596q0 -264 -127 -406t-360 -142zM412 1616q0 41 30.5 71.5t71.5 30.5t71.5 -30.5t30.5 -71.5q0 -42 -30.5 -73.5t-71.5 -31.5t-71.5 31.5t-30.5 73.5zM788 1616q0 41 31 71.5t72 30.5q40 0 71 -30.5t31 -71.5t-31 -73t-71 -32q-41 0 -72 32
t-31 73z" />
    <glyph glyph-name="Yacute" unicode="&#xdd;" horiz-adv-x="1302" 
d="M395 43q97 11 130.5 30t33.5 74v349q0 23 -6 43.5t-13 32.5t-24 40l-268 424q-61 96 -107 135.5t-110 57.5v43h454v-43q-80 -17 -91 -49.5t32 -96.5l266 -421q6 -8 14.5 -8t14.5 8l252 413q25 41 29.5 70.5t-11 46t-38.5 25t-58 12.5v43h377v-43q-73 -8 -119.5 -43
t-105.5 -129l-273 -436q-29 -47 -29 -125v-349q0 -55 33.5 -74t130.5 -30v-43h-514v43zM557 1448q-17 20 12 49l201 215q43 49 82 49q28 0 49 -20t21 -47q0 -50 -68 -95l-240 -157q-41 -26 -57 6z" />
    <glyph glyph-name="Thorn" unicode="&#xde;" horiz-adv-x="1193" 
d="M61 43q69 12 96 31.5t27 72.5v977q0 53 -27.5 73t-95.5 32v43h435v-43q-67 -12 -94.5 -30t-30.5 -66q2 -52 27.5 -75.5t84.5 -23.5h133q250 0 388.5 -106t138.5 -291q0 -183 -138.5 -289t-388.5 -106h-133q-60 0 -85 -23.5t-27 -77.5q1 -49 29.5 -67.5t95.5 -30.5v-43
h-435v43zM371 414q0 -58 25 -83.5t87 -25.5h133q171 0 248.5 89.5t77.5 242.5t-77.5 242.5t-248.5 89.5h-133q-62 0 -87 -25.5t-25 -83.5v-446z" />
    <glyph glyph-name="germandbls" unicode="&#xdf;" horiz-adv-x="1138" 
d="M195 -10q-80 0 -154 47v43q72 -20 101.5 -2.5t29.5 72.5v786q0 168 117.5 268.5t300.5 100.5q91 0 163.5 -26t117.5 -70.5t68.5 -100t23.5 -117.5q0 -107 -61 -180t-163 -111q132 -15 225 -100t93 -227q0 -172 -143.5 -273.5t-393.5 -101.5v57q182 4 269.5 82.5
t87.5 231.5q0 63 -14.5 111.5t-51.5 93t-110 68.5t-179 24v55q50 0 96 13.5t87 42t65.5 81.5t24.5 125q0 51 -12.5 96t-39.5 85t-75 63.5t-113 23.5q-122 0 -170.5 -86t-48.5 -252v-768q0 -86 -35 -120.5t-106 -34.5z" />
    <glyph glyph-name="agrave" unicode="&#xe0;" horiz-adv-x="1011" 
d="M328 -12q-72 0 -130.5 22t-97.5 74.5t-39 128.5q0 62 27.5 111.5t91.5 93.5t180 76t283 51q25 2 37 14t12 43v43q0 115 -55 179.5t-168 64.5q-71 0 -107 -26.5t-44 -64t-12.5 -75t-26 -64t-70.5 -26.5q-43 0 -65.5 24t-22.5 68q0 56 35.5 99.5t94.5 68t128 37t145 12.5
q178 0 255 -81t77 -255v-469q0 -88 94 -57v-23q-14 -30 -48 -49.5t-73 -19.5q-59 0 -97.5 37.5t-41.5 111.5q2 15 -9 13q-9 -1 -19 -13q-57 -69 -147 -109t-187 -40zM221 1346q0 27 22 47t50 20q36 0 82 -49l198 -215q29 -29 15 -49q-7 -14 -21 -16.5t-37 10.5l-241 157
q-68 45 -68 95zM238 250q0 -73 47 -120.5t139 -47.5q110 0 189 71t79 175v94q0 40 -16.5 58t-65.5 12q-372 -45 -372 -242z" />
    <glyph glyph-name="aacute" unicode="&#xe1;" horiz-adv-x="1011" 
d="M328 -12q-72 0 -130.5 22t-97.5 74.5t-39 128.5q0 62 27.5 111.5t91.5 93.5t180 76t283 51q25 2 37 14t12 43v43q0 115 -55 179.5t-168 64.5q-71 0 -107 -26.5t-44 -64t-12.5 -75t-26 -64t-70.5 -26.5q-43 0 -65.5 24t-22.5 68q0 56 35.5 99.5t94.5 68t128 37t145 12.5
q178 0 255 -81t77 -255v-469q0 -88 94 -57v-23q-14 -30 -48 -49.5t-73 -19.5q-59 0 -97.5 37.5t-41.5 111.5q2 15 -9 13q-9 -1 -19 -13q-57 -69 -147 -109t-187 -40zM238 250q0 -73 47 -120.5t139 -47.5q110 0 189 71t79 175v94q0 40 -16.5 58t-65.5 12q-372 -45 -372 -242z
M422 1100q-17 20 12 49l201 215q43 49 82 49q28 0 48.5 -19.5t20.5 -47.5q0 -51 -67 -95l-240 -157q-41 -26 -57 6z" />
    <glyph glyph-name="acircumflex" unicode="&#xe2;" horiz-adv-x="1011" 
d="M328 -12q-72 0 -130.5 22t-97.5 74.5t-39 128.5q0 62 27.5 111.5t91.5 93.5t180 76t283 51q25 2 37 14t12 43v43q0 115 -55 179.5t-168 64.5q-71 0 -107 -26.5t-44 -64t-12.5 -75t-26 -64t-70.5 -26.5q-43 0 -65.5 24t-22.5 68q0 56 35.5 99.5t94.5 68t128 37t145 12.5
q178 0 255 -81t77 -255v-469q0 -88 94 -57v-23q-14 -30 -48 -49.5t-73 -19.5q-59 0 -97.5 37.5t-41.5 111.5q2 15 -9 13q-9 -1 -19 -13q-57 -69 -147 -109t-187 -40zM238 250q0 -73 47 -120.5t139 -47.5q110 0 189 71t79 175v94q0 40 -16.5 58t-65.5 12q-372 -45 -372 -242z
M264 1098l215 243q7 9 20.5 9t22.5 -9l213 -243q17 -20 -2 -39q-12 -12 -37 4l-196 145l-195 -145q-27 -16 -39 -4q-19 19 -2 39z" />
    <glyph glyph-name="atilde" unicode="&#xe3;" horiz-adv-x="1011" 
d="M328 -12q-72 0 -130.5 22t-97.5 74.5t-39 128.5q0 62 27.5 111.5t91.5 93.5t180 76t283 51q25 2 37 14t12 43v43q0 115 -55 179.5t-168 64.5q-71 0 -107 -26.5t-44 -64t-12.5 -75t-26 -64t-70.5 -26.5q-43 0 -65.5 24t-22.5 68q0 56 35.5 99.5t94.5 68t128 37t145 12.5
q178 0 255 -81t77 -255v-469q0 -88 94 -57v-23q-14 -30 -48 -49.5t-73 -19.5q-59 0 -97.5 37.5t-41.5 111.5q2 15 -9 13q-9 -1 -19 -13q-57 -69 -147 -109t-187 -40zM180 1192q0 92 48 139t132 47q43 0 80 -13.5t64 -32t52 -37.5t55 -32.5t61 -13.5q74 0 96 80q3 17 20 17
h11q10 0 16 -7t6 -16q0 -91 -49.5 -138.5t-130.5 -47.5q-42 0 -79 13.5t-64 32.5t-52.5 37.5t-55 32t-60.5 13.5q-78 0 -97 -80q-3 -17 -22 -17h-8q-10 0 -16.5 7t-6.5 16zM238 250q0 -73 47 -120.5t139 -47.5q110 0 189 71t79 175v94q0 40 -16.5 58t-65.5 12
q-372 -45 -372 -242z" />
    <glyph glyph-name="adieresis" unicode="&#xe4;" horiz-adv-x="1011" 
d="M328 -12q-72 0 -130.5 22t-97.5 74.5t-39 128.5q0 62 27.5 111.5t91.5 93.5t180 76t283 51q25 2 37 14t12 43v43q0 115 -55 179.5t-168 64.5q-71 0 -107 -26.5t-44 -64t-12.5 -75t-26 -64t-70.5 -26.5q-43 0 -65.5 24t-22.5 68q0 56 35.5 99.5t94.5 68t128 37t145 12.5
q178 0 255 -81t77 -255v-469q0 -88 94 -57v-23q-14 -30 -48 -49.5t-73 -19.5q-59 0 -97.5 37.5t-41.5 111.5q2 15 -9 13q-9 -1 -19 -13q-57 -69 -147 -109t-187 -40zM209 1268q0 41 30.5 71.5t71.5 30.5t72 -30.5t31 -71.5t-31 -73t-72 -32t-71.5 31.5t-30.5 73.5zM238 250
q0 -73 47 -120.5t139 -47.5q110 0 189 71t79 175v94q0 40 -16.5 58t-65.5 12q-372 -45 -372 -242zM586 1268q0 41 30.5 71.5t71.5 30.5q40 0 71.5 -30.5t31.5 -71.5t-31.5 -73t-71.5 -32q-41 0 -71.5 31.5t-30.5 73.5z" />
    <glyph glyph-name="aring" unicode="&#xe5;" horiz-adv-x="1011" 
d="M328 -12q-72 0 -130.5 22t-97.5 74.5t-39 128.5q0 62 27.5 111.5t91.5 93.5t180 76t283 51q25 2 37 14t12 43v43q0 115 -55 179.5t-168 64.5q-71 0 -107 -26.5t-44 -64t-12.5 -75t-26 -64t-70.5 -26.5q-43 0 -65.5 24t-22.5 68q0 56 35.5 99.5t94.5 68t128 37t145 12.5
q178 0 255 -81t77 -255v-469q0 -88 94 -57v-23q-14 -30 -48 -49.5t-73 -19.5q-59 0 -97.5 37.5t-41.5 111.5q2 15 -9 13q-9 -1 -19 -13q-57 -69 -147 -109t-187 -40zM238 250q0 -73 47 -120.5t139 -47.5q110 0 189 71t79 175v94q0 40 -16.5 58t-65.5 12q-372 -45 -372 -242z
M319 1307q0 75 51.5 126.5t129.5 51.5t130 -51.5t52 -126.5q0 -72 -52 -125.5t-130 -53.5t-129.5 53.5t-51.5 125.5zM399 1307q0 -46 29.5 -75.5t71.5 -29.5t71 29.5t29 75.5q0 45 -29 74.5t-71 29.5t-71.5 -29.5t-29.5 -74.5z" />
    <glyph glyph-name="ae" unicode="&#xe6;" horiz-adv-x="1609" 
d="M326 -12q-113 0 -189 55t-76 166q0 61 27 107.5t91.5 87t180 69.5t285.5 49q49 3 49 56v55q0 116 -57.5 185t-171.5 69q-166 0 -166 -150q0 -53 -24 -79.5t-66 -26.5q-39 0 -60.5 24.5t-21.5 65.5q0 69 61.5 121t150 76t185.5 24q218 0 285 -149q134 149 358 149
q154 0 245 -74t91 -192q0 -101 -86.5 -144.5t-304.5 -52.5l-182 -8q-29 -1 -41 -16.5t-12 -48.5q0 -57 27 -112t74 -99t117.5 -70.5t151.5 -26.5q167 0 258 117l33 -27q-17 -31 -46 -62.5t-74 -64t-111.5 -53t-143.5 -20.5q-199 0 -354 155q-69 72 -137 -2
q-63 -72 -155 -112.5t-191 -40.5zM240 258q0 -71 48 -120.5t136 -49.5q114 0 191 68.5t77 173.5v41q0 58 -18 81t-68 17q-108 -13 -182 -34t-113 -49.5t-55 -59t-16 -68.5zM866 596q0 -49 15.5 -62.5t52.5 -11.5l149 2q147 5 199.5 36t52.5 114q0 93 -51 153t-154 60
q-85 0 -147 -45t-89.5 -109.5t-27.5 -136.5z" />
    <glyph glyph-name="ccedilla" unicode="&#xe7;" horiz-adv-x="997" 
d="M547 -426q-101 0 -158 37.5t-57 91.5q0 48 39.5 65.5t79.5 -18.5q0 -135 90 -135q55 0 89 43t34 100q0 47 -27 78t-72 31q-25 0 -54 -10.5t-40 -10.5q-23 0 -28.5 15.5t6.5 38.5l45 90q-120 12 -217 70t-156.5 163t-59.5 240q0 112 41 204t110 151.5t158.5 91.5t188.5 32
q158 0 255 -75t97 -165q0 -43 -25.5 -70.5t-66.5 -27.5q-37 0 -61.5 22.5t-28.5 67.5q-9 80 -60 136.5t-155 56.5q-130 0 -207.5 -94.5t-77.5 -260.5q0 -198 118.5 -315t293.5 -117q164 0 250 131l35 -28q-28 -70 -114 -134.5t-210 -78.5l-43 -88q79 21 149 -23t70 -125
t-68.5 -130.5t-162.5 -49.5z" />
    <glyph glyph-name="egrave" unicode="&#xe8;" horiz-adv-x="978" 
d="M532 -12q-129 0 -235.5 57t-171 167.5t-64.5 254.5q0 111 38 201.5t103.5 150t151.5 91.5t183 32q154 0 244.5 -74t90.5 -192q0 -101 -86.5 -144.5t-304.5 -52.5l-182 -8q-29 -1 -41 -16.5t-12 -48.5q0 -57 27 -112t74 -99t117.5 -70.5t151.5 -26.5q167 0 258 117l33 -27
q-17 -31 -46 -62.5t-74 -64t-111.5 -53t-143.5 -20.5zM215 1346q0 27 22 47t50 20q36 0 82 -49l198 -215q29 -29 15 -49q-7 -14 -21 -16.5t-37 10.5l-241 157q-68 45 -68 95zM236 596q0 -49 15.5 -62.5t51.5 -11.5l150 2q147 5 199.5 36t52.5 114q0 93 -51 153t-154 60
q-85 0 -147 -45t-89.5 -109.5t-27.5 -136.5z" />
    <glyph glyph-name="eacute" unicode="&#xe9;" horiz-adv-x="978" 
d="M532 -12q-129 0 -235.5 57t-171 167.5t-64.5 254.5q0 111 38 201.5t103.5 150t151.5 91.5t183 32q154 0 244.5 -74t90.5 -192q0 -101 -86.5 -144.5t-304.5 -52.5l-182 -8q-29 -1 -41 -16.5t-12 -48.5q0 -57 27 -112t74 -99t117.5 -70.5t151.5 -26.5q167 0 258 117l33 -27
q-17 -31 -46 -62.5t-74 -64t-111.5 -53t-143.5 -20.5zM236 596q0 -49 15.5 -62.5t51.5 -11.5l150 2q147 5 199.5 36t52.5 114q0 93 -51 153t-154 60q-85 0 -147 -45t-89.5 -109.5t-27.5 -136.5zM416 1100q-17 20 12 49l201 215q43 49 82 49q28 0 48.5 -19.5t20.5 -47.5
q0 -51 -67 -95l-240 -157q-41 -26 -57 6z" />
    <glyph glyph-name="ecircumflex" unicode="&#xea;" horiz-adv-x="978" 
d="M532 -12q-129 0 -235.5 57t-171 167.5t-64.5 254.5q0 111 38 201.5t103.5 150t151.5 91.5t183 32q154 0 244.5 -74t90.5 -192q0 -101 -86.5 -144.5t-304.5 -52.5l-182 -8q-29 -1 -41 -16.5t-12 -48.5q0 -57 27 -112t74 -99t117.5 -70.5t151.5 -26.5q167 0 258 117l33 -27
q-17 -31 -46 -62.5t-74 -64t-111.5 -53t-143.5 -20.5zM236 596q0 -49 15.5 -62.5t51.5 -11.5l150 2q147 5 199.5 36t52.5 114q0 93 -51 153t-154 60q-85 0 -147 -45t-89.5 -109.5t-27.5 -136.5zM258 1098l215 243q8 9 21 9t22 -9l213 -243q17 -20 -2 -39q-12 -12 -37 4
l-196 145l-195 -145q-27 -16 -39 -4q-19 19 -2 39z" />
    <glyph glyph-name="edieresis" unicode="&#xeb;" horiz-adv-x="978" 
d="M532 -12q-129 0 -235.5 57t-171 167.5t-64.5 254.5q0 111 38 201.5t103.5 150t151.5 91.5t183 32q154 0 244.5 -74t90.5 -192q0 -101 -86.5 -144.5t-304.5 -52.5l-182 -8q-29 -1 -41 -16.5t-12 -48.5q0 -57 27 -112t74 -99t117.5 -70.5t151.5 -26.5q167 0 258 117l33 -27
q-17 -31 -46 -62.5t-74 -64t-111.5 -53t-143.5 -20.5zM203 1268q0 41 30.5 71.5t71.5 30.5t72 -30.5t31 -71.5t-31 -73t-72 -32t-71.5 31.5t-30.5 73.5zM236 596q0 -49 15.5 -62.5t51.5 -11.5l150 2q147 5 199.5 36t52.5 114q0 93 -51 153t-154 60q-85 0 -147 -45
t-89.5 -109.5t-27.5 -136.5zM580 1268q0 41 30.5 71.5t71.5 30.5q40 0 71 -30.5t31 -71.5t-31 -73t-71 -32q-41 0 -71.5 31.5t-30.5 73.5z" />
    <glyph glyph-name="igrave" unicode="&#xec;" horiz-adv-x="532" 
d="M53 43q73 8 102 31t29 78v577q0 74 -25.5 100t-107.5 19v39l225 51q34 8 53 -7.5t19 -51.5v-727q0 -55 29 -78t104 -31v-43h-428v43zM-35 1346q0 27 22 47t50 20q36 0 82 -49l198 -215q29 -29 15 -49q-7 -14 -21 -16.5t-37 10.5l-241 157q-68 45 -68 95z" />
    <glyph glyph-name="iacute" unicode="&#xed;" horiz-adv-x="532" 
d="M53 43q73 8 102 31t29 78v577q0 74 -25.5 100t-107.5 19v39l225 51q34 8 53 -7.5t19 -51.5v-727q0 -55 29 -78t104 -31v-43h-428v43zM166 1100q-17 20 12 49l201 215q43 49 82 49q28 0 48.5 -19.5t20.5 -47.5q0 -51 -67 -95l-240 -157q-41 -26 -57 6z" />
    <glyph glyph-name="icircumflex" unicode="&#xee;" horiz-adv-x="532" 
d="M53 43q73 8 102 31t29 78v577q0 74 -25.5 100t-107.5 19v39l225 51q34 8 53 -7.5t19 -51.5v-727q0 -55 29 -78t104 -31v-43h-428v43zM8 1098l215 243q7 9 20.5 9t22.5 -9l213 -243q17 -20 -2 -39q-12 -12 -37 4l-196 145l-195 -145q-27 -16 -39 -4q-19 19 -2 39z" />
    <glyph glyph-name="idieresis" unicode="&#xef;" horiz-adv-x="532" 
d="M53 43q73 8 102 31t29 78v577q0 74 -25.5 100t-107.5 19v39l225 51q34 8 53 -7.5t19 -51.5v-727q0 -55 29 -78t104 -31v-43h-428v43zM-47 1268q0 41 30.5 71.5t71.5 30.5t72 -30.5t31 -71.5t-31 -73t-72 -32t-71.5 31.5t-30.5 73.5zM330 1268q0 41 30.5 71.5t71.5 30.5
q40 0 71.5 -30.5t31.5 -71.5t-31.5 -73t-71.5 -32q-41 0 -71.5 31.5t-30.5 73.5z" />
    <glyph glyph-name="eth" unicode="&#xf0;" horiz-adv-x="1134" 
d="M467 -12q-173 0 -289.5 126t-116.5 332q0 116 37 211.5t99.5 156.5t142.5 94.5t168 33.5q52 0 103.5 -11.5t81 -23t54 -17.5t34.5 5t10 45v61q0 32 -9 97l-227 -64l-10 35l225 64q-52 135 -233 139v43q51 0 91.5 -4.5t92 -18t95.5 -46t75 -81.5l180 52l10 -35l-172 -49
q45 -92 45 -242v-741q0 -55 30 -72.5t103 2.5v-43q-74 -47 -153 -47q-73 0 -108.5 36.5t-34.5 123.5q-131 -162 -324 -162zM229 530q0 -187 90.5 -308.5t239.5 -121.5q41 0 79 10.5t74 33.5t57.5 66t21.5 101v291q0 71 -27.5 127.5t-72.5 89.5t-97 50.5t-105 17.5
q-121 0 -190.5 -97.5t-69.5 -259.5z" />
    <glyph glyph-name="ntilde" unicode="&#xf1;" horiz-adv-x="1134" 
d="M958 -12q-60 0 -95.5 35t-35.5 110v422q0 130 -60 207.5t-171 77.5q-114 0 -181 -78.5t-67 -206.5v-403q0 -55 29 -78t104 -31v-43h-428v43q73 8 102 31t29 78v577q0 74 -25.5 100t-107.5 19v39l225 51q34 8 53 -7.5t19 -53.5q0 -90 28 -88q9 1 19 12q1 1 15 16.5
t24.5 24.5t30.5 26t41.5 28t48.5 22.5t60.5 17.5t70.5 6q133 0 219 -83.5t86 -256.5v-465q0 -90 105 -69v-25q-19 -24 -57.5 -39.5t-80.5 -15.5zM250 1192q0 92 48 139t132 47q43 0 80 -13.5t63.5 -32t51.5 -37.5t55 -32.5t61 -13.5q75 0 97 80q3 17 20 17h10q10 0 16.5 -7
t6.5 -16q0 -91 -49.5 -138.5t-130.5 -47.5q-42 0 -79 13.5t-64.5 32.5t-53 37.5t-55 32t-60.5 13.5q-77 0 -96 -80q-3 -17 -22 -17h-9q-10 0 -16 7t-6 16z" />
    <glyph glyph-name="ograve" unicode="&#xf2;" horiz-adv-x="1064" 
d="M530 -12q-126 0 -232 56t-171.5 166t-65.5 253t66 254t173.5 168t236.5 57q125 0 230.5 -55.5t171 -165t65.5 -252.5t-66 -254.5t-173 -169t-235 -57.5zM242 539q0 -134 42 -246.5t120.5 -180t177.5 -67.5q110 0 176.5 88.5t66.5 257.5q0 134 -42.5 246.5t-121 180
t-176.5 67.5q-111 0 -177 -88t-66 -258zM254 1346q0 27 22 47t50 20q36 0 82 -49l198 -215q29 -29 15 -49q-7 -14 -21 -16.5t-37 10.5l-241 157q-68 45 -68 95z" />
    <glyph glyph-name="oacute" unicode="&#xf3;" horiz-adv-x="1064" 
d="M530 -12q-126 0 -232 56t-171.5 166t-65.5 253t66 254t173.5 168t236.5 57q125 0 230.5 -55.5t171 -165t65.5 -252.5t-66 -254.5t-173 -169t-235 -57.5zM242 539q0 -134 42 -246.5t120.5 -180t177.5 -67.5q110 0 176.5 88.5t66.5 257.5q0 134 -42.5 246.5t-121 180
t-176.5 67.5q-111 0 -177 -88t-66 -258zM455 1100q-17 20 12 49l201 215q43 49 82 49q28 0 48.5 -19.5t20.5 -47.5q0 -51 -67 -95l-240 -157q-41 -26 -57 6z" />
    <glyph glyph-name="ocircumflex" unicode="&#xf4;" horiz-adv-x="1064" 
d="M530 -12q-126 0 -232 56t-171.5 166t-65.5 253t66 254t173.5 168t236.5 57q125 0 230.5 -55.5t171 -165t65.5 -252.5t-66 -254.5t-173 -169t-235 -57.5zM242 539q0 -134 42 -246.5t120.5 -180t177.5 -67.5q110 0 176.5 88.5t66.5 257.5q0 134 -42.5 246.5t-121 180
t-176.5 67.5q-111 0 -177 -88t-66 -258zM297 1098l215 243q8 9 21 9t22 -9l213 -243q17 -20 -2 -39q-12 -12 -37 4l-197 145l-194 -145q-27 -16 -39 -4q-19 19 -2 39z" />
    <glyph glyph-name="otilde" unicode="&#xf5;" horiz-adv-x="1064" 
d="M530 -12q-126 0 -232 56t-171.5 166t-65.5 253t66 254t173.5 168t236.5 57q125 0 230.5 -55.5t171 -165t65.5 -252.5t-66 -254.5t-173 -169t-235 -57.5zM213 1192q0 92 48 139t132 47q43 0 80 -13.5t64 -32t52 -37.5t55 -32.5t61 -13.5q74 0 96 80q3 17 20 17h10
q10 0 16.5 -7t6.5 -16q0 -91 -49.5 -138.5t-130.5 -47.5q-42 0 -79 13.5t-64.5 32.5t-53 37.5t-55 32t-60.5 13.5q-77 0 -96 -80q-3 -17 -22 -17h-8q-10 0 -16.5 7t-6.5 16zM242 539q0 -134 42 -246.5t120.5 -180t177.5 -67.5q110 0 176.5 88.5t66.5 257.5
q0 134 -42.5 246.5t-121 180t-176.5 67.5q-111 0 -177 -88t-66 -258z" />
    <glyph glyph-name="odieresis" unicode="&#xf6;" horiz-adv-x="1064" 
d="M530 -12q-126 0 -232 56t-171.5 166t-65.5 253t66 254t173.5 168t236.5 57q125 0 230.5 -55.5t171 -165t65.5 -252.5t-66 -254.5t-173 -169t-235 -57.5zM242 539q0 -134 42 -246.5t120.5 -180t177.5 -67.5q110 0 176.5 88.5t66.5 257.5q0 134 -42.5 246.5t-121 180
t-176.5 67.5q-111 0 -177 -88t-66 -258zM242 1268q0 41 30.5 71.5t71.5 30.5t71.5 -30.5t30.5 -71.5q0 -42 -30.5 -73.5t-71.5 -31.5t-71.5 31.5t-30.5 73.5zM618 1268q0 41 31 71.5t72 30.5q40 0 71 -30.5t31 -71.5t-31 -73t-71 -32q-41 0 -72 32t-31 73z" />
    <glyph glyph-name="divide" unicode="&#xf7;" horiz-adv-x="962" 
d="M481 741q-34 0 -60 26.5t-26 61.5q0 34 26 60t60 26t60 -26t26 -60q0 -35 -26 -61.5t-60 -26.5zM102 487v56h758v-56h-758zM395 203q0 34 26 60t60 26t60 -26t26 -60q0 -35 -26 -61.5t-60 -26.5t-60 26.5t-26 61.5z" />
    <glyph glyph-name="oslash" unicode="&#xf8;" horiz-adv-x="1064" 
d="M186 8l-28 23l59 71q-156 136 -156 361q0 143 66 254t173.5 168t236.5 57q166 0 294 -98l66 80l29 -23l-68 -82q146 -133 146 -350q0 -143 -66 -254.5t-173 -169t-235 -57.5q-159 0 -284 92zM242 539q0 -184 75 -316l420 506q-99 156 -252 156q-111 0 -177 -88t-66 -258z
M336 190q45 -69 108.5 -107t137.5 -38q110 0 176.5 88.5t66.5 257.5q0 176 -69 305z" />
    <glyph glyph-name="ugrave" unicode="&#xf9;" horiz-adv-x="1144" 
d="M489 -12q-63 0 -116.5 18.5t-96.5 57t-67.5 104t-24.5 151.5v410q0 73 -25 98t-108 21v39l225 51q34 8 53 -7.5t19 -51.5v-514q0 -125 62 -202t172 -77q111 0 178 78t67 201v364q0 73 -25 98t-108 21v39l226 51q33 8 52 -7.5t19 -51.5v-742q0 -50 27.5 -64t77.5 -5v-25
q-19 -24 -57.5 -39.5t-80.5 -15.5q-57 0 -92.5 31.5t-42.5 91.5q-2 13 -5 18.5t-13 5.5q-15 0 -27 -12l-15.5 -15.5t-25 -23.5t-31 -25t-42 -26.5t-48.5 -22t-59.5 -17t-67.5 -5.5zM313 1346q0 27 22 47t50 20q36 0 82 -49l199 -215q28 -28 14 -49q-7 -14 -20.5 -16.5
t-36.5 10.5l-242 157q-68 45 -68 95z" />
    <glyph glyph-name="uacute" unicode="&#xfa;" horiz-adv-x="1144" 
d="M489 -12q-63 0 -116.5 18.5t-96.5 57t-67.5 104t-24.5 151.5v410q0 73 -25 98t-108 21v39l225 51q34 8 53 -7.5t19 -51.5v-514q0 -125 62 -202t172 -77q111 0 178 78t67 201v364q0 73 -25 98t-108 21v39l226 51q33 8 52 -7.5t19 -51.5v-742q0 -50 27.5 -64t77.5 -5v-25
q-19 -24 -57.5 -39.5t-80.5 -15.5q-57 0 -92.5 31.5t-42.5 91.5q-2 13 -5 18.5t-13 5.5q-15 0 -27 -12l-15.5 -15.5t-25 -23.5t-31 -25t-42 -26.5t-48.5 -22t-59.5 -17t-67.5 -5.5zM496 1100q-17 20 12 49l201 215q43 49 82 49q28 0 48.5 -19.5t20.5 -47.5q0 -51 -67 -95
l-240 -157q-41 -26 -57 6z" />
    <glyph glyph-name="ucircumflex" unicode="&#xfb;" horiz-adv-x="1144" 
d="M489 -12q-63 0 -116.5 18.5t-96.5 57t-67.5 104t-24.5 151.5v410q0 73 -25 98t-108 21v39l225 51q34 8 53 -7.5t19 -51.5v-514q0 -125 62 -202t172 -77q111 0 178 78t67 201v364q0 73 -25 98t-108 21v39l226 51q33 8 52 -7.5t19 -51.5v-742q0 -50 27.5 -64t77.5 -5v-25
q-19 -24 -57.5 -39.5t-80.5 -15.5q-57 0 -92.5 31.5t-42.5 91.5q-2 13 -5 18.5t-13 5.5q-15 0 -27 -12l-15.5 -15.5t-25 -23.5t-31 -25t-42 -26.5t-48.5 -22t-59.5 -17t-67.5 -5.5zM297 1098l215 243q8 9 21 9t22 -9l213 -243q17 -20 -2 -39q-12 -12 -37 4l-197 145
l-194 -145q-27 -16 -39 -4q-19 19 -2 39z" />
    <glyph glyph-name="udieresis" unicode="&#xfc;" horiz-adv-x="1144" 
d="M489 -12q-63 0 -116.5 18.5t-96.5 57t-67.5 104t-24.5 151.5v410q0 73 -25 98t-108 21v39l225 51q34 8 53 -7.5t19 -51.5v-514q0 -125 62 -202t172 -77q111 0 178 78t67 201v364q0 73 -25 98t-108 21v39l226 51q33 8 52 -7.5t19 -51.5v-742q0 -50 27.5 -64t77.5 -5v-25
q-19 -24 -57.5 -39.5t-80.5 -15.5q-57 0 -92.5 31.5t-42.5 91.5q-2 13 -5 18.5t-13 5.5q-15 0 -27 -12l-15.5 -15.5t-25 -23.5t-31 -25t-42 -26.5t-48.5 -22t-59.5 -17t-67.5 -5.5zM283 1268q0 41 30.5 71.5t71.5 30.5t71.5 -30.5t30.5 -71.5q0 -42 -30.5 -73.5t-71.5 -31.5
t-71.5 31.5t-30.5 73.5zM659 1268q0 41 31 71.5t72 30.5q40 0 71 -30.5t31 -71.5t-31 -73t-71 -32q-41 0 -72 32t-31 73z" />
    <glyph glyph-name="yacute" unicode="&#xfd;" horiz-adv-x="1071" 
d="M246 -406q-76 0 -121 36t-45 91q0 45 28.5 73t73.5 28q39 0 58 -24t21 -53t14 -53t40 -24q63 0 123 152q21 53 22.5 107t-6.5 86t-24 75l-246 604q-40 98 -69 131t-95 58v43h408v-43q-59 -17 -80 -35.5t-18 -51t32 -102.5l183 -448q20 -44 35.5 -44t35.5 46l91 233
q30 75 48.5 130t29.5 95t10 68t-5.5 45.5t-22 30t-33.5 19t-46 14.5v43h363v-43q-89 -25 -126 -59.5t-75 -129.5l-344 -850q-25 -62 -46 -101t-51 -76t-70 -54t-93 -17zM461 1100q-17 20 12 49l201 215q43 49 82 49q28 0 48.5 -19.5t20.5 -47.5q0 -51 -67 -95l-240 -157
q-41 -26 -57 6z" />
    <glyph glyph-name="thorn" unicode="&#xfe;" horiz-adv-x="1107" 
d="M23 -346q73 8 102 30.5t29 77.5v1373q0 72 -26 97.5t-108 18.5v41l226 49q34 8 52.5 -7t18.5 -50v-446q0 -16 11 -21t28 12q34 41 113 77t174 36q171 0 287.5 -127.5t116.5 -333.5q0 -116 -37 -211t-99 -155.5t-141 -93.5t-164 -33q-56 0 -109.5 13.5t-83.5 27.5t-54 22
t-33 -1.5t-9 -43.5v-244q0 -55 29.5 -77.5t104.5 -30.5v-43h-428v43zM317 367q0 -82 27.5 -147t72 -102.5t95.5 -57t102 -19.5q125 0 198 98t73 258q0 184 -93 308t-233 124q-34 0 -65.5 -6.5t-64.5 -24t-57 -44.5t-39.5 -72.5t-15.5 -103.5v-211z" />
    <glyph glyph-name="ydieresis" unicode="&#xff;" horiz-adv-x="1071" 
d="M246 -406q-76 0 -121 36t-45 91q0 45 28.5 73t73.5 28q39 0 58 -24t21 -53t14 -53t40 -24q63 0 123 152q21 53 22.5 107t-6.5 86t-24 75l-246 604q-40 98 -69 131t-95 58v43h408v-43q-59 -17 -80 -35.5t-18 -51t32 -102.5l183 -448q20 -44 35.5 -44t35.5 46l91 233
q30 75 48.5 130t29.5 95t10 68t-5.5 45.5t-22 30t-33.5 19t-46 14.5v43h363v-43q-89 -25 -126 -59.5t-75 -129.5l-344 -850q-25 -62 -46 -101t-51 -76t-70 -54t-93 -17zM250 1268q0 41 30.5 71.5t71.5 30.5t72 -30.5t31 -71.5t-31 -73t-72 -32t-71.5 31.5t-30.5 73.5z
M627 1268q0 41 30.5 71.5t71.5 30.5q40 0 71 -30.5t31 -71.5t-31 -73t-71 -32q-41 0 -71.5 31.5t-30.5 73.5z" />
    <glyph glyph-name="Amacron" unicode="&#x100;" horiz-adv-x="1460" 
d="M41 43q72 13 111 45.5t71 104.5l395 923q41 94 41 156l117 12l451 -1040q48 -114 82.5 -152.5t109.5 -48.5v-43h-461v43q48 7 74.5 18t34.5 28.5t3.5 37.5t-19.5 53l-60 137q-18 39 -46 54.5t-73 15.5h-397q-92 0 -117 -61l-59 -136q-27 -66 6 -101t125 -46v-43h-389v43z
M410 1579v18q0 16 6.5 22.5t25.5 6.5h596q19 0 26 -6.5t7 -22.5v-18q0 -16 -7 -22.5t-26 -6.5h-596q-19 0 -25.5 6.5t-6.5 22.5zM434 506q-10 -26 -1.5 -40.5t30.5 -14.5h418q20 0 31 14.5t1 36.5l-221 514q-10 26 -19.5 26t-21.5 -28z" />
    <glyph glyph-name="amacron" unicode="&#x101;" horiz-adv-x="1011" 
d="M328 -12q-72 0 -130.5 22t-97.5 74.5t-39 128.5q0 62 27.5 111.5t91.5 93.5t180 76t283 51q25 2 37 14t12 43v43q0 115 -55 179.5t-168 64.5q-71 0 -107 -26.5t-44 -64t-12.5 -75t-26 -64t-70.5 -26.5q-43 0 -65.5 24t-22.5 68q0 56 35.5 99.5t94.5 68t128 37t145 12.5
q178 0 255 -81t77 -255v-469q0 -88 94 -57v-23q-14 -30 -48 -49.5t-73 -19.5q-59 0 -97.5 37.5t-41.5 111.5q2 15 -9 13q-9 -1 -19 -13q-57 -69 -147 -109t-187 -40zM193 1231v18q0 16 6.5 22.5t25.5 6.5h596q19 0 26 -6.5t7 -22.5v-18q0 -16 -7 -22.5t-26 -6.5h-596
q-19 0 -25.5 6.5t-6.5 22.5zM238 250q0 -73 47 -120.5t139 -47.5q110 0 189 71t79 175v94q0 40 -16.5 58t-65.5 12q-372 -45 -372 -242z" />
    <glyph glyph-name="Abreve" unicode="&#x102;" horiz-adv-x="1460" 
d="M41 43q72 13 111 45.5t71 104.5l395 923q41 94 41 156l117 12l451 -1040q48 -114 82.5 -152.5t109.5 -48.5v-43h-461v43q48 7 74.5 18t34.5 28.5t3.5 37.5t-19.5 53l-60 137q-18 39 -46 54.5t-73 15.5h-397q-92 0 -117 -61l-59 -136q-27 -66 6 -101t125 -46v-43h-389v43z
M434 506q-10 -26 -1.5 -40.5t30.5 -14.5h418q20 0 31 14.5t1 36.5l-221 514q-10 26 -19.5 26t-21.5 -28zM455 1679q0 31 26 31h17q17 0 20 -24q11 -60 62.5 -101t136.5 -41q84 0 135 41t61 101q3 24 23 24h14q27 0 27 -31q0 -101 -68 -171t-192 -70q-125 0 -193.5 70
t-68.5 171z" />
    <glyph glyph-name="abreve" unicode="&#x103;" horiz-adv-x="1011" 
d="M328 -12q-72 0 -130.5 22t-97.5 74.5t-39 128.5q0 62 27.5 111.5t91.5 93.5t180 76t283 51q25 2 37 14t12 43v43q0 115 -55 179.5t-168 64.5q-71 0 -107 -26.5t-44 -64t-12.5 -75t-26 -64t-70.5 -26.5q-43 0 -65.5 24t-22.5 68q0 56 35.5 99.5t94.5 68t128 37t145 12.5
q178 0 255 -81t77 -255v-469q0 -88 94 -57v-23q-14 -30 -48 -49.5t-73 -19.5q-59 0 -97.5 37.5t-41.5 111.5q2 15 -9 13q-9 -1 -19 -13q-57 -69 -147 -109t-187 -40zM238 250q0 -73 47 -120.5t139 -47.5q110 0 189 71t79 175v94q0 40 -16.5 58t-65.5 12q-372 -45 -372 -242z
M238 1331q0 31 26 31h17q16 0 20 -25q11 -60 62 -100.5t137 -40.5q84 0 135 40.5t61 100.5q4 25 23 25h14q27 0 27 -31q0 -101 -68 -171t-192 -70q-125 0 -193.5 70t-68.5 171z" />
    <glyph glyph-name="Aogonek" unicode="&#x104;" horiz-adv-x="1460" 
d="M41 43q72 13 111 45.5t71 104.5l395 923q41 94 41 156l117 12l451 -1040q48 -114 82.5 -152.5t109.5 -48.5v-43h-194q-152 -102 -152 -229q0 -49 33.5 -79t77.5 -30q66 0 103.5 29t60.5 82h51q-74 -195 -258 -195q-53 0 -101.5 18t-83 58.5t-34.5 95.5q0 45 20.5 86.5
t55.5 72.5t71 53t76 38h-187v43q48 7 74.5 18t34.5 28.5t3.5 37.5t-19.5 53l-60 137q-18 39 -46 54.5t-73 15.5h-397q-92 0 -117 -61l-59 -136q-27 -66 6 -101t125 -46v-43h-389v43zM434 506q-10 -26 -1.5 -40.5t30.5 -14.5h418q20 0 31 14.5t1 36.5l-221 514
q-10 26 -19.5 26t-21.5 -28z" />
    <glyph glyph-name="aogonek" unicode="&#x105;" horiz-adv-x="999" 
d="M711 -401q-78 0 -134.5 39.5t-56.5 119.5q0 87 66 150t172 98q-65 33 -68 131q2 15 -9 13q-9 -1 -19 -13q-57 -69 -147 -109t-187 -40q-72 0 -130.5 22t-97.5 74.5t-39 128.5q0 62 27.5 111.5t91.5 93.5t180 76t283 51q25 2 37 14t12 43v43q0 115 -55 179.5t-168 64.5
q-71 0 -107 -26.5t-44 -64t-12.5 -75t-26 -64t-70.5 -26.5q-43 0 -65.5 24t-22.5 68q0 56 35.5 99.5t94.5 68t128 37t145 12.5q178 0 255 -81t77 -255v-469q0 -88 94 -57v-23q-19 -41 -67 -59v-2q-106 -31 -158.5 -84t-52.5 -121q0 -52 29.5 -80t74.5 -28q85 0 135 116h45
q-6 -23 -17 -46.5t-31.5 -52t-47 -50.5t-65.5 -36.5t-84 -14.5zM238 250q0 -73 47 -120.5t139 -47.5q110 0 189 71t79 175v94q0 40 -16.5 58t-65.5 12q-372 -45 -372 -242z" />
    <glyph glyph-name="Cacute" unicode="&#x106;" horiz-adv-x="1308" 
d="M723 -20q-103 0 -200 28t-181 84.5t-146.5 135t-98.5 185t-36 228.5q0 123 36.5 230t100.5 185.5t149.5 135t185.5 85t206 28.5q110 0 203.5 -30.5t153.5 -78.5t93.5 -105t33.5 -112t-32 -91t-85 -36q-47 0 -78 33t-35 94q-3 47 -23 90.5t-56.5 83t-99 63t-142.5 23.5
q-191 0 -307.5 -134t-116.5 -366q0 -140 46.5 -259t126.5 -200.5t188.5 -127.5t230.5 -46q113 0 199.5 43.5t168.5 135.5l29 -25q-23 -42 -63 -86t-102.5 -90t-154 -75t-194.5 -29zM612 1448q-16 20 13 49l200 215q43 49 82 49q28 0 49 -20t21 -47q0 -50 -68 -95l-239 -157
q-42 -27 -58 6z" />
    <glyph glyph-name="cacute" unicode="&#x107;" horiz-adv-x="997" 
d="M545 -12q-97 0 -184.5 32.5t-154 92t-106 150.5t-39.5 200q0 112 41 204t110 151.5t158.5 91.5t188.5 32q158 0 255 -75t97 -165q0 -43 -25.5 -70.5t-66.5 -27.5q-37 0 -61.5 22.5t-28.5 67.5q-9 80 -60 136.5t-155 56.5q-130 0 -207.5 -94.5t-77.5 -260.5
q0 -198 118.5 -315t293.5 -117q164 0 250 131l35 -28q-14 -35 -44.5 -70.5t-77 -69t-114.5 -54.5t-145 -21zM475 1100q-17 20 12 49l201 215q43 49 82 49q28 0 49 -20t21 -47q0 -50 -68 -95l-240 -157q-41 -26 -57 6z" />
    <glyph glyph-name="Ccircumflex" unicode="&#x108;" horiz-adv-x="1308" 
d="M723 -20q-103 0 -200 28t-181 84.5t-146.5 135t-98.5 185t-36 228.5q0 123 36.5 230t100.5 185.5t149.5 135t185.5 85t206 28.5q110 0 203.5 -30.5t153.5 -78.5t93.5 -105t33.5 -112t-32 -91t-85 -36q-47 0 -78 33t-35 94q-3 47 -23 90.5t-56.5 83t-99 63t-142.5 23.5
q-191 0 -307.5 -134t-116.5 -366q0 -140 46.5 -259t126.5 -200.5t188.5 -127.5t230.5 -46q113 0 199.5 43.5t168.5 135.5l29 -25q-23 -42 -63 -86t-102.5 -90t-154 -75t-194.5 -29zM455 1446l215 244q8 9 21 9t22 -9l213 -244q17 -20 -2 -39q-12 -12 -37 4l-197 145
l-194 -145q-27 -16 -39 -4q-19 19 -2 39z" />
    <glyph glyph-name="ccircumflex" unicode="&#x109;" horiz-adv-x="997" 
d="M545 -12q-97 0 -184.5 32.5t-154 92t-106 150.5t-39.5 200q0 112 41 204t110 151.5t158.5 91.5t188.5 32q158 0 255 -75t97 -165q0 -43 -25.5 -70.5t-66.5 -27.5q-37 0 -61.5 22.5t-28.5 67.5q-9 80 -60 136.5t-155 56.5q-130 0 -207.5 -94.5t-77.5 -260.5
q0 -198 118.5 -315t293.5 -117q164 0 250 131l35 -28q-14 -35 -44.5 -70.5t-77 -69t-114.5 -54.5t-145 -21zM319 1098l216 243q7 9 20.5 9t22.5 -9l213 -243q17 -19 -3 -39q-12 -12 -36 4l-197 145l-195 -145q-27 -15 -38 -4q-20 20 -3 39z" />
    <glyph glyph-name="Cdotaccent" unicode="&#x10a;" horiz-adv-x="1308" 
d="M723 -20q-103 0 -200 28t-181 84.5t-146.5 135t-98.5 185t-36 228.5q0 123 36.5 230t100.5 185.5t149.5 135t185.5 85t206 28.5q110 0 203.5 -30.5t153.5 -78.5t93.5 -105t33.5 -112t-32 -91t-85 -36q-47 0 -78 33t-35 94q-3 47 -23 90.5t-56.5 83t-99 63t-142.5 23.5
q-191 0 -307.5 -134t-116.5 -366q0 -140 46.5 -259t126.5 -200.5t188.5 -127.5t230.5 -46q113 0 199.5 43.5t168.5 135.5l29 -25q-23 -42 -63 -86t-102.5 -90t-154 -75t-194.5 -29zM588 1616q0 41 30.5 71.5t71.5 30.5t72 -30.5t31 -71.5t-31 -73t-72 -32t-71.5 31.5
t-30.5 73.5z" />
    <glyph glyph-name="cdotaccent" unicode="&#x10b;" horiz-adv-x="997" 
d="M545 -12q-97 0 -184.5 32.5t-154 92t-106 150.5t-39.5 200q0 112 41 204t110 151.5t158.5 91.5t188.5 32q158 0 255 -75t97 -165q0 -43 -25.5 -70.5t-66.5 -27.5q-37 0 -61.5 22.5t-28.5 67.5q-9 80 -60 136.5t-155 56.5q-130 0 -207.5 -94.5t-77.5 -260.5
q0 -198 118.5 -315t293.5 -117q164 0 250 131l35 -28q-14 -35 -44.5 -70.5t-77 -69t-114.5 -54.5t-145 -21zM453 1268q0 41 30.5 71.5t71.5 30.5t71.5 -30.5t30.5 -71.5q0 -42 -30.5 -73.5t-71.5 -31.5t-71.5 31.5t-30.5 73.5z" />
    <glyph glyph-name="Ccaron" unicode="&#x10c;" horiz-adv-x="1308" 
d="M723 -20q-103 0 -200 28t-181 84.5t-146.5 135t-98.5 185t-36 228.5q0 123 36.5 230t100.5 185.5t149.5 135t185.5 85t206 28.5q110 0 203.5 -30.5t153.5 -78.5t93.5 -105t33.5 -112t-32 -91t-85 -36q-47 0 -78 33t-35 94q-3 47 -23 90.5t-56.5 83t-99 63t-142.5 23.5
q-191 0 -307.5 -134t-116.5 -366q0 -140 46.5 -259t126.5 -200.5t188.5 -127.5t230.5 -46q113 0 199.5 43.5t168.5 135.5l29 -25q-23 -42 -63 -86t-102.5 -90t-154 -75t-194.5 -29zM457 1665q-18 21 2 41q15 15 39 -6l194 -148l197 148q21 22 37 6q20 -20 2 -41l-213 -242
q-9 -9 -22 -9t-21 9z" />
    <glyph glyph-name="ccaron" unicode="&#x10d;" horiz-adv-x="997" 
d="M545 -12q-97 0 -184.5 32.5t-154 92t-106 150.5t-39.5 200q0 112 41 204t110 151.5t158.5 91.5t188.5 32q158 0 255 -75t97 -165q0 -43 -25.5 -70.5t-66.5 -27.5q-37 0 -61.5 22.5t-28.5 67.5q-9 80 -60 136.5t-155 56.5q-130 0 -207.5 -94.5t-77.5 -260.5
q0 -198 118.5 -315t293.5 -117q164 0 250 131l35 -28q-14 -35 -44.5 -70.5t-77 -69t-114.5 -54.5t-145 -21zM322 1317q-18 21 2 41q14 14 38 -6l195 -148l197 148q22 22 37 6q20 -20 2 -41l-213 -242q-9 -9 -22 -9t-21 9z" />
    <glyph glyph-name="Dcaron" unicode="&#x10e;" horiz-adv-x="1312" 
d="M61 43q69 12 96 31.5t27 72.5v979q0 52 -27.5 71.5t-95.5 31.5v43h480q111 0 207.5 -18.5t187 -64t154.5 -115t102.5 -179t38.5 -248.5q0 -164 -53.5 -290.5t-147 -202t-211 -113t-254.5 -37.5q-39 0 -144 5t-149 5q-91 0 -211 -14v43zM371 147q0 -90 180 -90
q105 0 188.5 31.5t138 85.5t91 130t52 160.5t15.5 182.5q0 97 -15.5 179.5t-52 156t-92.5 124.5t-140.5 80.5t-192.5 29.5h-45q-66 0 -96.5 -19t-30.5 -70v-981zM412 1665q-18 21 2 41q15 15 39 -6l194 -148l197 148q22 22 37 6q20 -20 2 -41l-213 -242q-9 -9 -22 -9t-21 9z
" />
    <glyph glyph-name="dcaron" unicode="&#x10f;" horiz-adv-x="1165" 
d="M1069 991q-14 0 -25.5 11t-11.5 26l8 244q3 80 68 80q42 0 63 -27t5 -78l-68 -219q-15 -37 -39 -37zM61 459q0 113 37 206t100 152.5t144 92t170 32.5q51 0 102 -11.5t80.5 -23t53.5 -17.5t33.5 5t9.5 45v195q0 72 -26 97.5t-108 18.5v41l226 49q34 8 52.5 -7t18.5 -50
v-1147q0 -50 27.5 -64t77.5 -5v-25q-17 -24 -55 -39.5t-80 -15.5q-101 0 -129 94q-7 31 -37 31q-18 0 -46.5 -19.5t-57.5 -43t-82 -43t-115 -19.5q-168 0 -282 130.5t-114 340.5zM225 532q0 -189 92 -310.5t242 -121.5q41 0 79 11.5t74 36t57.5 72.5t21.5 114v235
q0 82 -27.5 146t-72.5 100.5t-96 55t-103 18.5q-125 0 -196 -98t-71 -259z" />
    <glyph glyph-name="Dcroat" unicode="&#x110;" horiz-adv-x="1312" 
d="M63 612v47h121v467q0 52 -27.5 71.5t-95.5 31.5v43h480q111 0 207.5 -18.5t187 -64t154.5 -115t102.5 -179t38.5 -248.5q0 -164 -53.5 -290.5t-147 -202t-211 -113t-254.5 -37.5q-39 0 -144 5t-149 5q-91 0 -211 -14v43q69 12 96 31.5t27 72.5v465h-121zM371 147
q0 -90 180 -90q105 0 188.5 31.5t138 85.5t91 130t52 160.5t15.5 182.5q0 97 -15.5 179.5t-52 156t-92.5 124.5t-140.5 80.5t-192.5 29.5h-45q-66 0 -96.5 -19t-30.5 -70v-469h252v-47h-252v-465z" />
    <glyph glyph-name="dcroat" unicode="&#x111;" horiz-adv-x="1134" 
d="M528 1042v48h263v45q0 72 -26 97.5t-108 18.5v41l226 49q34 8 52.5 -7t18.5 -50v-194h133v-48h-133v-905q0 -50 27.5 -64t77.5 -5v-25q-17 -24 -55 -39.5t-80 -15.5q-101 0 -129 94q-7 31 -37 31q-18 0 -46.5 -19.5t-57.5 -43t-82 -43t-115 -19.5q-168 0 -282 130.5
t-114 340.5q0 113 37 206t100 152.5t144 92t170 32.5q51 0 102 -11.5t80.5 -23t53.5 -17.5t33.5 5t9.5 45v102h-263zM225 532q0 -189 92 -310.5t242 -121.5q41 0 79 11.5t74 36t57.5 72.5t21.5 114v235q0 82 -27.5 146t-72.5 100.5t-96 55t-103 18.5q-125 0 -196 -98
t-71 -259z" />
    <glyph glyph-name="Emacron" unicode="&#x112;" horiz-adv-x="1150" 
d="M61 43q69 12 96 31.5t27 72.5v977q0 53 -27.5 73t-95.5 32v43h930q28 0 31 -25q12 -106 41 -223h-39q-38 97 -100 143.5t-164 46.5h-262q-65 0 -96 -21t-31 -75v-350q0 -55 30 -73.5t97 -18.5h202q89 0 122 34t46 113h33v-354h-33q-7 39 -15.5 63t-26.5 45.5t-49 31
t-77 9.5h-202q-66 0 -96.5 -19t-30.5 -73v-370q0 -57 40 -77.5t152 -19.5l236 2q54 1 93 9.5t64 26t39 34t29 41.5l49 76h41q-45 -80 -61 -219q-3 -29 -33 -29h-959v43zM272 1579v18q0 16 7 22.5t26 6.5h596q19 0 26 -6.5t7 -22.5v-18q0 -16 -7 -22.5t-26 -6.5h-596
q-19 0 -26 6.5t-7 22.5z" />
    <glyph glyph-name="emacron" unicode="&#x113;" horiz-adv-x="978" 
d="M532 -12q-129 0 -235.5 57t-171 167.5t-64.5 254.5q0 111 38 201.5t103.5 150t151.5 91.5t183 32q154 0 244.5 -74t90.5 -192q0 -101 -86.5 -144.5t-304.5 -52.5l-182 -8q-29 -1 -41 -16.5t-12 -48.5q0 -57 27 -112t74 -99t117.5 -70.5t151.5 -26.5q167 0 258 117l33 -27
q-17 -31 -46 -62.5t-74 -64t-111.5 -53t-143.5 -20.5zM186 1231v18q0 16 7 22.5t26 6.5h596q19 0 26 -6.5t7 -22.5v-18q0 -16 -7 -22.5t-26 -6.5h-596q-19 0 -26 6.5t-7 22.5zM236 596q0 -49 15.5 -62.5t51.5 -11.5l150 2q147 5 199.5 36t52.5 114q0 93 -51 153t-154 60
q-85 0 -147 -45t-89.5 -109.5t-27.5 -136.5z" />
    <glyph glyph-name="Edotaccent" unicode="&#x116;" horiz-adv-x="1150" 
d="M61 43q69 12 96 31.5t27 72.5v977q0 53 -27.5 73t-95.5 32v43h930q28 0 31 -25q12 -106 41 -223h-39q-38 97 -100 143.5t-164 46.5h-262q-65 0 -96 -21t-31 -75v-350q0 -55 30 -73.5t97 -18.5h202q89 0 122 34t46 113h33v-354h-33q-7 39 -15.5 63t-26.5 45.5t-49 31
t-77 9.5h-202q-66 0 -96.5 -19t-30.5 -73v-370q0 -57 40 -77.5t152 -19.5l236 2q54 1 93 9.5t64 26t39 34t29 41.5l49 76h41q-45 -80 -61 -219q-3 -29 -33 -29h-959v43zM479 1616q0 41 31 71.5t72 30.5t71.5 -30.5t30.5 -71.5q0 -42 -30.5 -73.5t-71.5 -31.5t-72 32t-31 73z
" />
    <glyph glyph-name="edotaccent" unicode="&#x117;" horiz-adv-x="978" 
d="M532 -12q-129 0 -235.5 57t-171 167.5t-64.5 254.5q0 111 38 201.5t103.5 150t151.5 91.5t183 32q154 0 244.5 -74t90.5 -192q0 -101 -86.5 -144.5t-304.5 -52.5l-182 -8q-29 -1 -41 -16.5t-12 -48.5q0 -57 27 -112t74 -99t117.5 -70.5t151.5 -26.5q167 0 258 117l33 -27
q-17 -31 -46 -62.5t-74 -64t-111.5 -53t-143.5 -20.5zM236 596q0 -49 15.5 -62.5t51.5 -11.5l150 2q147 5 199.5 36t52.5 114q0 93 -51 153t-154 60q-85 0 -147 -45t-89.5 -109.5t-27.5 -136.5zM391 1268q0 41 31 71.5t72 30.5t71.5 -30.5t30.5 -71.5q0 -42 -30.5 -73.5
t-71.5 -31.5t-72 32t-31 73z" />
    <glyph glyph-name="Eogonek" unicode="&#x118;" horiz-adv-x="1150" 
d="M61 43q69 12 96 31.5t27 72.5v977q0 53 -27.5 73t-95.5 32v43h930q28 0 31 -25q12 -106 41 -223h-39q-38 97 -100 143.5t-164 46.5h-262q-65 0 -96 -21t-31 -75v-350q0 -55 30 -73.5t97 -18.5h202q89 0 122 34t46 113h33v-354h-33q-7 39 -15.5 63t-26.5 45.5t-49 31
t-77 9.5h-202q-66 0 -96.5 -19t-30.5 -73v-370q0 -57 40 -77.5t152 -19.5l236 2q54 1 93 9.5t64 26t39 34t29 41.5l49 76h41q-45 -80 -61 -219q-3 -29 -33 -29h-172q-152 -102 -152 -229q0 -49 33.5 -79t77.5 -30q66 0 103.5 29t60.5 82h51q-74 -195 -258 -195
q-53 0 -101.5 18t-83 58.5t-34.5 95.5q0 45 20.5 86.5t55.5 72.5t71 53t76 38h-707v43z" />
    <glyph glyph-name="eogonek" unicode="&#x119;" horiz-adv-x="978" 
d="M532 -401q-47 0 -87.5 14.5t-71.5 54t-31 99.5q0 127 178 221q-194 5 -326.5 135.5t-132.5 343.5q0 111 38 201.5t103.5 150t151.5 91.5t183 32q154 0 244.5 -74t90.5 -192q0 -101 -86.5 -144.5t-304.5 -52.5l-182 -8q-29 -1 -41 -16.5t-12 -48.5q0 -57 27 -112t74 -99
t117.5 -70.5t151.5 -26.5q167 0 258 117l33 -27q-27 -50 -83.5 -100t-139.5 -76q-190 -102 -190 -219q0 -56 28 -83t74 -27q95 0 145 116h54q-12 -31 -30 -60.5t-48.5 -63.5t-78.5 -55t-106 -21zM236 596q0 -49 15.5 -62.5t51.5 -11.5l150 2q147 5 199.5 36t52.5 114
q0 93 -51 153t-154 60q-85 0 -147 -45t-89.5 -109.5t-27.5 -136.5z" />
    <glyph glyph-name="Ecaron" unicode="&#x11a;" horiz-adv-x="1150" 
d="M61 43q69 12 96 31.5t27 72.5v977q0 53 -27.5 73t-95.5 32v43h930q28 0 31 -25q12 -106 41 -223h-39q-38 97 -100 143.5t-164 46.5h-262q-65 0 -96 -21t-31 -75v-350q0 -55 30 -73.5t97 -18.5h202q89 0 122 34t46 113h33v-354h-33q-7 39 -15.5 63t-26.5 45.5t-49 31
t-77 9.5h-202q-66 0 -96.5 -19t-30.5 -73v-370q0 -57 40 -77.5t152 -19.5l236 2q54 1 93 9.5t64 26t39 34t29 41.5l49 76h41q-45 -80 -61 -219q-3 -29 -33 -29h-959v43zM348 1665q-18 21 2 41q15 15 39 -6l195 -148l196 148q22 22 37 6q20 -20 2 -41l-213 -242
q-9 -9 -22.5 -9t-20.5 9z" />
    <glyph glyph-name="ecaron" unicode="&#x11b;" horiz-adv-x="978" 
d="M532 -12q-129 0 -235.5 57t-171 167.5t-64.5 254.5q0 111 38 201.5t103.5 150t151.5 91.5t183 32q154 0 244.5 -74t90.5 -192q0 -101 -86.5 -144.5t-304.5 -52.5l-182 -8q-29 -1 -41 -16.5t-12 -48.5q0 -57 27 -112t74 -99t117.5 -70.5t151.5 -26.5q167 0 258 117l33 -27
q-17 -31 -46 -62.5t-74 -64t-111.5 -53t-143.5 -20.5zM236 596q0 -49 15.5 -62.5t51.5 -11.5l150 2q147 5 199.5 36t52.5 114q0 93 -51 153t-154 60q-85 0 -147 -45t-89.5 -109.5t-27.5 -136.5zM260 1317q-18 21 2 41q15 15 39 -6l195 -148l196 148q22 22 37 6q20 -20 2 -41
l-213 -242q-9 -9 -22.5 -9t-20.5 9z" />
    <glyph glyph-name="Gcircumflex" unicode="&#x11c;" horiz-adv-x="1378" 
d="M723 -20q-137 0 -257.5 44.5t-210.5 126t-142 205.5t-52 275q0 157 55.5 286t150 213t217 129.5t259.5 45.5q109 0 202 -29t152.5 -75t92.5 -101.5t33 -110.5q0 -56 -30.5 -90.5t-84.5 -34.5q-45 0 -74 28.5t-35 76.5q-7 48 -27 93t-57 86t-100 66t-143 25
q-193 0 -308.5 -134t-115.5 -366q0 -146 49 -276t130.5 -221t190 -144t224.5 -53q89 0 136.5 35.5t47.5 116.5v143q0 60 -6 93.5t-26 58t-54.5 34.5t-95.5 15v41l483 2v-43q-83 -10 -106 -48t-23 -153v-150q0 -121 6 -174q1 -15 -9 -19.5t-24 3.5q-52 25 -102 25
q-44 0 -152.5 -22.5t-193.5 -22.5zM457 1446l215 244q8 9 21 9t22 -9l213 -244q17 -20 -2 -39q-12 -12 -37 4l-197 145l-194 -145q-27 -16 -39 -4q-19 19 -2 39z" />
    <glyph glyph-name="gcircumflex" unicode="&#x11d;" horiz-adv-x="1044" 
d="M426 -389q-112 0 -200.5 26t-141.5 80t-53 129q0 129 164 199q45 19 46 21t-5 4q-4 1 -11 2q-67 11 -109 51.5t-42 95.5q0 54 44 91.5t128 49.5q-154 88 -154 265q0 142 100.5 229.5t276.5 87.5q107 0 195.5 -37t134.5 -106q-2 61 27 101t92 40q44 0 70 -21t26 -55
q0 -41 -31.5 -58.5t-69.5 -6.5q-44 14 -67 -6.5t-10 -65.5q12 -40 12 -98q0 -141 -100 -227.5t-269 -86.5q-40 0 -98 6.5t-78 6.5q-40 0 -61 -17t-21 -43q0 -52 94 -65l328 -58q157 -27 233 -73.5t76 -139.5q0 -94 -73.5 -168t-193 -113.5t-259.5 -39.5zM195 -129
q0 -101 85 -154t214 -53q132 0 213 55.5t81 149.5q0 60 -39 89.5t-128 45.5l-138 23q-148 26 -218 -21t-70 -135zM266 668q0 -133 65.5 -220.5t172.5 -87.5q88 0 128 65.5t40 164.5q0 132 -65 218.5t-171 86.5q-47 0 -81 -18.5t-53 -51.5t-27.5 -72t-8.5 -85zM283 1098
l215 243q8 9 21 9t22 -9l213 -243q17 -20 -2 -39q-12 -12 -37 4l-197 145l-194 -145q-27 -16 -39 -4q-19 19 -2 39z" />
    <glyph glyph-name="Gbreve" unicode="&#x11e;" horiz-adv-x="1378" 
d="M723 -20q-137 0 -257.5 44.5t-210.5 126t-142 205.5t-52 275q0 157 55.5 286t150 213t217 129.5t259.5 45.5q109 0 202 -29t152.5 -75t92.5 -101.5t33 -110.5q0 -56 -30.5 -90.5t-84.5 -34.5q-45 0 -74 28.5t-35 76.5q-7 48 -27 93t-57 86t-100 66t-143 25
q-193 0 -308.5 -134t-115.5 -366q0 -146 49 -276t130.5 -221t190 -144t224.5 -53q89 0 136.5 35.5t47.5 116.5v143q0 60 -6 93.5t-26 58t-54.5 34.5t-95.5 15v41l483 2v-43q-83 -10 -106 -48t-23 -153v-150q0 -121 6 -174q1 -15 -9 -19.5t-24 3.5q-52 25 -102 25
q-44 0 -152.5 -22.5t-193.5 -22.5zM430 1679q0 31 27 31h16q8 0 14 -7t7 -17q11 -61 62 -101.5t136 -40.5q84 0 135.5 41t61.5 101q3 24 22 24h15q26 0 26 -31q0 -101 -68 -171t-192 -70q-125 0 -193.5 70t-68.5 171z" />
    <glyph glyph-name="gbreve" unicode="&#x11f;" horiz-adv-x="1044" 
d="M426 -389q-112 0 -200.5 26t-141.5 80t-53 129q0 129 164 199q45 19 46 21t-5 4q-4 1 -11 2q-67 11 -109 51.5t-42 95.5q0 54 44 91.5t128 49.5q-154 88 -154 265q0 142 100.5 229.5t276.5 87.5q107 0 195.5 -37t134.5 -106q-2 61 27 101t92 40q44 0 70 -21t26 -55
q0 -41 -31.5 -58.5t-69.5 -6.5q-44 14 -67 -6.5t-10 -65.5q12 -40 12 -98q0 -141 -100 -227.5t-269 -86.5q-40 0 -98 6.5t-78 6.5q-40 0 -61 -17t-21 -43q0 -52 94 -65l328 -58q157 -27 233 -73.5t76 -139.5q0 -94 -73.5 -168t-193 -113.5t-259.5 -39.5zM195 -129
q0 -101 85 -154t214 -53q132 0 213 55.5t81 149.5q0 60 -39 89.5t-128 45.5l-138 23q-148 26 -218 -21t-70 -135zM256 1331q0 31 27 31h16q16 0 20 -25q11 -60 62 -100.5t137 -40.5q85 0 136 40.5t61 100.5q4 25 22 25h15q26 0 26 -31q0 -101 -68 -171t-192 -70
q-125 0 -193.5 70t-68.5 171zM266 668q0 -133 65.5 -220.5t172.5 -87.5q88 0 128 65.5t40 164.5q0 132 -65 218.5t-171 86.5q-47 0 -81 -18.5t-53 -51.5t-27.5 -72t-8.5 -85z" />
    <glyph glyph-name="Gdotaccent" unicode="&#x120;" horiz-adv-x="1378" 
d="M723 -20q-137 0 -257.5 44.5t-210.5 126t-142 205.5t-52 275q0 157 55.5 286t150 213t217 129.5t259.5 45.5q109 0 202 -29t152.5 -75t92.5 -101.5t33 -110.5q0 -56 -30.5 -90.5t-84.5 -34.5q-45 0 -74 28.5t-35 76.5q-7 48 -27 93t-57 86t-100 66t-143 25
q-193 0 -308.5 -134t-115.5 -366q0 -146 49 -276t130.5 -221t190 -144t224.5 -53q89 0 136.5 35.5t47.5 116.5v143q0 60 -6 93.5t-26 58t-54.5 34.5t-95.5 15v41l483 2v-43q-83 -10 -106 -48t-23 -153v-150q0 -121 6 -174q1 -15 -9 -19.5t-24 3.5q-52 25 -102 25
q-44 0 -152.5 -22.5t-193.5 -22.5zM590 1616q0 41 30.5 71.5t71.5 30.5t72 -30.5t31 -71.5t-31 -73t-72 -32t-71.5 31.5t-30.5 73.5z" />
    <glyph glyph-name="gdotaccent" unicode="&#x121;" horiz-adv-x="1044" 
d="M426 -389q-112 0 -200.5 26t-141.5 80t-53 129q0 129 164 199q45 19 46 21t-5 4q-4 1 -11 2q-67 11 -109 51.5t-42 95.5q0 54 44 91.5t128 49.5q-154 88 -154 265q0 142 100.5 229.5t276.5 87.5q107 0 195.5 -37t134.5 -106q-2 61 27 101t92 40q44 0 70 -21t26 -55
q0 -41 -31.5 -58.5t-69.5 -6.5q-44 14 -67 -6.5t-10 -65.5q12 -40 12 -98q0 -141 -100 -227.5t-269 -86.5q-40 0 -98 6.5t-78 6.5q-40 0 -61 -17t-21 -43q0 -52 94 -65l328 -58q157 -27 233 -73.5t76 -139.5q0 -94 -73.5 -168t-193 -113.5t-259.5 -39.5zM195 -129
q0 -101 85 -154t214 -53q132 0 213 55.5t81 149.5q0 60 -39 89.5t-128 45.5l-138 23q-148 26 -218 -21t-70 -135zM266 668q0 -133 65.5 -220.5t172.5 -87.5q88 0 128 65.5t40 164.5q0 132 -65 218.5t-171 86.5q-47 0 -81 -18.5t-53 -51.5t-27.5 -72t-8.5 -85zM416 1268
q0 41 30.5 71.5t71.5 30.5t72 -30.5t31 -71.5t-31 -73t-72 -32t-71.5 31.5t-30.5 73.5z" />
    <glyph glyph-name="uni0122" unicode="&#x122;" horiz-adv-x="1378" 
d="M723 -20q-137 0 -257.5 44.5t-210.5 126t-142 205.5t-52 275q0 157 55.5 286t150 213t217 129.5t259.5 45.5q109 0 202 -29t152.5 -75t92.5 -101.5t33 -110.5q0 -56 -30.5 -90.5t-84.5 -34.5q-45 0 -74 28.5t-35 76.5q-7 48 -27 93t-57 86t-100 66t-143 25
q-193 0 -308.5 -134t-115.5 -366q0 -146 49 -276t130.5 -221t190 -144t224.5 -53q89 0 136.5 35.5t47.5 116.5v143q0 60 -6 93.5t-26 58t-54.5 34.5t-95.5 15v41l483 2v-43q-83 -10 -106 -48t-23 -153v-150q0 -121 6 -174q1 -15 -9 -19.5t-24 3.5q-52 25 -102 25
q-44 0 -152.5 -22.5t-193.5 -22.5zM580 -293q0 50 33.5 80.5t80.5 30.5q60 0 90.5 -43.5t30.5 -108.5q0 -72 -39.5 -142.5t-105.5 -113.5l-27 29q30 26 52 64t22 63q0 35 -33 35q-44 0 -74 30t-30 76z" />
    <glyph glyph-name="uni0123" unicode="&#x123;" horiz-adv-x="1044" 
d="M426 -389q-112 0 -200.5 26t-141.5 80t-53 129q0 129 164 199q45 19 46 21t-5 4q-4 1 -11 2q-67 11 -109 51.5t-42 95.5q0 54 44 91.5t128 49.5q-154 88 -154 265q0 142 100.5 229.5t276.5 87.5q107 0 195.5 -37t134.5 -106q-2 61 27 101t92 40q44 0 70 -21t26 -55
q0 -41 -31.5 -58.5t-69.5 -6.5q-44 14 -67 -6.5t-10 -65.5q12 -40 12 -98q0 -141 -100 -227.5t-269 -86.5q-40 0 -98 6.5t-78 6.5q-40 0 -61 -17t-21 -43q0 -52 94 -65l328 -58q157 -27 233 -73.5t76 -139.5q0 -94 -73.5 -168t-193 -113.5t-259.5 -39.5zM195 -129
q0 -101 85 -154t214 -53q132 0 213 55.5t81 149.5q0 60 -39 89.5t-128 45.5l-138 23q-148 26 -218 -21t-70 -135zM266 668q0 -133 65.5 -220.5t172.5 -87.5q88 0 128 65.5t40 164.5q0 132 -65 218.5t-171 86.5q-47 0 -81 -18.5t-53 -51.5t-27.5 -72t-8.5 -85zM408 1262
q0 72 39.5 142.5t105.5 113.5l27 -29q-30 -26 -52 -64t-22 -63q0 -35 33 -35q44 0 74 -30t30 -76q0 -49 -34 -80t-81 -31q-59 0 -89.5 43.5t-30.5 108.5z" />
    <glyph glyph-name="Hcircumflex" unicode="&#x124;" horiz-adv-x="1404" 
d="M61 43q69 12 96 31.5t27 72.5v977q0 53 -27.5 73t-95.5 32v43h435v-43q-69 -12 -97 -32t-28 -73v-393q0 -72 73 -72h519q71 0 71 72v393q0 53 -27.5 73t-95.5 32v43h432v-43q-68 -12 -95 -32t-27 -73v-977q0 -53 27 -72.5t95 -31.5v-43h-432v43q69 12 96 31.5t27 72.5
v388q0 69 -69 69h-523q-71 0 -71 -69v-388q0 -53 28 -72.5t97 -31.5v-43h-435v43zM465 1446l215 244q8 9 21 9t22 -9l213 -244q17 -20 -2 -39q-12 -12 -37 4l-197 145l-194 -145q-27 -16 -39 -4q-19 19 -2 39z" />
    <glyph glyph-name="hcircumflex" unicode="&#x125;" horiz-adv-x="1114" 
d="M938 -12q-60 0 -95.5 35t-35.5 110v422q0 129 -61 207t-171 78q-112 0 -179.5 -79t-67.5 -206v-403q0 -55 29 -78t104 -31v-43h-428v43q73 8 102 31t29 78v983q0 72 -25.5 97.5t-107.5 18.5v41l225 49q34 8 53 -7t19 -50v-407q0 -91 28 -87q9 1 19 11l16.5 16.5
t25.5 24.5t31.5 26.5t42.5 27.5t49.5 22.5t60.5 17.5t69 6q130 0 215.5 -83.5t85.5 -256.5v-465q0 -50 27 -63.5t77 -5.5v-25q-19 -25 -57 -40t-80 -15zM430 1098l215 243q7 9 20.5 9t22.5 -9l213 -243q17 -20 -2 -39q-12 -12 -37 4l-196 145l-195 -145q-27 -16 -39 -4
q-19 19 -2 39z" />
    <glyph glyph-name="Hbar" unicode="&#x126;" horiz-adv-x="1404" 
d="M371 977q0 -70 73 -70h519q71 0 71 70v147q0 53 -27.5 73t-95.5 32v43h432v-43q-68 -12 -95 -32t-27 -73v-977q0 -53 27 -72.5t95 -31.5v-43h-432v43q69 12 96 31.5t27 72.5v388q0 69 -69 69h-523q-71 0 -71 -69v-388q0 -53 28 -72.5t97 -31.5v-43h-435v43q69 12 96 31.5
t27 72.5v977q0 53 -27.5 73t-95.5 32v43h435v-43q-69 -12 -97 -32t-28 -73v-147zM371 731q0 -72 73 -72h519q71 0 71 72v49q0 72 -69 72h-523q-71 0 -71 -72v-49z" />
    <glyph glyph-name="hbar" unicode="&#x127;" horiz-adv-x="1114" 
d="M31 1055v55h133v25q0 72 -25.5 97.5t-107.5 18.5v41l225 49q34 8 53 -7t19 -50v-174h374v-55h-374v-178q0 -91 28 -87q9 1 19 11l16.5 16.5t25.5 24.5t31.5 26.5t42.5 27.5t49.5 22.5t60.5 17.5t69 6q130 0 215.5 -83.5t85.5 -256.5v-465q0 -50 27 -63.5t77 -5.5v-25
q-19 -25 -57 -40t-80 -15q-60 0 -95.5 35t-35.5 110v422q0 129 -61 207t-171 78q-112 0 -179.5 -79t-67.5 -206v-403q0 -55 29 -78t104 -31v-43h-428v43q73 8 102 31t29 78v903h-133z" />
    <glyph glyph-name="Itilde" unicode="&#x128;" horiz-adv-x="557" 
d="M61 43q69 12 96 31.5t27 72.5v977q0 53 -27.5 73t-95.5 32v43h435v-43q-69 -12 -97 -32t-28 -73v-977q0 -53 28 -72.5t97 -31.5v-43h-435v43zM-45 1540q0 92 48 139t132 47q43 0 80 -13.5t63.5 -32t51.5 -37.5t55 -32.5t61 -13.5q75 0 97 80q3 17 20 17h10q10 0 16.5 -7
t6.5 -16q0 -91 -49.5 -138.5t-130.5 -47.5q-42 0 -79 13.5t-64.5 32.5t-53 37.5t-55 32t-60.5 13.5q-77 0 -96 -80q-3 -16 -22 -16h-9q-22 0 -22 22z" />
    <glyph glyph-name="itilde" unicode="&#x129;" horiz-adv-x="532" 
d="M53 43q73 8 102 31t29 78v577q0 74 -25.5 100t-107.5 19v39l225 51q34 8 53 -7.5t19 -51.5v-727q0 -55 29 -78t104 -31v-43h-428v43zM-78 1192q0 92 48 139t132 47q43 0 80 -13.5t64 -32t52 -37.5t55 -32.5t61 -13.5q74 0 96 80q3 17 20 17h11q10 0 16 -7t6 -16
q0 -91 -49.5 -138.5t-130.5 -47.5q-42 0 -79 13.5t-64 32.5t-52.5 37.5t-55 32t-60.5 13.5q-78 0 -97 -80q-3 -17 -22 -17h-8q-10 0 -16.5 7t-6.5 16z" />
    <glyph glyph-name="Imacron" unicode="&#x12a;" horiz-adv-x="557" 
d="M61 43q69 12 96 31.5t27 72.5v977q0 53 -27.5 73t-95.5 32v43h435v-43q-69 -12 -97 -32t-28 -73v-977q0 -53 28 -72.5t97 -31.5v-43h-435v43zM-33 1579v18q0 16 7 22.5t26 6.5h596q19 0 26 -6.5t7 -22.5v-18q0 -16 -7 -22.5t-26 -6.5h-596q-19 0 -26 6.5t-7 22.5z" />
    <glyph glyph-name="imacron" unicode="&#x12b;" horiz-adv-x="532" 
d="M53 43q73 8 102 31t29 78v577q0 74 -25.5 100t-107.5 19v39l225 51q34 8 53 -7.5t19 -51.5v-727q0 -55 29 -78t104 -31v-43h-428v43zM-63 1231v18q0 16 6.5 22.5t25.5 6.5h596q19 0 26 -6.5t7 -22.5v-18q0 -16 -7 -22.5t-26 -6.5h-596q-19 0 -25.5 6.5t-6.5 22.5z" />
    <glyph glyph-name="Iogonek" unicode="&#x12e;" horiz-adv-x="557" 
d="M61 43q69 12 96 31.5t27 72.5v977q0 53 -27.5 73t-95.5 32v43h435v-43q-69 -12 -97 -32t-28 -73v-977q0 -53 28 -72.5t97 -31.5v-43h-183q-151 -101 -151 -229q0 -49 33 -79t77 -30q66 0 103.5 29t60.5 82h51q-74 -195 -258 -195q-53 0 -101.5 18t-83 58.5t-34.5 95.5
q0 45 20.5 86.5t55.5 72.5t71 53t76 38h-172v43z" />
    <glyph glyph-name="iogonek" unicode="&#x12f;" horiz-adv-x="532" 
d="M53 43q73 8 102 31t29 78v577q0 74 -25.5 100t-107.5 19v39l225 51q34 8 53 -7.5t19 -51.5v-727q0 -55 29 -78t104 -31v-43h-196q-152 -102 -152 -229q0 -49 33.5 -79t77.5 -30q66 0 103.5 29t60.5 82h51q-74 -195 -258 -195q-53 0 -101.5 18t-83 58.5t-34.5 95.5
q0 45 20.5 86.5t55.5 72.5t71 53t76 38h-152v43zM141 1268q0 41 31 71.5t72 30.5t71.5 -30.5t30.5 -71.5q0 -42 -30.5 -73.5t-71.5 -31.5t-72 32t-31 73z" />
    <glyph glyph-name="Idotaccent" unicode="&#x130;" horiz-adv-x="557" 
d="M61 43q69 12 96 31.5t27 72.5v977q0 53 -27.5 73t-95.5 32v43h435v-43q-69 -12 -97 -32t-28 -73v-977q0 -53 28 -72.5t97 -31.5v-43h-435v43zM174 1616q0 41 30.5 71.5t71.5 30.5t72 -30.5t31 -71.5t-31 -73t-72 -32t-71.5 31.5t-30.5 73.5z" />
    <glyph glyph-name="dotlessi" unicode="&#x131;" horiz-adv-x="532" 
d="M53 43q73 8 102 31t29 78v577q0 74 -25.5 100t-107.5 19v39l225 51q34 8 53 -7.5t19 -51.5v-727q0 -55 29 -78t104 -31v-43h-428v43z" />
    <glyph glyph-name="IJ" unicode="&#x132;" horiz-adv-x="1341" 
d="M61 43q69 12 96 31.5t27 72.5v977q0 53 -27.5 73t-95.5 32v43h435v-43q-69 -12 -97 -32t-28 -73v-977q0 -53 28 -72.5t97 -31.5v-43h-435v43zM567 174q0 47 26 78t71 31q48 0 70 -32t22 -79q0 -54 27 -96.5t83 -42.5q54 0 80.5 38.5t26.5 106.5v946q0 54 -31.5 74
t-114.5 31v43h455v-43q-68 -12 -95.5 -32t-27.5 -73v-841q0 -155 -82.5 -229t-232.5 -74q-134 0 -205.5 57t-71.5 137z" />
    <glyph glyph-name="ij" unicode="&#x133;" horiz-adv-x="999" 
d="M51 43q75 8 104 31t29 78v577q0 74 -25 100t-106 19v39l223 51q34 8 53 -7.5t19 -51.5v-727q0 -55 29 -78t104 -31v-43h-430v43zM145 1268q0 44 30 73t73 29t72.5 -29t29.5 -73t-29.5 -73.5t-72.5 -29.5t-73 29.5t-30 73.5zM414 -283q0 36 20 59t55 23q33 0 58 -24
t38 -52.5t31.5 -52.5t40.5 -24q48 0 48 106v977q0 73 -26 99.5t-108 19.5v39l226 51q33 8 52 -7.5t19 -51.5v-1006q0 -132 -72.5 -207.5t-191.5 -75.5q-78 0 -134 33t-56 94zM664 1268q0 44 29.5 73t72.5 29t72.5 -29t29.5 -73t-29.5 -73.5t-72.5 -29.5t-72.5 29.5
t-29.5 73.5z" />
    <glyph glyph-name="Jcircumflex" unicode="&#x134;" horiz-adv-x="735" 
d="M236 -20q-134 0 -205.5 57t-71.5 137q0 47 26 78t70 31q48 0 70 -32t22 -79q0 -54 27.5 -96.5t83.5 -42.5q54 0 80.5 38.5t26.5 106.5v946q0 54 -31.5 74t-114.5 31v43h455v-43q-68 -12 -95.5 -32t-27.5 -73v-841q0 -155 -82.5 -229t-232.5 -74zM221 1446l215 244
q7 9 20.5 9t22.5 -9l213 -244q17 -20 -2 -39q-12 -12 -37 4l-196 145l-195 -145q-27 -16 -39 -4q-19 19 -2 39z" />
    <glyph glyph-name="jcircumflex" unicode="&#x135;" horiz-adv-x="468" 
d="M74 -410q-79 0 -136 33t-57 94q0 36 21.5 59t60.5 23q28 0 51 -24t36 -52.5t32 -52.5t41 -24q23 0 36 29.5t13 76.5v977q0 74 -25.5 100t-107.5 19v39l225 51q33 8 52.5 -7.5t19.5 -51.5v-1006q0 -132 -71 -207.5t-191 -75.5zM12 1098l215 243q8 9 21 9t22 -9l213 -243
q17 -20 -2 -39q-12 -12 -37 4l-196 145l-195 -145q-27 -16 -39 -4q-19 19 -2 39z" />
    <glyph glyph-name="uni0136" unicode="&#x136;" horiz-adv-x="1314" 
d="M61 43q69 12 96 31.5t27 72.5v977q0 53 -27.5 73t-95.5 32v43h435v-43q-69 -12 -97 -32t-28 -73v-563l528 541q42 42 36 69.5t-32 41.5t-61 16v43h385v-43q-133 -7 -258 -135l-307 -318q-22 -23 -25 -45.5t6 -42t31 -45.5l344 -432q33 -42 64.5 -72t51.5 -45.5t49 -27
t40 -14.5t41 -9v-43h-459v43q25 2 43 8.5t28 19t4.5 34t-28.5 49.5l-307 378q-32 37 -66 37q-44 0 -76 -58.5t-32 -154.5v-209q0 -53 28 -72.5t97 -31.5v-43h-435v43zM547 -293q0 49 34 80t81 31q59 0 89.5 -43.5t30.5 -108.5q0 -72 -39.5 -142.5t-105.5 -113.5l-27 29
q30 26 52 64t22 63q0 35 -33 35q-44 0 -74 30t-30 76z" />
    <glyph glyph-name="uni0137" unicode="&#x137;" horiz-adv-x="1042" 
d="M33 43q73 8 102 31t29 78v983q0 72 -25.5 97.5t-107.5 18.5v41l225 49q34 8 53 -7t19 -50v-745q0 -29 15.5 -37.5t35.5 8.5l319 289q18 19 18 35.5t-26 29t-74 17.5v43h338v-43q-23 -2 -42 -7t-31 -8.5t-28.5 -14.5t-22 -15.5t-25.5 -22t-27 -22.5l-225 -201l326 -451
q23 -32 39 -49.5t38.5 -27t35 -12t50.5 -7.5v-43h-383v43q57 7 64.5 23t-23.5 59l-204 285q-24 31 -40.5 41t-39.5 10q-37 0 -62.5 -38.5t-25.5 -103.5v-167q0 -55 29 -78t104 -31v-43h-428v43zM440 -293q0 49 34 80t81 31q60 0 90.5 -43.5t30.5 -108.5q0 -72 -40 -142.5
t-106 -113.5l-26 29q30 26 52 64t22 63q0 35 -33 35q-45 0 -75 30.5t-30 75.5z" />
    <glyph glyph-name="Lacute" unicode="&#x139;" horiz-adv-x="1128" 
d="M61 43q69 12 96 31.5t27 72.5v977q0 53 -27.5 73t-95.5 32v43h435v-43q-69 -12 -97 -32t-28 -73v-977q0 -50 27 -74.5t89 -23.5l295 17q155 7 226 127l34 61h45l-40 -129q-25 -74 -21 -125h-965v43zM205 1448q-17 20 12 49l201 215q43 49 82 49q28 0 48.5 -19.5
t20.5 -47.5q0 -51 -67 -95l-240 -157q-41 -26 -57 6z" />
    <glyph glyph-name="lacute" unicode="&#x13a;" horiz-adv-x="471" 
d="M285 -12q-61 0 -96 35t-35 110v1002q0 72 -26 97.5t-108 18.5v41l226 49q34 8 52.5 -7t18.5 -50v-1147q0 -50 27.5 -64t77.5 -5v-25q-17 -25 -55.5 -40t-81.5 -15zM145 1448q-16 20 13 49l200 215q43 49 82 49q28 0 49 -20t21 -47q0 -50 -68 -95l-239 -157q-42 -27 -58 6
z" />
    <glyph glyph-name="uni013B" unicode="&#x13b;" horiz-adv-x="1128" 
d="M61 43q69 12 96 31.5t27 72.5v977q0 53 -27.5 73t-95.5 32v43h435v-43q-69 -12 -97 -32t-28 -73v-977q0 -50 27 -74.5t89 -23.5l295 17q155 7 226 127l34 61h45l-40 -129q-25 -74 -21 -125h-965v43zM518 -293q0 49 34 80t81 31q60 0 90.5 -43.5t30.5 -108.5
q0 -72 -40 -142.5t-106 -113.5l-26 29q30 26 51.5 64t21.5 63q0 35 -32 35q-45 0 -75 30.5t-30 75.5z" />
    <glyph glyph-name="uni013C" unicode="&#x13c;" horiz-adv-x="471" 
d="M285 -12q-61 0 -96 35t-35 110v1002q0 72 -26 97.5t-108 18.5v41l226 49q34 8 52.5 -7t18.5 -50v-1147q0 -50 27.5 -64t77.5 -5v-25q-17 -25 -55.5 -40t-81.5 -15zM199 -293q0 50 33.5 80.5t80.5 30.5q60 0 90.5 -43.5t30.5 -108.5q0 -72 -39.5 -142.5t-105.5 -113.5
l-27 29q30 26 52 64t22 63q0 35 -33 35q-44 0 -74 30t-30 76z" />
    <glyph glyph-name="Lcaron" unicode="&#x13d;" horiz-adv-x="1128" 
d="M61 43q69 12 96 31.5t27 72.5v977q0 53 -27.5 73t-95.5 32v43h435v-43q-69 -12 -97 -32t-28 -73v-977q0 -50 27 -74.5t89 -23.5l295 17q155 7 226 127l34 61h45l-40 -129q-25 -74 -21 -125h-965v43zM614 1182q0 49 33.5 79.5t81.5 30.5q60 0 90.5 -43t30.5 -108
q0 -72 -39.5 -142.5t-105.5 -113.5l-27 28q30 26 52 64t22 63q0 35 -33 35q-44 0 -74.5 30.5t-30.5 76.5z" />
    <glyph glyph-name="lcaron" unicode="&#x13e;" horiz-adv-x="530" 
d="M434 991q-14 0 -25.5 11t-11.5 26v244q0 36 20.5 58t55.5 22q42 0 63 -27t5 -78l-68 -219q-5 -16 -15.5 -26.5t-23.5 -10.5zM20 1251v41l226 49q34 8 52.5 -7t18.5 -50v-1147q0 -50 27.5 -64t77.5 -5v-25q-17 -25 -55.5 -40t-81.5 -15q-61 0 -96 35t-35 110v1002
q0 72 -26 97.5t-108 18.5z" />
    <glyph glyph-name="Ldot" unicode="&#x13f;" horiz-adv-x="1128" 
d="M61 43q69 12 96 31.5t27 72.5v977q0 53 -27.5 73t-95.5 32v43h435v-43q-69 -12 -97 -32t-28 -73v-977q0 -50 27 -74.5t89 -23.5l295 17q155 7 226 127l34 61h45l-40 -129q-25 -74 -21 -125h-965v43zM580 694q0 47 33 81t77 34q46 0 79.5 -34t33.5 -81q0 -46 -33.5 -79
t-79.5 -33q-44 0 -77 33t-33 79z" />
    <glyph glyph-name="ldot" unicode="&#x140;" horiz-adv-x="595" 
d="M285 -12q-61 0 -96 35t-35 110v1002q0 72 -26 97.5t-108 18.5v41l226 49q34 8 52.5 -7t18.5 -50v-1147q0 -50 27.5 -64t77.5 -5v-25q-17 -25 -55.5 -40t-81.5 -15zM436 719q0 47 33 81t78 34q46 0 79 -34t33 -81q0 -46 -33 -79.5t-79 -33.5q-44 0 -77.5 33.5t-33.5 79.5z
" />
    <glyph glyph-name="Lslash" unicode="&#x141;" horiz-adv-x="1142" 
d="M61 500v53l136 76v495q0 53 -27.5 73t-95.5 32v43h434v-43q-69 -12 -97 -32t-28 -73v-393l188 105v-56l-188 -104v-529q0 -101 117 -98l295 17q88 4 140 37.5t85 89.5l35 61h45l-41 -129q-25 -74 -21 -125h-964v43q69 12 96 31.5t27 72.5v426z" />
    <glyph glyph-name="lslash" unicode="&#x142;" horiz-adv-x="497" 
d="M20 500v53l134 82v500q0 72 -26 97.5t-108 18.5v41l226 49q34 8 52.5 -7t18.5 -50v-549l132 80v-55l-132 -80v-543q0 -50 27.5 -64t77.5 -5v-25q-17 -25 -55.5 -40t-81.5 -15q-61 0 -96 35t-35 110v447z" />
    <glyph glyph-name="Nacute" unicode="&#x143;" horiz-adv-x="1337" 
d="M61 43q70 12 98.5 31.5t28.5 72.5v977q0 53 -29 73t-98 32v43h271l747 -975v827q0 53 -28 73t-95 32v43h320v-43q-69 -12 -98 -32t-29 -73v-1124h-70l-823 1075v-928q0 -53 27.5 -72.5t95.5 -31.5v-43h-318v43zM588 1448q-17 20 12 49l201 215q43 49 82 49
q28 0 48.5 -19.5t20.5 -47.5q0 -51 -67 -95l-240 -157q-41 -26 -57 6z" />
    <glyph glyph-name="nacute" unicode="&#x144;" horiz-adv-x="1134" 
d="M958 -12q-60 0 -95.5 35t-35.5 110v422q0 130 -60 207.5t-171 77.5q-114 0 -181 -78.5t-67 -206.5v-403q0 -55 29 -78t104 -31v-43h-428v43q73 8 102 31t29 78v577q0 74 -25.5 100t-107.5 19v39l225 51q34 8 53 -7.5t19 -53.5q0 -90 28 -88q9 1 19 12q1 1 15 16.5
t24.5 24.5t30.5 26t41.5 28t48.5 22.5t60.5 17.5t70.5 6q133 0 219 -83.5t86 -256.5v-465q0 -90 105 -69v-25q-19 -24 -57.5 -39.5t-80.5 -15.5zM492 1100q-17 20 12 49l201 215q43 49 81 49q28 0 49 -20t21 -47q0 -50 -68 -95l-239 -157q-41 -26 -57 6z" />
    <glyph glyph-name="uni0145" unicode="&#x145;" horiz-adv-x="1335" 
d="M61 43q70 12 98.5 31.5t28.5 72.5v977q0 53 -29 73t-98 32v43h271l747 -975v827q0 53 -28 73t-95 32v43h320v-43q-69 -12 -98 -32t-29 -73v-1124h-70l-823 1075v-928q0 -53 27.5 -72.5t95.5 -31.5v-43h-318v43zM543 -293q0 50 33.5 80.5t80.5 30.5q60 0 90.5 -43.5
t30.5 -108.5q0 -72 -39.5 -142.5t-105.5 -113.5l-27 29q30 26 52 64t22 63q0 35 -33 35q-44 0 -74 30t-30 76z" />
    <glyph glyph-name="uni0146" unicode="&#x146;" horiz-adv-x="1134" 
d="M958 -12q-60 0 -95.5 35t-35.5 110v422q0 130 -60 207.5t-171 77.5q-114 0 -181 -78.5t-67 -206.5v-403q0 -55 29 -78t104 -31v-43h-428v43q73 8 102 31t29 78v577q0 74 -25.5 100t-107.5 19v39l225 51q34 8 53 -7.5t19 -53.5q0 -90 28 -88q9 1 19 12q1 1 15 16.5
t24.5 24.5t30.5 26t41.5 28t48.5 22.5t60.5 17.5t70.5 6q133 0 219 -83.5t86 -256.5v-465q0 -90 105 -69v-25q-19 -24 -57.5 -39.5t-80.5 -15.5zM459 -293q0 50 33.5 80.5t80.5 30.5q60 0 90.5 -43.5t30.5 -108.5q0 -72 -39.5 -142.5t-105.5 -113.5l-27 29q30 26 52 64
t22 63q0 35 -33 35q-44 0 -74 30t-30 76z" />
    <glyph glyph-name="Ncaron" unicode="&#x147;" horiz-adv-x="1337" 
d="M61 43q70 12 98.5 31.5t28.5 72.5v977q0 53 -29 73t-98 32v43h271l747 -975v827q0 53 -28 73t-95 32v43h320v-43q-69 -12 -98 -32t-29 -73v-1124h-70l-823 1075v-928q0 -53 27.5 -72.5t95.5 -31.5v-43h-318v43zM432 1665q-18 21 2 41q15 15 39 -6l195 -148l196 148
q22 22 37 6q20 -20 2 -41l-213 -242q-9 -9 -22 -9t-21 9z" />
    <glyph glyph-name="ncaron" unicode="&#x148;" horiz-adv-x="1134" 
d="M958 -12q-60 0 -95.5 35t-35.5 110v422q0 130 -60 207.5t-171 77.5q-114 0 -181 -78.5t-67 -206.5v-403q0 -55 29 -78t104 -31v-43h-428v43q73 8 102 31t29 78v577q0 74 -25.5 100t-107.5 19v39l225 51q34 8 53 -7.5t19 -53.5q0 -90 28 -88q9 1 19 12q1 1 15 16.5
t24.5 24.5t30.5 26t41.5 28t48.5 22.5t60.5 17.5t70.5 6q133 0 219 -83.5t86 -256.5v-465q0 -90 105 -69v-25q-19 -24 -57.5 -39.5t-80.5 -15.5zM336 1317q-18 21 2 41q15 15 39 -6l194 -148l197 148q22 22 37 6q20 -20 2 -41l-213 -242q-9 -9 -22.5 -9t-20.5 9z" />
    <glyph glyph-name="Eng" unicode="&#x14a;" horiz-adv-x="1337" 
d="M842 -430q-134 0 -206.5 57t-72.5 140q0 49 24 77.5t72 28.5q91 0 91 -115q0 -53 27 -96t81 -43q105 0 105 150v383l-707 923v-928q0 -53 27.5 -72.5t95.5 -31.5v-43h-318v43q70 12 98.5 31.5t28.5 72.5v977q0 53 -29 73t-98 32v43h271l747 -975v827q0 53 -28 73t-95 32
v43h320v-43q-69 -12 -98 -32t-29 -73v-1251q0 -154 -81.5 -228.5t-225.5 -74.5z" />
    <glyph glyph-name="eng" unicode="&#x14b;" horiz-adv-x="1124" 
d="M733 -393q-81 0 -137.5 32t-56.5 93q0 37 20 59.5t57 22.5q35 0 59.5 -23t35.5 -51t28 -51t39 -23q23 0 36 30t13 77v792q0 123 -59.5 199t-171.5 76q-109 0 -178.5 -79.5t-69.5 -195.5v-413q0 -56 29 -79t104 -32v-41h-428v41q74 9 102.5 32t28.5 79v579
q0 73 -25.5 99.5t-107.5 17.5v39l225 51q34 8 53 -7.5t19 -53.5q0 -91 28 -87q9 1 19 11q51 55 92 82q92 59 205 59q60 0 112 -19t95 -57.5t67.5 -104.5t24.5 -153v-717q0 -134 -70 -209t-188 -75z" />
    <glyph glyph-name="Omacron" unicode="&#x14c;" horiz-adv-x="1435" 
d="M705 -20q-181 0 -328.5 83.5t-231.5 232.5t-84 335q0 189 88.5 344t242 242.5t339.5 87.5q136 0 255 -49t204.5 -135t134.5 -207t49 -259q0 -190 -88 -345t-241.5 -242.5t-339.5 -87.5zM270 707q0 -144 39 -268.5t105 -209.5t155.5 -133.5t188.5 -48.5q61 0 118 17.5
t110 58t92.5 101t63 152.5t23.5 206q0 143 -39 266.5t-105 208t-155 132.5t-188 48q-78 0 -147.5 -29t-129.5 -89t-95.5 -166t-35.5 -246zM389 1579v18q0 16 7 22.5t26 6.5h596q19 0 26 -6.5t7 -22.5v-18q0 -16 -7 -22.5t-26 -6.5h-596q-19 0 -26 6.5t-7 22.5z" />
    <glyph glyph-name="omacron" unicode="&#x14d;" horiz-adv-x="1064" 
d="M530 -12q-126 0 -232 56t-171.5 166t-65.5 253t66 254t173.5 168t236.5 57q125 0 230.5 -55.5t171 -165t65.5 -252.5t-66 -254.5t-173 -169t-235 -57.5zM225 1231v18q0 16 7 22.5t26 6.5h596q19 0 26 -6.5t7 -22.5v-18q0 -16 -7 -22.5t-26 -6.5h-596q-19 0 -26 6.5
t-7 22.5zM242 539q0 -134 42 -246.5t120.5 -180t177.5 -67.5q110 0 176.5 88.5t66.5 257.5q0 134 -42.5 246.5t-121 180t-176.5 67.5q-111 0 -177 -88t-66 -258z" />
    <glyph glyph-name="Ohungarumlaut" unicode="&#x150;" horiz-adv-x="1435" 
d="M705 -20q-181 0 -328.5 83.5t-231.5 232.5t-84 335q0 189 88.5 344t242 242.5t339.5 87.5q136 0 255 -49t204.5 -135t134.5 -207t49 -259q0 -190 -88 -345t-241.5 -242.5t-339.5 -87.5zM270 707q0 -144 39 -268.5t105 -209.5t155.5 -133.5t188.5 -48.5q61 0 118 17.5
t110 58t92.5 101t63 152.5t23.5 206q0 143 -39 266.5t-105 208t-155 132.5t-188 48q-78 0 -147.5 -29t-129.5 -89t-95.5 -166t-35.5 -246zM498 1448q-17 20 12 49l201 215q43 49 82 49q28 0 48.5 -19.5t20.5 -47.5q0 -51 -67 -95l-240 -157q-41 -26 -57 6zM850 1448
q-17 20 12 49l201 215q43 49 82 49q28 0 48.5 -19.5t20.5 -47.5q0 -51 -67 -95l-240 -157q-41 -26 -57 6z" />
    <glyph glyph-name="ohungarumlaut" unicode="&#x151;" horiz-adv-x="1064" 
d="M530 -12q-126 0 -232 56t-171.5 166t-65.5 253t66 254t173.5 168t236.5 57q125 0 230.5 -55.5t171 -165t65.5 -252.5t-66 -254.5t-173 -169t-235 -57.5zM242 539q0 -134 42 -246.5t120.5 -180t177.5 -67.5q110 0 176.5 88.5t66.5 257.5q0 134 -42.5 246.5t-121 180
t-176.5 67.5q-111 0 -177 -88t-66 -258zM315 1100q-16 20 13 49l200 215q43 49 82 49q28 0 49 -20t21 -47q0 -50 -68 -95l-239 -157q-42 -27 -58 6zM668 1100q-17 20 12 49l201 215q43 49 82 49q28 0 48.5 -19.5t20.5 -47.5q0 -51 -67 -95l-240 -157q-41 -26 -57 6z" />
    <glyph glyph-name="OE" unicode="&#x152;" horiz-adv-x="1968" 
d="M707 -20q-181 0 -329 84t-232.5 233t-84.5 334q0 188 88.5 343t241.5 243t338 88q117 0 215 -33h864q28 0 31 -25q12 -106 41 -223h-39q-38 97 -100 143.5t-164 46.5h-262q-65 0 -96 -21t-31 -75v-350q0 -55 30 -73.5t97 -18.5h203q89 0 122 34t46 113h32v-354h-32
q-7 39 -15.5 63t-26.5 45.5t-49 31t-77 9.5h-203q-66 0 -96.5 -19t-30.5 -73v-370q0 -57 40 -77.5t152 -19.5l236 2q54 1 93 9.5t64 26t39 34t29 41.5l49 76h41q-45 -80 -61 -219q-3 -29 -33 -29h-958q-92 -20 -172 -20zM266 707q0 -145 39 -269.5t105.5 -210t156 -134
t187.5 -48.5q135 0 245 74q2 8 2 28v957q-138 135 -319 135q-63 0 -121 -17.5t-112.5 -57.5t-94.5 -100t-64 -152t-24 -205z" />
    <glyph glyph-name="oe" unicode="&#x153;" horiz-adv-x="1765" 
d="M530 -12q-126 0 -232 56t-171.5 166t-65.5 253t66 254t173.5 168t236.5 57q119 0 221 -52t166 -147q64 97 168.5 149t230.5 52q154 0 245 -74t91 -192q0 -101 -86.5 -144.5t-304.5 -52.5l-183 -8q-29 -1 -41 -16.5t-12 -48.5q0 -120 105 -214t266 -94q167 0 258 117
l33 -27q-17 -31 -46 -62.5t-74 -64t-111.5 -53t-143.5 -20.5q-122 0 -226 53.5t-167 149.5q-64 -97 -169 -151t-227 -54zM242 539q0 -134 42 -246.5t120.5 -180t177.5 -67.5q110 0 176.5 88.5t66.5 257.5q0 134 -42.5 246.5t-121 180t-176.5 67.5q-111 0 -177 -88t-66 -258z
M1022 598q0 -49 15.5 -62.5t52.5 -11.5l149 2q147 5 199.5 36t52.5 114q0 93 -51 153t-154 60q-85 0 -147 -45t-89.5 -109.5t-27.5 -136.5z" />
    <glyph glyph-name="Racute" unicode="&#x154;" horiz-adv-x="1259" 
d="M61 43q69 12 96 31.5t27 72.5v977q0 53 -27.5 73t-95.5 32v43h557q237 0 360.5 -89.5t123.5 -254.5q0 -241 -291 -316q-7 -2 -9.5 -5.5t0 -7t9.5 -5.5q158 -47 219 -246q56 -177 93 -241t96 -64v-43h-56q-61 0 -103 11t-72.5 30.5t-56 62t-45 90.5t-46.5 132
q-46 142 -118 197t-202 55q-88 0 -118.5 -25t-30.5 -86v-320q0 -54 31 -73.5t114 -30.5v-43h-455v43zM371 750q0 -60 25 -85.5t87 -25.5h148q280 0 280 285q0 290 -286 290h-119q-75 0 -105 -19t-30 -73v-372zM539 1448q-17 20 12 49l201 215q43 49 82 49q28 0 48.5 -19.5
t20.5 -47.5q0 -51 -67 -95l-240 -157q-41 -26 -57 6z" />
    <glyph glyph-name="racute" unicode="&#x155;" horiz-adv-x="880" 
d="M53 43q73 8 102 31t29 78v577q0 74 -25.5 100t-107.5 19v39l225 51q34 8 53 -7.5t19 -53.5v-58q0 -18 12 -22t31 12q50 53 85 77q81 56 177 56q95 0 141 -50.5t46 -115.5q0 -55 -28.5 -88t-78.5 -33q-35 0 -53 19.5t-24.5 47.5t-13.5 55.5t-29 47t-62 19.5
q-90 0 -146.5 -93.5t-56.5 -273.5v-325q0 -55 30 -78t107 -31v-43h-432v43zM338 1100q-17 20 12 49l201 215q43 49 82 49q28 0 48.5 -19.5t20.5 -47.5q0 -51 -67 -95l-240 -157q-41 -26 -57 6z" />
    <glyph glyph-name="uni0156" unicode="&#x156;" horiz-adv-x="1259" 
d="M61 43q69 12 96 31.5t27 72.5v977q0 53 -27.5 73t-95.5 32v43h557q237 0 360.5 -89.5t123.5 -254.5q0 -241 -291 -316q-7 -2 -9.5 -5.5t0 -7t9.5 -5.5q158 -47 219 -246q56 -177 93 -241t96 -64v-43h-56q-61 0 -103 11t-72.5 30.5t-56 62t-45 90.5t-46.5 132
q-46 142 -118 197t-202 55q-88 0 -118.5 -25t-30.5 -86v-320q0 -54 31 -73.5t114 -30.5v-43h-455v43zM371 750q0 -60 25 -85.5t87 -25.5h148q280 0 280 285q0 290 -286 290h-119q-75 0 -105 -19t-30 -73v-372zM545 -293q0 50 33.5 80.5t80.5 30.5q60 0 90.5 -43.5
t30.5 -108.5q0 -72 -39.5 -142.5t-105.5 -113.5l-27 29q30 26 52 64t22 63q0 35 -33 35q-44 0 -74 30t-30 76z" />
    <glyph glyph-name="uni0157" unicode="&#x157;" horiz-adv-x="870" 
d="M53 43q73 8 102 31t29 78v577q0 74 -25.5 100t-107.5 19v39l225 51q34 8 53 -7.5t19 -53.5v-58q0 -18 12 -22t31 12q50 53 85 77q81 56 177 56q95 0 141 -50.5t46 -115.5q0 -55 -28.5 -88t-78.5 -33q-35 0 -53 19.5t-24.5 47.5t-13.5 55.5t-29 47t-62 19.5
q-90 0 -146.5 -93.5t-56.5 -273.5v-325q0 -55 30 -78t107 -31v-43h-432v43zM170 -293q0 49 34 80t81 31q60 0 90.5 -43.5t30.5 -108.5q0 -72 -40 -142.5t-106 -113.5l-27 29q30 26 52 64t22 63q0 35 -33 35q-44 0 -74 30t-30 76z" />
    <glyph glyph-name="Rcaron" unicode="&#x158;" horiz-adv-x="1259" 
d="M61 43q69 12 96 31.5t27 72.5v977q0 53 -27.5 73t-95.5 32v43h557q237 0 360.5 -89.5t123.5 -254.5q0 -241 -291 -316q-7 -2 -9.5 -5.5t0 -7t9.5 -5.5q158 -47 219 -246q56 -177 93 -241t96 -64v-43h-56q-61 0 -103 11t-72.5 30.5t-56 62t-45 90.5t-46.5 132
q-46 142 -118 197t-202 55q-88 0 -118.5 -25t-30.5 -86v-320q0 -54 31 -73.5t114 -30.5v-43h-455v43zM371 750q0 -60 25 -85.5t87 -25.5h148q280 0 280 285q0 290 -286 290h-119q-75 0 -105 -19t-30 -73v-372zM385 1665q-18 21 2 41q15 15 39 -6l195 -148l196 148
q21 22 37 6q20 -20 2 -41l-213 -242q-9 -9 -22 -9t-21 9z" />
    <glyph glyph-name="rcaron" unicode="&#x159;" horiz-adv-x="880" 
d="M53 43q73 8 102 31t29 78v577q0 74 -25.5 100t-107.5 19v39l225 51q34 8 53 -7.5t19 -53.5v-58q0 -18 12 -22t31 12q50 53 85 77q81 56 177 56q95 0 141 -50.5t46 -115.5q0 -55 -28.5 -88t-78.5 -33q-35 0 -53 19.5t-24.5 47.5t-13.5 55.5t-29 47t-62 19.5
q-90 0 -146.5 -93.5t-56.5 -273.5v-325q0 -55 30 -78t107 -31v-43h-432v43zM160 1317q-18 21 2 41q15 15 39 -6l194 -148l197 148q22 22 37 6q20 -20 2 -41l-213 -242q-9 -9 -22.5 -9t-20.5 9z" />
    <glyph glyph-name="Sacute" unicode="&#x15a;" horiz-adv-x="1093" 
d="M512 -20q-203 0 -389 110q-28 70 -37 141t3 116.5t42 45.5q14 0 20.5 -4t12.5 -20q50 -154 162.5 -241.5t259.5 -86.5q118 3 187 60t69 169q0 27 -5.5 51.5t-12.5 43.5t-23.5 37.5t-27.5 30.5t-37 26.5t-39.5 22t-47 20.5t-47.5 17.5t-53.5 17.5t-52.5 18q-91 31 -159 66
t-125 82.5t-86.5 110.5t-29.5 140q0 156 123 253.5t336 97.5q206 0 367 -95q28 -70 36.5 -141t-3.5 -116.5t-42 -45.5q-22 0 -32 25q-50 151 -153 232t-230 81q-118 0 -176 -66.5t-58 -160.5q0 -47 16 -85t40.5 -65t66 -51t80.5 -39.5t96 -34.5q173 -59 245 -98
q206 -110 214 -296v-15q0 -92 -43.5 -162.5t-117.5 -111t-162 -60.5t-187 -20zM446 1448q-16 20 13 49l200 215q43 49 82 49q28 0 49 -20t21 -47q0 -50 -68 -95l-239 -157q-42 -27 -58 6z" />
    <glyph glyph-name="sacute" unicode="&#x15b;" horiz-adv-x="874" 
d="M420 -12q-70 0 -133 14t-114.5 41.5t-81.5 73t-30 102.5q0 48 22.5 73t59.5 25q35 0 55.5 -21t20.5 -48q0 -72 37.5 -121.5t90 -69.5t114.5 -20q89 0 136.5 40t47.5 113q0 27 -8.5 51t-19 40.5t-34.5 33t-38.5 25.5t-49.5 22t-49.5 17.5t-54.5 17.5q-47 15 -84.5 30
t-80.5 40t-71.5 53.5t-47.5 70.5t-19 91q0 118 98.5 189t257.5 71q141 0 240.5 -56t99.5 -151q0 -42 -22 -68t-64 -26q-69 0 -69 72q0 79 -61 130.5t-154 51.5q-81 0 -123.5 -38t-42.5 -109q0 -44 15 -76.5t48.5 -55.5t65.5 -37t88 -32q148 -47 207 -80q141 -78 141 -207
q0 -122 -112 -197t-281 -75zM352 1100q-16 20 13 49l200 215q43 49 82 49q28 0 49 -20t21 -47q0 -50 -68 -95l-239 -157q-42 -27 -58 6z" />
    <glyph glyph-name="Scircumflex" unicode="&#x15c;" horiz-adv-x="1093" 
d="M512 -20q-203 0 -389 110q-28 70 -37 141t3 116.5t42 45.5q14 0 20.5 -4t12.5 -20q50 -154 162.5 -241.5t259.5 -86.5q118 3 187 60t69 169q0 27 -5.5 51.5t-12.5 43.5t-23.5 37.5t-27.5 30.5t-37 26.5t-39.5 22t-47 20.5t-47.5 17.5t-53.5 17.5t-52.5 18q-91 31 -159 66
t-125 82.5t-86.5 110.5t-29.5 140q0 156 123 253.5t336 97.5q206 0 367 -95q28 -70 36.5 -141t-3.5 -116.5t-42 -45.5q-22 0 -32 25q-50 151 -153 232t-230 81q-118 0 -176 -66.5t-58 -160.5q0 -47 16 -85t40.5 -65t66 -51t80.5 -39.5t96 -34.5q173 -59 245 -98
q206 -110 214 -296v-15q0 -92 -43.5 -162.5t-117.5 -111t-162 -60.5t-187 -20zM291 1446l215 244q7 9 20.5 9t22.5 -9l213 -244q17 -20 -2 -39q-12 -12 -37 4l-197 145l-194 -145q-27 -16 -39 -4q-19 19 -2 39z" />
    <glyph glyph-name="scircumflex" unicode="&#x15d;" horiz-adv-x="866" 
d="M416 -12q-99 0 -180.5 25t-129.5 67q-24 48 -32.5 95.5t3.5 80.5t44 33q31 0 45 -41q39 -107 105 -158t171 -51q95 0 146 41t51 113q0 20 -4 37t-9.5 31t-17.5 27t-21.5 22t-27.5 19t-29.5 16t-34 14.5t-35 12.5t-38 12.5l-37.5 12.5q-49 17 -87.5 34t-79.5 42.5
t-67.5 54t-43.5 68.5t-17 86q0 119 96.5 189.5t255.5 70.5q169 0 283 -78q36 -70 34 -138.5t-50 -68.5q-29 0 -43 41q-70 195 -250 195q-83 0 -127.5 -37.5t-44.5 -105.5q0 -80 52.5 -122.5t162.5 -80.5q141 -50 181 -69q146 -71 163 -183q2 -16 2 -33q0 -125 -108.5 -199.5
t-280.5 -74.5zM184 1098l215 243q7 9 20.5 9t22.5 -9l213 -243q17 -20 -2 -39q-12 -12 -37 4l-196 145l-195 -145q-27 -16 -39 -4q-19 19 -2 39z" />
    <glyph glyph-name="Scedilla" unicode="&#x15e;" horiz-adv-x="1093" 
d="M555 -426q-101 0 -158 37.5t-57 91.5q0 48 39.5 65.5t79.5 -18.5q0 -135 90 -135q55 0 89 43t34 100q0 47 -27 78t-72 31q-25 0 -54 -10.5t-40 -10.5q-23 0 -28.5 15.5t6.5 38.5l39 80q-196 5 -373 110q-28 70 -37 141t3 116.5t42 45.5q14 0 20.5 -4t12.5 -20
q50 -154 162.5 -241.5t259.5 -86.5q118 3 187 60t69 169q0 27 -5.5 51.5t-12.5 43.5t-23.5 37.5t-27.5 30.5t-37 26.5t-39.5 22t-47 20.5t-47.5 17.5t-53.5 17.5t-52.5 18q-91 31 -159 66t-125 82.5t-86.5 110.5t-29.5 140q0 156 123 253.5t336 97.5q206 0 367 -95
q28 -70 36.5 -141t-3.5 -116.5t-42 -45.5q-22 0 -32 25q-50 151 -153 232t-230 81q-118 0 -176 -66.5t-58 -160.5q0 -47 16 -85t40.5 -65t66 -51t80.5 -39.5t96 -34.5q173 -59 245 -98q206 -110 214 -296v-15q0 -81 -33.5 -145t-93 -105.5t-132 -66t-157.5 -33.5l-39 -82
q79 21 149 -23t70 -125t-68.5 -130.5t-162.5 -49.5z" />
    <glyph glyph-name="scedilla" unicode="&#x15f;" horiz-adv-x="874" 
d="M430 -426q-101 0 -158 37.5t-57 91.5q0 48 39.5 65.5t79.5 -18.5q0 -135 90 -135q55 0 89 43t34 100q0 47 -26.5 78t-71.5 31q-25 0 -54.5 -10.5t-40.5 -10.5q-23 0 -28.5 15.5t6.5 38.5l43 90q-85 5 -154.5 31t-114.5 77.5t-45 120.5q0 48 22.5 73t59.5 25
q35 0 55.5 -21t20.5 -48q0 -72 37.5 -121.5t90 -69.5t114.5 -20q89 0 136.5 40t47.5 113q0 27 -8.5 51t-19 40.5t-34.5 33t-38.5 25.5t-49.5 22t-49.5 17.5t-54.5 17.5q-47 15 -84.5 30t-80.5 40t-71.5 53.5t-47.5 70.5t-19 91q0 118 98.5 189t257.5 71q141 0 240.5 -56
t99.5 -151q0 -42 -22 -68t-64 -26q-69 0 -69 72q0 79 -61 130.5t-154 51.5q-81 0 -123.5 -38t-42.5 -109q0 -44 15 -76.5t48.5 -55.5t65.5 -37t88 -32q148 -47 207 -80q141 -78 141 -207q0 -110 -91.5 -182t-236.5 -86l-43 -90q79 21 149.5 -23t70.5 -125t-69 -130.5
t-163 -49.5z" />
    <glyph glyph-name="Scaron" unicode="&#x160;" horiz-adv-x="1093" 
d="M512 -20q-203 0 -389 110q-28 70 -37 141t3 116.5t42 45.5q14 0 20.5 -4t12.5 -20q50 -154 162.5 -241.5t259.5 -86.5q118 3 187 60t69 169q0 27 -5.5 51.5t-12.5 43.5t-23.5 37.5t-27.5 30.5t-37 26.5t-39.5 22t-47 20.5t-47.5 17.5t-53.5 17.5t-52.5 18q-91 31 -159 66
t-125 82.5t-86.5 110.5t-29.5 140q0 156 123 253.5t336 97.5q206 0 367 -95q28 -70 36.5 -141t-3.5 -116.5t-42 -45.5q-22 0 -32 25q-50 151 -153 232t-230 81q-118 0 -176 -66.5t-58 -160.5q0 -47 16 -85t40.5 -65t66 -51t80.5 -39.5t96 -34.5q173 -59 245 -98
q206 -110 214 -296v-15q0 -92 -43.5 -162.5t-117.5 -111t-162 -60.5t-187 -20zM293 1665q-18 21 2 41q15 15 39 -6l194 -148l197 148q21 22 37 6q20 -20 2 -41l-213 -242q-9 -9 -22 -9t-21 9z" />
    <glyph glyph-name="scaron" unicode="&#x161;" horiz-adv-x="874" 
d="M420 -12q-70 0 -133 14t-114.5 41.5t-81.5 73t-30 102.5q0 48 22.5 73t59.5 25q35 0 55.5 -21t20.5 -48q0 -72 37.5 -121.5t90 -69.5t114.5 -20q89 0 136.5 40t47.5 113q0 27 -8.5 51t-19 40.5t-34.5 33t-38.5 25.5t-49.5 22t-49.5 17.5t-54.5 17.5q-47 15 -84.5 30
t-80.5 40t-71.5 53.5t-47.5 70.5t-19 91q0 118 98.5 189t257.5 71q141 0 240.5 -56t99.5 -151q0 -42 -22 -68t-64 -26q-69 0 -69 72q0 79 -61 130.5t-154 51.5q-81 0 -123.5 -38t-42.5 -109q0 -44 15 -76.5t48.5 -55.5t65.5 -37t88 -32q148 -47 207 -80q141 -78 141 -207
q0 -122 -112 -197t-281 -75zM199 1317q-18 21 2 41q15 15 39 -6l194 -148l197 148q21 22 37 6q20 -20 2 -41l-213 -242q-9 -9 -22 -9t-21 9z" />
    <glyph glyph-name="uni0162" unicode="&#x162;" horiz-adv-x="1212" 
d="M305 43q128 11 168.5 30t40.5 74v936q0 39 -4.5 59.5t-22 36.5t-50.5 21.5t-91 5.5q-107 0 -156 -40t-92 -160h-47l33 254q3 16 22 16q66 -4 136 -4h729q73 0 135 4q21 0 24 -16l31 -254h-47q-43 120 -92 160t-156 40q-58 0 -91 -5.5t-50 -21.5t-21 -36t-4 -60v-936
q0 -56 39.5 -74.5t167.5 -29.5v-43h-241l-48 -98q79 21 149.5 -23t70.5 -125t-69 -130.5t-163 -49.5q-101 0 -158 37.5t-57 91.5q0 48 39.5 65.5t79.5 -18.5q0 -135 90 -135q55 0 89 43t34 100q0 47 -26.5 78t-71.5 31q-25 0 -54.5 -10.5t-40.5 -10.5q-23 0 -28.5 15.5
t6.5 38.5l49 100h-252v43z" />
    <glyph glyph-name="uni0163" unicode="&#x163;" horiz-adv-x="657" 
d="M377 -426q-101 0 -158 37.5t-57 91.5q0 48 39.5 65.5t79.5 -18.5q0 -135 90 -135q55 0 89 43t34 100q0 47 -27 78t-72 31q-25 0 -54 -10.5t-40 -10.5q-23 0 -28.5 15.5t6.5 38.5l49 100q-156 41 -156 231v568q0 37 -10.5 50t-34.5 13h-96v45q84 32 139.5 82t101.5 133
q8 17 27 17h18q9 0 15 -6t6 -15l-2 -141q0 -32 19 -42.5t83 -10.5h158v-74l-158 8q-64 3 -83 -10t-19 -53v-541q0 -99 26 -148t97 -49q65 0 110 41q18 -13 20.5 -27.5t-5.5 -17.5q-58 -58 -152 -63l-43 -88q79 21 149 -23t70 -125t-68.5 -130.5t-162.5 -49.5z" />
    <glyph glyph-name="Tcaron" unicode="&#x164;" horiz-adv-x="1212" 
d="M305 43q128 11 168.5 30t40.5 74v936q0 39 -4.5 59.5t-22 36.5t-50.5 21.5t-91 5.5q-107 0 -156 -40t-92 -160h-47l33 254q3 16 22 16q66 -4 136 -4h729q73 0 135 4q21 0 24 -16l31 -254h-47q-43 120 -92 160t-156 40q-58 0 -91 -5.5t-50 -21.5t-21 -36t-4 -60v-936
q0 -56 39.5 -74.5t167.5 -29.5v-43h-602v43zM375 1665q-18 21 2 41q15 15 39 -6l194 -148l197 148q21 22 37 6q20 -20 2 -41l-213 -242q-9 -9 -22 -9t-21 9z" />
    <glyph glyph-name="tcaron" unicode="&#x165;" horiz-adv-x="647" 
d="M463 1012q-13 0 -24 11t-13 26l6 243q3 80 68 80q41 0 60 -26.5t5 -77.5l-63 -219q-5 -16 -15.5 -26.5t-23.5 -10.5zM31 862v45q84 32 139.5 82t101.5 133q8 17 27 17h18q9 0 15 -6t6 -15l-2 -141q0 -32 19 -42.5t83 -10.5h158v-74l-158 8q-64 3 -83 -10t-19 -53v-541
q0 -99 26 -148t97 -49q65 0 110 41q18 -13 20.5 -27.5t-5.5 -17.5q-63 -63 -174 -63t-174.5 59t-63.5 182v568q0 37 -10.5 50t-34.5 13h-96z" />
    <glyph glyph-name="Tbar" unicode="&#x166;" horiz-adv-x="1212" 
d="M264 795v47h250v241q0 39 -4.5 59.5t-22 36.5t-50.5 21.5t-91 5.5q-107 0 -156 -40t-92 -160h-47l33 254q3 16 22 16q66 -4 136 -4h729q73 0 135 4q21 0 24 -16l31 -254h-47q-43 120 -92 160t-156 40q-58 0 -91 -5.5t-50 -21.5t-21 -36t-4 -60v-241h252v-47h-252v-648
q0 -56 39.5 -74.5t167.5 -29.5v-43h-602v43q128 11 168.5 30t40.5 74v648h-250z" />
    <glyph glyph-name="tbar" unicode="&#x167;" horiz-adv-x="657" 
d="M31 666v57h141v76q0 37 -10.5 50t-34.5 13h-96v45q84 32 139.5 82t101.5 133q8 17 27 17h18q9 0 15 -6t6 -15l-2 -141q0 -32 19 -42.5t83 -10.5h158v-74l-158 8q-64 3 -83 -10t-19 -53v-72h215v-57h-215v-412q0 -99 26 -148t97 -49q65 0 110 41q18 -13 20.5 -27.5
t-5.5 -17.5q-63 -63 -174 -63t-174.5 59t-63.5 182v435h-141z" />
    <glyph glyph-name="Utilde" unicode="&#x168;" horiz-adv-x="1339" 
d="M674 -20q-109 0 -199 32.5t-158 96.5t-105.5 168t-37.5 239v608q0 53 -27.5 73t-95.5 32v43h434v-43q-69 -12 -97 -32t-28 -73v-569q0 -243 93 -365t262 -122q60 0 112 14.5t100.5 49t83.5 87.5t55.5 136t20.5 188v581q0 53 -30.5 73t-100.5 32v43h332v-43
q-68 -12 -97.5 -32t-29.5 -73v-596q0 -264 -127 -406t-360 -142zM381 1540q0 92 48 139t132 47q43 0 80 -13.5t63.5 -32t51.5 -37.5t55 -32.5t61 -13.5q75 0 97 80q3 17 20 17h10q10 0 16.5 -7t6.5 -16q0 -91 -49.5 -138.5t-130.5 -47.5q-42 0 -79 13.5t-64.5 32.5t-53 37.5
t-55 32t-60.5 13.5q-77 0 -96 -80q-3 -16 -22 -16h-9q-22 0 -22 22z" />
    <glyph glyph-name="utilde" unicode="&#x169;" horiz-adv-x="1144" 
d="M489 -12q-63 0 -116.5 18.5t-96.5 57t-67.5 104t-24.5 151.5v410q0 73 -25 98t-108 21v39l225 51q34 8 53 -7.5t19 -51.5v-514q0 -125 62 -202t172 -77q111 0 178 78t67 201v364q0 73 -25 98t-108 21v39l226 51q33 8 52 -7.5t19 -51.5v-742q0 -50 27.5 -64t77.5 -5v-25
q-19 -24 -57.5 -39.5t-80.5 -15.5q-57 0 -92.5 31.5t-42.5 91.5q-2 13 -5 18.5t-13 5.5q-15 0 -27 -12l-15.5 -15.5t-25 -23.5t-31 -25t-42 -26.5t-48.5 -22t-59.5 -17t-67.5 -5.5zM252 1192q0 92 48 139t132 47q43 0 80 -13.5t63.5 -32t51.5 -37.5t55 -32.5t61 -13.5
q75 0 97 80q3 17 20 17h10q10 0 16.5 -7t6.5 -16q0 -91 -49.5 -138.5t-130.5 -47.5q-42 0 -79 13.5t-64.5 32.5t-53 37.5t-55 32t-60.5 13.5q-77 0 -96 -80q-3 -17 -22 -17h-9q-10 0 -16 7t-6 16z" />
    <glyph glyph-name="Umacron" unicode="&#x16a;" horiz-adv-x="1339" 
d="M674 -20q-109 0 -199 32.5t-158 96.5t-105.5 168t-37.5 239v608q0 53 -27.5 73t-95.5 32v43h434v-43q-69 -12 -97 -32t-28 -73v-569q0 -243 93 -365t262 -122q60 0 112 14.5t100.5 49t83.5 87.5t55.5 136t20.5 188v581q0 53 -30.5 73t-100.5 32v43h332v-43
q-68 -12 -97.5 -32t-29.5 -73v-596q0 -264 -127 -406t-360 -142zM393 1579v18q0 16 7 22.5t26 6.5h596q19 0 26 -6.5t7 -22.5v-18q0 -16 -7 -22.5t-26 -6.5h-596q-19 0 -26 6.5t-7 22.5z" />
    <glyph glyph-name="umacron" unicode="&#x16b;" horiz-adv-x="1144" 
d="M489 -12q-63 0 -116.5 18.5t-96.5 57t-67.5 104t-24.5 151.5v410q0 73 -25 98t-108 21v39l225 51q34 8 53 -7.5t19 -51.5v-514q0 -125 62 -202t172 -77q111 0 178 78t67 201v364q0 73 -25 98t-108 21v39l226 51q33 8 52 -7.5t19 -51.5v-742q0 -50 27.5 -64t77.5 -5v-25
q-19 -24 -57.5 -39.5t-80.5 -15.5q-57 0 -92.5 31.5t-42.5 91.5q-2 13 -5 18.5t-13 5.5q-15 0 -27 -12l-15.5 -15.5t-25 -23.5t-31 -25t-42 -26.5t-48.5 -22t-59.5 -17t-67.5 -5.5zM242 1231v18q0 16 6.5 22.5t25.5 6.5h596q19 0 26 -6.5t7 -22.5v-18q0 -16 -7 -22.5
t-26 -6.5h-596q-19 0 -25.5 6.5t-6.5 22.5z" />
    <glyph glyph-name="Ubreve" unicode="&#x16c;" horiz-adv-x="1339" 
d="M674 -20q-109 0 -199 32.5t-158 96.5t-105.5 168t-37.5 239v608q0 53 -27.5 73t-95.5 32v43h434v-43q-69 -12 -97 -32t-28 -73v-569q0 -243 93 -365t262 -122q60 0 112 14.5t100.5 49t83.5 87.5t55.5 136t20.5 188v581q0 53 -30.5 73t-100.5 32v43h332v-43
q-68 -12 -97.5 -32t-29.5 -73v-596q0 -264 -127 -406t-360 -142zM440 1679q0 31 27 31h16q8 0 14 -7t7 -17q11 -61 62 -101.5t136 -40.5q84 0 135.5 41t61.5 101q3 24 23 24h14q27 0 27 -31q0 -100 -68.5 -170.5t-192.5 -70.5q-125 0 -193.5 70t-68.5 171z" />
    <glyph glyph-name="ubreve" unicode="&#x16d;" horiz-adv-x="1144" 
d="M489 -12q-63 0 -116.5 18.5t-96.5 57t-67.5 104t-24.5 151.5v410q0 73 -25 98t-108 21v39l225 51q34 8 53 -7.5t19 -51.5v-514q0 -125 62 -202t172 -77q111 0 178 78t67 201v364q0 73 -25 98t-108 21v39l226 51q33 8 52 -7.5t19 -51.5v-742q0 -50 27.5 -64t77.5 -5v-25
q-19 -24 -57.5 -39.5t-80.5 -15.5q-57 0 -92.5 31.5t-42.5 91.5q-2 13 -5 18.5t-13 5.5q-15 0 -27 -12l-15.5 -15.5t-25 -23.5t-31 -25t-42 -26.5t-48.5 -22t-59.5 -17t-67.5 -5.5zM313 1331q0 31 27 31h16q17 0 21 -25q11 -60 62 -100.5t136 -40.5t136 40.5t61 100.5
q4 25 23 25h14q27 0 27 -31q0 -100 -68.5 -170.5t-192.5 -70.5q-125 0 -193.5 70t-68.5 171z" />
    <glyph glyph-name="Uring" unicode="&#x16e;" horiz-adv-x="1339" 
d="M674 -20q-109 0 -199 32.5t-158 96.5t-105.5 168t-37.5 239v608q0 53 -27.5 73t-95.5 32v43h434v-43q-69 -12 -97 -32t-28 -73v-569q0 -243 93 -365t262 -122q60 0 112 14.5t100.5 49t83.5 87.5t55.5 136t20.5 188v581q0 53 -30.5 73t-100.5 32v43h332v-43
q-68 -12 -97.5 -32t-29.5 -73v-596q0 -264 -127 -406t-360 -142zM537 1655q0 75 51 126.5t129 51.5q79 0 130.5 -51.5t51.5 -126.5q0 -72 -52 -125t-130 -53t-129 53t-51 125zM616 1655q0 -46 29.5 -75.5t71.5 -29.5t71 29.5t29 75.5q0 45 -29 74.5t-71 29.5t-71.5 -29.5
t-29.5 -74.5z" />
    <glyph glyph-name="uring" unicode="&#x16f;" horiz-adv-x="1144" 
d="M489 -12q-63 0 -116.5 18.5t-96.5 57t-67.5 104t-24.5 151.5v410q0 73 -25 98t-108 21v39l225 51q34 8 53 -7.5t19 -51.5v-514q0 -125 62 -202t172 -77q111 0 178 78t67 201v364q0 73 -25 98t-108 21v39l226 51q33 8 52 -7.5t19 -51.5v-742q0 -50 27.5 -64t77.5 -5v-25
q-19 -24 -57.5 -39.5t-80.5 -15.5q-57 0 -92.5 31.5t-42.5 91.5q-2 13 -5 18.5t-13 5.5q-15 0 -27 -12l-15.5 -15.5t-25 -23.5t-31 -25t-42 -26.5t-48.5 -22t-59.5 -17t-67.5 -5.5zM393 1307q0 75 51 126.5t129 51.5q79 0 131 -52t52 -126q0 -72 -52.5 -125.5t-130.5 -53.5
t-129 53t-51 126zM473 1307q0 -46 29 -75.5t71 -29.5t71.5 29.5t29.5 75.5q0 45 -29.5 74.5t-71.5 29.5t-71 -29.5t-29 -74.5z" />
    <glyph glyph-name="Uhungarumlaut" unicode="&#x170;" horiz-adv-x="1339" 
d="M674 -20q-109 0 -199 32.5t-158 96.5t-105.5 168t-37.5 239v608q0 53 -27.5 73t-95.5 32v43h434v-43q-69 -12 -97 -32t-28 -73v-569q0 -243 93 -365t262 -122q60 0 112 14.5t100.5 49t83.5 87.5t55.5 136t20.5 188v581q0 53 -30.5 73t-100.5 32v43h332v-43
q-68 -12 -97.5 -32t-29.5 -73v-596q0 -264 -127 -406t-360 -142zM502 1448q-17 20 12 49l201 215q43 49 82 49q28 0 48.5 -19.5t20.5 -47.5q0 -51 -67 -95l-240 -157q-41 -26 -57 6zM854 1448q-17 20 12 49l201 215q43 49 82 49q28 0 49 -20t21 -47q0 -50 -68 -95l-240 -157
q-41 -26 -57 6z" />
    <glyph glyph-name="uhungarumlaut" unicode="&#x171;" horiz-adv-x="1144" 
d="M489 -12q-63 0 -116.5 18.5t-96.5 57t-67.5 104t-24.5 151.5v410q0 73 -25 98t-108 21v39l225 51q34 8 53 -7.5t19 -51.5v-514q0 -125 62 -202t172 -77q111 0 178 78t67 201v364q0 73 -25 98t-108 21v39l226 51q33 8 52 -7.5t19 -51.5v-742q0 -50 27.5 -64t77.5 -5v-25
q-19 -24 -57.5 -39.5t-80.5 -15.5q-57 0 -92.5 31.5t-42.5 91.5q-2 13 -5 18.5t-13 5.5q-15 0 -27 -12l-15.5 -15.5t-25 -23.5t-31 -25t-42 -26.5t-48.5 -22t-59.5 -17t-67.5 -5.5zM356 1100q-16 20 13 49l200 215q43 49 82 49q28 0 49 -20t21 -47q0 -50 -68 -95l-239 -157
q-42 -27 -58 6zM709 1100q-17 20 12 49l201 215q43 49 82 49q28 0 48.5 -19.5t20.5 -47.5q0 -51 -67 -95l-240 -157q-41 -26 -57 6z" />
    <glyph glyph-name="Uogonek" unicode="&#x172;" horiz-adv-x="1339" 
d="M674 -20q-109 0 -199 32.5t-158 96.5t-105.5 168t-37.5 239v608q0 53 -27.5 73t-95.5 32v43h434v-43q-69 -12 -97 -32t-28 -73v-569q0 -243 93 -365t262 -122q60 0 112 14.5t100.5 49t83.5 87.5t55.5 136t20.5 188v581q0 53 -30.5 73t-100.5 32v43h332v-43
q-68 -12 -97.5 -32t-29.5 -73v-596q0 -212 -82 -346t-237 -180q-156 -102 -156 -231q0 -49 33.5 -79t77.5 -30q66 0 103.5 29t60.5 82h51q-74 -195 -258 -195q-53 0 -101.5 18t-83 58.5t-34.5 95.5q0 75 52 133.5t128 98.5q-12 -2 -41 -2z" />
    <glyph glyph-name="uogonek" unicode="&#x173;" horiz-adv-x="1144" 
d="M788 -401q-81 0 -138.5 41t-57.5 129q0 86 79.5 148t209.5 91q-49 32 -58 103q-2 13 -5 18.5t-13 5.5q-15 0 -27 -12l-15.5 -15.5t-25 -23.5t-31 -25t-42 -26.5t-48.5 -22t-59.5 -17t-67.5 -5.5q-63 0 -116.5 18.5t-96.5 57t-67.5 104t-24.5 151.5v410q0 73 -25 98
t-108 21v39l225 51q34 8 53 -7.5t19 -51.5v-514q0 -125 62 -202t172 -77q111 0 178 78t67 201v364q0 73 -25 98t-108 21v39l226 51q33 8 52 -7.5t19 -51.5v-742q0 -50 27.5 -64t77.5 -5v-25q-22 -31 -84 -49q-269 -72 -269 -199q0 -56 29 -84t76 -28q45 0 82.5 32.5
t60.5 83.5h53q-11 -29 -30.5 -59.5t-50 -64.5t-76.5 -55t-99 -21z" />
    <glyph glyph-name="Wcircumflex" unicode="&#x174;" horiz-adv-x="2078" 
d="M233 1028q-44 113 -80 152t-112 49v43h451v-43q-39 -6 -62 -14.5t-35.5 -18t-13.5 -26.5t3 -33t15 -45l318 -824q21 -51 41 0l200 520q40 107 -12 240q-46 114 -81 152.5t-111 48.5v43h448v-43q-90 -14 -105 -44.5t15 -92.5l315 -824q21 -51 41 0l312 813q24 66 -8 101.5
t-121 46.5v43h387v-43q-74 -14 -114.5 -45t-68.5 -103l-356 -923q-39 -105 -39 -158h-114l-310 799l-248 -641q-40 -108 -40 -158h-113zM799 1446l215 244q8 9 21 9t22 -9l213 -244q17 -20 -2 -39q-12 -12 -37 4l-197 145l-194 -145q-27 -16 -39 -4q-19 19 -2 39z" />
    <glyph glyph-name="wcircumflex" unicode="&#x175;" horiz-adv-x="1544" 
d="M184 692q-38 97 -67.5 130.5t-96.5 58.5v43h404v-43q-59 -17 -79.5 -35.5t-17.5 -50.5t31 -103l170 -436q14 -35 25.5 -46.5t22.5 0t24 46.5l64 178q35 95 35 169.5t-25 127.5q-26 62 -57 94t-95 56v43h402v-43q-35 -11 -54.5 -20.5t-31.5 -21.5t-11 -33t7.5 -46
t23.5 -68l172 -436q14 -35 25.5 -46.5t22.5 0t24 46.5l78 223q24 68 40.5 117t26.5 89.5t14.5 67t0.5 47.5t-9.5 32.5t-22 21.5t-30.5 15t-41 12v43h365v-43q-90 -25 -126.5 -59t-74.5 -130l-272 -692h-95l-204 520l-203 -520h-92zM453 1098l215 243q8 9 21 9t22 -9
l213 -243q17 -20 -2 -39q-12 -12 -37 4l-197 145l-194 -145q-27 -16 -39 -4q-19 19 -2 39z" />
    <glyph glyph-name="Ycircumflex" unicode="&#x176;" horiz-adv-x="1302" 
d="M395 43q97 11 130.5 30t33.5 74v349q0 23 -6 43.5t-13 32.5t-24 40l-268 424q-61 96 -107 135.5t-110 57.5v43h454v-43q-80 -17 -91 -49.5t32 -96.5l266 -421q6 -8 14.5 -8t14.5 8l252 413q25 41 29.5 70.5t-11 46t-38.5 25t-58 12.5v43h377v-43q-73 -8 -119.5 -43
t-105.5 -129l-273 -436q-29 -47 -29 -125v-349q0 -55 33.5 -74t130.5 -30v-43h-514v43zM412 1446l215 244q7 9 20.5 9t22.5 -9l213 -244q17 -20 -2 -39q-12 -12 -37 4l-197 145l-194 -145q-27 -16 -39 -4q-19 19 -2 39z" />
    <glyph glyph-name="ycircumflex" unicode="&#x177;" horiz-adv-x="1071" 
d="M246 -406q-76 0 -121 36t-45 91q0 45 28.5 73t73.5 28q39 0 58 -24t21 -53t14 -53t40 -24q63 0 123 152q21 53 22.5 107t-6.5 86t-24 75l-246 604q-40 98 -69 131t-95 58v43h408v-43q-59 -17 -80 -35.5t-18 -51t32 -102.5l183 -448q20 -44 35.5 -44t35.5 46l91 233
q30 75 48.5 130t29.5 95t10 68t-5.5 45.5t-22 30t-33.5 19t-46 14.5v43h363v-43q-89 -25 -126 -59.5t-75 -129.5l-344 -850q-25 -62 -46 -101t-51 -76t-70 -54t-93 -17zM305 1098l215 243q8 9 21 9t22 -9l213 -243q17 -20 -2 -39q-12 -12 -37 4l-196 145l-195 -145
q-27 -16 -39 -4q-19 19 -2 39z" />
    <glyph glyph-name="Ydieresis" unicode="&#x178;" horiz-adv-x="1302" 
d="M395 43q97 11 130.5 30t33.5 74v349q0 23 -6 43.5t-13 32.5t-24 40l-268 424q-61 96 -107 135.5t-110 57.5v43h454v-43q-80 -17 -91 -49.5t32 -96.5l266 -421q6 -8 14.5 -8t14.5 8l252 413q25 41 29.5 70.5t-11 46t-38.5 25t-58 12.5v43h377v-43q-73 -8 -119.5 -43
t-105.5 -129l-273 -436q-29 -47 -29 -125v-349q0 -55 33.5 -74t130.5 -30v-43h-514v43zM352 1616q0 41 31 71.5t72 30.5t71.5 -30.5t30.5 -71.5q0 -42 -30.5 -73.5t-71.5 -31.5t-72 32t-31 73zM729 1616q0 41 30.5 71.5t71.5 30.5q40 0 71.5 -30.5t31.5 -71.5t-31.5 -73
t-71.5 -32q-41 0 -71.5 31.5t-30.5 73.5z" />
    <glyph glyph-name="Zacute" unicode="&#x179;" horiz-adv-x="1163" 
d="M827 1171q6 11 6.5 19.5t-6 15.5t-24 11t-45.5 4l-309 -2q-77 -1 -130.5 -14.5t-87.5 -43t-53.5 -62t-38.5 -83.5h-49l41 256h981l-788 -1157q-42 -64 38 -64l394 6q90 1 149.5 25.5t91.5 61.5t66 104h49l-53 -248h-1028zM512 1448q-17 20 12 49l201 215q43 49 82 49
q28 0 49 -20t21 -47q0 -50 -68 -95l-240 -157q-41 -26 -57 6z" />
    <glyph glyph-name="zacute" unicode="&#x17a;" horiz-adv-x="903" 
d="M588 799q42 63 -39 63h-244q-69 0 -109.5 -40t-66.5 -122h-43l37 224h749l-555 -799q-45 -64 39 -64h262q69 0 110 40.5t69 121.5h43l-37 -223h-772zM375 1100q-17 20 12 49l201 215q43 49 82 49q28 0 48.5 -19.5t20.5 -47.5q0 -51 -67 -95l-240 -157q-41 -26 -57 6z" />
    <glyph glyph-name="Zdotaccent" unicode="&#x17b;" horiz-adv-x="1163" 
d="M827 1171q6 11 6.5 19.5t-6 15.5t-24 11t-45.5 4l-309 -2q-77 -1 -130.5 -14.5t-87.5 -43t-53.5 -62t-38.5 -83.5h-49l41 256h981l-788 -1157q-42 -64 38 -64l394 6q90 1 149.5 25.5t91.5 61.5t66 104h49l-53 -248h-1028zM489 1616q0 41 31 71.5t72 30.5t71.5 -30.5
t30.5 -71.5q0 -42 -30.5 -73.5t-71.5 -31.5t-72 32t-31 73z" />
    <glyph glyph-name="zdotaccent" unicode="&#x17c;" horiz-adv-x="903" 
d="M588 799q42 63 -39 63h-244q-69 0 -109.5 -40t-66.5 -122h-43l37 224h749l-555 -799q-45 -64 39 -64h262q69 0 110 40.5t69 121.5h43l-37 -223h-772zM352 1268q0 41 31 71.5t72 30.5t71.5 -30.5t30.5 -71.5q0 -42 -30.5 -73.5t-71.5 -31.5t-72 32t-31 73z" />
    <glyph glyph-name="Zcaron" unicode="&#x17d;" horiz-adv-x="1163" 
d="M827 1171q6 11 6.5 19.5t-6 15.5t-24 11t-45.5 4l-309 -2q-77 -1 -130.5 -14.5t-87.5 -43t-53.5 -62t-38.5 -83.5h-49l41 256h981l-788 -1157q-42 -64 38 -64l394 6q90 1 149.5 25.5t91.5 61.5t66 104h49l-53 -248h-1028zM358 1665q-18 21 2 41q15 15 39 -6l195 -148
l197 148q21 21 36 6q20 -20 2 -41l-213 -242q-9 -9 -22.5 -9t-20.5 9z" />
    <glyph glyph-name="zcaron" unicode="&#x17e;" horiz-adv-x="903" 
d="M588 799q42 63 -39 63h-244q-69 0 -109.5 -40t-66.5 -122h-43l37 224h749l-555 -799q-45 -64 39 -64h262q69 0 110 40.5t69 121.5h43l-37 -223h-772zM221 1317q-18 21 2 41q15 15 39 -6l195 -148l196 148q21 22 37 6q20 -20 2 -41l-213 -242q-9 -9 -22.5 -9t-20.5 9z" />
    <glyph glyph-name="florin" unicode="&#x192;" horiz-adv-x="864" 
d="M78 -440q-121 0 -191.5 55.5t-70.5 126.5q0 42 26.5 62t61.5 20t54 -22.5t27 -54t17.5 -63.5t35.5 -54.5t71 -22.5q46 0 76 19.5t45.5 60t21.5 91t6 124.5v923q0 24 -11 33.5t-34 9.5h-86v39q69 8 100 23t31 47v27q0 180 96.5 276t245.5 96q122 0 193 -55.5t71 -126.5
q0 -42 -26.5 -61t-61.5 -19t-54 22t-27.5 54t-18.5 63.5t-36 53.5t-71 22q-37 0 -63.5 -13.5t-42.5 -37t-25.5 -62t-12.5 -81t-3 -101.5v-57q0 -30 9 -41.5t30 -11.5h223v-56h-223q-39 0 -39 -43v-891q0 -181 -97 -277.5t-247 -96.5z" />
    <glyph glyph-name="Ohorn" unicode="&#x1a0;" horiz-adv-x="1435" 
d="M705 -20q-181 0 -328.5 83.5t-231.5 232.5t-84 335q0 189 88.5 344t242 242.5t339.5 87.5q102 0 211 -33h57q131 0 131 155q0 101 -69 154l219 51v-123q0 -142 -63 -206t-179 -70q155 -81 245.5 -233.5t90.5 -344.5q0 -190 -88 -345t-241.5 -242.5t-339.5 -87.5zM270 707
q0 -144 39 -268.5t105 -209.5t155.5 -133.5t188.5 -48.5q61 0 118 17.5t110 58t92.5 101t63 152.5t23.5 206q0 143 -39 266.5t-105 208t-155 132.5t-188 48q-78 0 -147.5 -29t-129.5 -89t-95.5 -166t-35.5 -246z" />
    <glyph glyph-name="ohorn" unicode="&#x1a1;" horiz-adv-x="1064" 
d="M530 -12q-126 0 -232 56t-171.5 166t-65.5 253t66 254t173.5 168t236.5 57q160 0 282 -90q54 3 78.5 46t24.5 108q0 95 -43 155l192 49v-123q0 -247 -207 -274q140 -130 140 -344q0 -143 -66 -254.5t-173 -169t-235 -57.5zM242 539q0 -134 42 -246.5t120.5 -180
t177.5 -67.5q110 0 176.5 88.5t66.5 257.5q0 134 -42.5 246.5t-121 180t-176.5 67.5q-111 0 -177 -88t-66 -258z" />
    <glyph glyph-name="Uhorn" unicode="&#x1af;" horiz-adv-x="1339" 
d="M674 -20q-109 0 -199 32.5t-158 96.5t-105.5 168t-37.5 239v608q0 53 -27.5 73t-95.5 32v43h434v-43q-69 -12 -97 -32t-28 -73v-569q0 -243 93 -365t262 -122q60 0 112 14.5t100.5 49t83.5 87.5t55.5 136t20.5 188v581q0 53 -30.5 73t-100.5 32v43h131v2h41q57 0 83 43
t26 110q0 96 -43 156l192 49v-123q0 -172 -98 -237v-43q-68 -12 -97.5 -32t-29.5 -73v-596q0 -264 -127 -406t-360 -142z" />
    <glyph glyph-name="uhorn" unicode="&#x1b0;" horiz-adv-x="1144" 
d="M489 -12q-63 0 -116.5 18.5t-96.5 57t-67.5 104t-24.5 151.5v410q0 73 -25 98t-108 21v39l225 51q34 8 53 -7.5t19 -51.5v-514q0 -125 62 -202t172 -77q111 0 178 78t67 201v364q0 73 -25 98t-108 21v39l226 51q33 8 52 -7.5t19 -51.5q39 39 39 127q0 95 -43 155l193 49
v-123q0 -239 -189 -270v-680q0 -50 27.5 -64t77.5 -5v-25q-19 -24 -57.5 -39.5t-80.5 -15.5q-57 0 -92.5 31.5t-42.5 91.5q-2 13 -5 18.5t-13 5.5q-15 0 -27 -12l-15.5 -15.5t-25 -23.5t-31 -25t-42 -26.5t-48.5 -22t-59.5 -17t-67.5 -5.5z" />
    <glyph glyph-name="uni0218" unicode="&#x218;" horiz-adv-x="1097" 
d="M512 -20q-203 0 -389 110q-28 70 -37 141t3 116.5t42 45.5q14 0 20.5 -4t12.5 -20q50 -154 162.5 -241.5t259.5 -86.5q118 3 187 60t69 169q0 27 -5.5 51.5t-12.5 43.5t-23.5 37.5t-27.5 30.5t-37 26.5t-39.5 22t-47 20.5t-47.5 17.5t-53.5 17.5t-52.5 18q-91 31 -159 66
t-125 82.5t-86.5 110.5t-29.5 140q0 156 123 253.5t336 97.5q206 0 367 -95q28 -70 36.5 -141t-3.5 -116.5t-42 -45.5q-22 0 -32 25q-50 151 -153 232t-230 81q-118 0 -176 -66.5t-58 -160.5q0 -47 16 -85t40.5 -65t66 -51t80.5 -39.5t96 -34.5q173 -59 245 -98
q206 -110 214 -296v-15q0 -92 -43.5 -162.5t-117.5 -111t-162 -60.5t-187 -20zM436 -293q0 49 34 80t81 31q60 0 90.5 -43.5t30.5 -108.5q0 -72 -40 -142.5t-106 -113.5l-26 29q30 26 51.5 64t21.5 63q0 35 -32 35q-45 0 -75 30.5t-30 75.5z" />
    <glyph glyph-name="uni0219" unicode="&#x219;" horiz-adv-x="874" 
d="M420 -12q-70 0 -133 14t-114.5 41.5t-81.5 73t-30 102.5q0 48 22.5 73t59.5 25q35 0 55.5 -21t20.5 -48q0 -72 37.5 -121.5t90 -69.5t114.5 -20q89 0 136.5 40t47.5 113q0 27 -8.5 51t-19 40.5t-34.5 33t-38.5 25.5t-49.5 22t-49.5 17.5t-54.5 17.5q-47 15 -84.5 30
t-80.5 40t-71.5 53.5t-47.5 70.5t-19 91q0 118 98.5 189t257.5 71q141 0 240.5 -56t99.5 -151q0 -42 -22 -68t-64 -26q-69 0 -69 72q0 79 -61 130.5t-154 51.5q-81 0 -123.5 -38t-42.5 -109q0 -44 15 -76.5t48.5 -55.5t65.5 -37t88 -32q148 -47 207 -80q141 -78 141 -207
q0 -122 -112 -197t-281 -75zM319 -293q0 49 34 80t81 31q60 0 90.5 -43.5t30.5 -108.5q0 -72 -39.5 -142.5t-105.5 -113.5l-27 29q30 26 52 64t22 63q0 35 -33 35q-44 0 -74.5 30.5t-30.5 75.5z" />
    <glyph glyph-name="uni021A" unicode="&#x21a;" horiz-adv-x="1212" 
d="M305 43q128 11 168.5 30t40.5 74v936q0 39 -4.5 59.5t-22 36.5t-50.5 21.5t-91 5.5q-107 0 -156 -40t-92 -160h-47l33 254q3 16 22 16q66 -4 136 -4h729q73 0 135 4q21 0 24 -16l31 -254h-47q-43 120 -92 160t-156 40q-58 0 -91 -5.5t-50 -21.5t-21 -36t-4 -60v-936
q0 -56 39.5 -74.5t167.5 -29.5v-43h-602v43zM485 -293q0 49 34 80t81 31q60 0 90.5 -43.5t30.5 -108.5q0 -72 -40 -142.5t-106 -113.5l-26 29q30 26 52 64t22 63q0 35 -33 35q-44 0 -74.5 30.5t-30.5 75.5z" />
    <glyph glyph-name="uni021B" unicode="&#x21b;" horiz-adv-x="657" 
d="M410 -10q-111 0 -174.5 59t-63.5 182v568q0 37 -10.5 50t-34.5 13h-96v45q84 32 139.5 82t101.5 133q8 17 27 17h18q9 0 15 -6t6 -15l-2 -141q0 -32 19 -42.5t83 -10.5h158v-74l-158 8q-64 3 -83 -10t-19 -53v-541q0 -99 26 -148t97 -49q65 0 110 41q18 -13 20.5 -27.5
t-5.5 -17.5q-63 -63 -174 -63zM195 -293q0 50 33.5 80.5t80.5 30.5q60 0 90.5 -43.5t30.5 -108.5q0 -72 -39.5 -142.5t-105.5 -113.5l-27 29q30 26 52 64t22 63q0 35 -33 35q-44 0 -74 30t-30 76z" />
    <glyph glyph-name="uni0237" unicode="&#x237;" horiz-adv-x="468" 
d="M74 -410q-79 0 -136 33t-57 94q0 36 21.5 59t60.5 23q28 0 51 -24t36 -52.5t32 -52.5t41 -24q23 0 36 29.5t13 76.5v977q0 74 -25.5 100t-107.5 19v39l225 51q33 8 52.5 -7.5t19.5 -51.5v-1006q0 -132 -71 -207.5t-191 -75.5z" />
    <glyph glyph-name="uni0259" unicode="&#x259;" horiz-adv-x="962" 
d="M406 -12q-152 0 -248.5 63t-96.5 180q0 102 91.5 157.5t302.5 62.5l209 8q30 1 41.5 16.5t11.5 48.5q0 120 -100.5 213.5t-256.5 93.5q-176 0 -264 -116l-33 28q17 30 47 61.5t76.5 64t114.5 53t145 20.5q199 0 327 -130t128 -347q0 -222 -139.5 -349.5t-355.5 -127.5z
M229 246q0 -89 56 -146t161 -57q67 0 122 26t89 68.5t52 93t18 103.5q0 49 -15.5 63.5t-52.5 12.5l-161 -7q-151 -6 -210 -39t-59 -118z" />
    <glyph glyph-name="circumflex" unicode="&#x2c6;" horiz-adv-x="569" 
d="M51 1059q-19 19 -2 39l215 243q8 9 21 9t22 -9l213 -243q17 -20 -2 -39q-12 -12 -37 4l-196 145l-195 -145q-27 -16 -39 -4z" />
    <glyph glyph-name="caron" unicode="&#x2c7;" horiz-adv-x="569" 
d="M49 1317q-18 21 2 41q15 15 39 -6l195 -148l196 148q21 22 37 6q20 -20 2 -41l-213 -242q-9 -9 -22 -9t-21 9z" />
    <glyph glyph-name="breve" unicode="&#x2d8;" horiz-adv-x="727" 
d="M365 1090q-125 0 -194 70t-69 171q0 31 27 31h16q17 0 21 -25q11 -60 62 -100.5t137 -40.5q84 0 135 40.5t61 100.5q4 25 23 25h14q27 0 27 -31q0 -101 -68 -171t-192 -70z" />
    <glyph glyph-name="dotaccent" unicode="&#x2d9;" horiz-adv-x="409" 
d="M205 1163q-41 0 -72 32t-31 73t31 71.5t72 30.5t71.5 -30.5t30.5 -71.5q0 -42 -30.5 -73.5t-71.5 -31.5z" />
    <glyph glyph-name="ring" unicode="&#x2da;" horiz-adv-x="567" 
d="M283 1128q-78 0 -129.5 53.5t-51.5 125.5q0 75 51.5 126.5t129.5 51.5q79 0 130.5 -51.5t51.5 -126.5q0 -72 -52 -125.5t-130 -53.5zM182 1307q0 -46 29.5 -75.5t71.5 -29.5t71 29.5t29 75.5q0 45 -29 74.5t-71 29.5t-71.5 -29.5t-29.5 -74.5z" />
    <glyph glyph-name="ogonek" unicode="&#x2db;" horiz-adv-x="681" 
d="M322 -389q-84 0 -152 45.5t-68 126.5q0 46 21.5 87.5t57.5 73t72.5 53.5t76.5 38h80q-156 -102 -156 -232q0 -49 33.5 -78.5t77.5 -29.5q66 0 103 28.5t60 81.5h52q-73 -194 -258 -194z" />
    <glyph glyph-name="tilde" unicode="&#x2dc;" horiz-adv-x="866" 
d="M573 1137q-42 0 -79 13.5t-64 32.5t-52.5 37.5t-55 32t-60.5 13.5q-77 0 -96 -80q-3 -17 -23 -17h-8q-10 0 -16 7t-6 16q0 92 48 139t132 47q43 0 80 -13.5t63.5 -32t51.5 -37.5t55 -32.5t61 -13.5q74 0 96 80q3 17 21 17h10q10 0 16.5 -7t6.5 -16q0 -91 -50 -138.5
t-131 -47.5z" />
    <glyph glyph-name="hungarumlaut" unicode="&#x2dd;" horiz-adv-x="940" 
d="M506 1094q-41 -26 -57 6q-17 20 12 49l201 215q43 49 81 49q28 0 49 -20t21 -47q0 -50 -68 -95zM96 1100q-16 20 13 49l200 215q43 49 82 49q28 0 49 -20t21 -47q0 -50 -68 -95l-239 -157q-42 -27 -58 6z" />
    <glyph glyph-name="gravecomb" unicode="&#x300;" 
d="M170 1251q-68 45 -68 95q0 27 22 47t50 20q36 0 82 -49l199 -215q28 -28 14 -49q-7 -14 -20.5 -16.5t-36.5 10.5z" />
    <glyph glyph-name="acutecomb" unicode="&#x301;" 
d="M166 1094q-41 -26 -57 6q-17 20 12 49l201 215q43 49 81 49q28 0 49 -20t21 -47q0 -51 -67 -95z" />
    <glyph glyph-name="uni0302" unicode="&#x302;" 
d="M51 1059q-19 19 -2 39l215 243q8 9 21 9t22 -9l213 -243q17 -20 -2 -39q-12 -12 -37 4l-196 145l-195 -145q-27 -16 -39 -4z" />
    <glyph glyph-name="tildecomb" unicode="&#x303;" 
d="M573 1137q-42 0 -79 13.5t-64 32.5t-52.5 37.5t-55 32t-60.5 13.5q-77 0 -96 -80q-3 -17 -23 -17h-8q-10 0 -16 7t-6 16q0 92 48 139t132 47q43 0 80 -13.5t63.5 -32t51.5 -37.5t55 -32.5t61 -13.5q74 0 96 80q3 17 21 17h10q10 0 16.5 -7t6.5 -16q0 -91 -50 -138.5
t-131 -47.5z" />
    <glyph glyph-name="uni0304" unicode="&#x304;" 
d="M152 1202q-19 0 -26 6.5t-7 22.5v18q0 16 7 22.5t26 6.5h596q19 0 25.5 -6.5t6.5 -22.5v-18q0 -16 -6.5 -22.5t-25.5 -6.5h-596z" />
    <glyph glyph-name="uni0306" unicode="&#x306;" 
d="M365 1090q-125 0 -194 70t-69 171q0 31 27 31h16q17 0 21 -25q11 -60 62 -100.5t137 -40.5q84 0 135 40.5t61 100.5q4 25 23 25h14q27 0 27 -31q0 -101 -68 -171t-192 -70z" />
    <glyph glyph-name="uni0307" unicode="&#x307;" 
d="M205 1163q-41 0 -72 32t-31 73t31 71.5t72 30.5t71.5 -30.5t30.5 -71.5q0 -42 -30.5 -73.5t-71.5 -31.5z" />
    <glyph glyph-name="uni0308" unicode="&#x308;" 
d="M582 1163q-41 0 -72 32t-31 73t31 71.5t72 30.5q40 0 71 -30.5t31 -71.5t-31 -73t-71 -32zM102 1268q0 41 31 71.5t72 30.5t71.5 -30.5t30.5 -71.5q0 -42 -30.5 -73.5t-71.5 -31.5t-72 32t-31 73z" />
    <glyph glyph-name="hookabovecomb" unicode="&#x309;" 
d="M231 1065q-24 0 -24 20v19q0 17 26 20q62 9 100 52.5t38 113.5q0 54 -24 84.5t-68 30.5q-21 0 -35 -7.5t-20 -21.5t-8 -24.5t-3 -26.5q-2 -23 -15.5 -39t-37.5 -16q-58 0 -58 57q0 54 49.5 89.5t129.5 35.5q85 0 141.5 -46.5t56.5 -133.5q0 -97 -73.5 -152t-174.5 -55z
" />
    <glyph glyph-name="uni030A" unicode="&#x30a;" 
d="M283 1128q-78 0 -129.5 53.5t-51.5 125.5q0 75 51.5 126.5t129.5 51.5q79 0 130.5 -51.5t51.5 -126.5q0 -72 -52 -125.5t-130 -53.5zM182 1307q0 -46 29.5 -75.5t71.5 -29.5t71 29.5t29 75.5q0 45 -29 74.5t-71 29.5t-71.5 -29.5t-29.5 -74.5z" />
    <glyph glyph-name="uni030B" unicode="&#x30b;" 
d="M506 1094q-41 -26 -57 6q-17 20 12 49l201 215q43 49 81 49q28 0 49 -20t21 -47q0 -50 -68 -95zM96 1100q-16 20 13 49l200 215q43 49 82 49q28 0 49 -20t21 -47q0 -50 -68 -95l-239 -157q-42 -27 -58 6z" />
    <glyph glyph-name="uni030C" unicode="&#x30c;" 
d="M49 1317q-18 21 2 41q15 15 39 -6l195 -148l196 148q21 22 37 6q20 -20 2 -41l-213 -242q-9 -9 -22 -9t-21 9z" />
    <glyph glyph-name="uni0312" unicode="&#x312;" 
d="M274 1538q-30 -26 -51.5 -64t-21.5 -63q0 -35 32 -35q45 0 75 -30t30 -76q0 -49 -34 -80t-81 -31q-60 0 -90.5 43.5t-30.5 108.5q0 72 40 142.5t106 113.5z" />
    <glyph glyph-name="uni031B" unicode="&#x31b;" 
d="M-41 1096v41h41q57 0 83 43t26 110q0 96 -43 156l192 49v-123q0 -151 -69 -213.5t-189 -62.5h-41z" />
    <glyph glyph-name="dotbelowcomb" unicode="&#x323;" 
d="M213 -406q-44 0 -77.5 33.5t-33.5 79.5q0 47 33 80t78 33q46 0 79.5 -33t33.5 -80q0 -46 -33.5 -79.5t-79.5 -33.5z" />
    <glyph glyph-name="uni0326" unicode="&#x326;" 
d="M166 -561q30 26 52 64t22 63q0 35 -33 35q-45 0 -75 30.5t-30 75.5q0 49 34 80t81 31q60 0 90.5 -43.5t30.5 -108.5q0 -72 -39.5 -142.5t-105.5 -113.5z" />
    <glyph glyph-name="uni0327" unicode="&#x327;" 
d="M246 -426q-101 0 -158 37.5t-57 91.5q0 48 39.5 65.5t79.5 -18.5q0 -135 90 -135q55 0 88.5 43t33.5 100q0 47 -26.5 78t-71.5 31q-25 0 -54 -10.5t-40 -10.5q-23 0 -29 15.5t6 38.5l50 100h108l-47 -98q79 21 149 -23t70 -125t-68.5 -130.5t-162.5 -49.5z" />
    <glyph glyph-name="uni0328" unicode="&#x328;" 
d="M322 -389q-84 0 -152 45.5t-68 126.5q0 46 21.5 87.5t57.5 73t72.5 53.5t76.5 38h80q-156 -102 -156 -232q0 -49 33.5 -78.5t77.5 -29.5q66 0 103 28.5t60 81.5h52q-73 -194 -258 -194z" />
    <glyph glyph-name="uni0394" unicode="&#x394;" horiz-adv-x="1216" 
d="M41 0l573 1298l562 -1298h-1135zM186 147h740l-363 865z" />
    <glyph glyph-name="uni03A9" unicode="&#x3a9;" horiz-adv-x="1413" 
d="M188 0q-21 0 -38 12.5t-23 34.5l-45 186h59q50 -82 93 -108.5t122 -26.5q66 0 93.5 12.5t27.5 47.5q-166 46 -275.5 194t-109.5 355q0 174 81.5 311t221.5 212t312 75q174 0 313.5 -75t220 -212t80.5 -311q0 -207 -109.5 -355t-275.5 -194q0 -35 27.5 -47.5t93.5 -12.5
q79 0 122 26.5t93 108.5h59l-43 -186q-15 -47 -61 -47h-363v236q116 20 183 149.5t67 319.5q0 250 -112 391t-295 141q-182 0 -295 -141.5t-113 -390.5q0 -190 68 -319.5t186 -149.5v-236h-365z" />
    <glyph glyph-name="uni03BC" unicode="&#x3bc;" horiz-adv-x="1144" 
d="M184 -297v1026q0 73 -25 98t-108 21v39l225 51q34 8 53 -7.5t19 -51.5v-514q0 -125 62 -202t172 -77q111 0 178 78t67 201v364q0 73 -25 98t-108 21v39l226 51q33 8 52 -7.5t19 -51.5v-742q0 -50 27.5 -64t77.5 -5v-25q-19 -24 -57.5 -39.5t-80.5 -15.5q-57 0 -92.5 31.5
t-42.5 91.5q-2 13 -5 18.5t-13 5.5q-15 0 -27 -12l-15.5 -15.5t-25 -23.5t-31 -25t-42 -26.5t-48.5 -22t-59.5 -17t-67.5 -5.5q-143 0 -225 88q3 -78 17 -137.5t31 -90.5t33.5 -53t26 -37.5t7.5 -29.5q-11 -80 -68 -120q-49 -34 -88 -8t-39 103z" />
    <glyph glyph-name="pi" unicode="&#x3c0;" horiz-adv-x="1398" 
d="M1092 -20q-240 0 -240 286v531h-279v-559q0 -118 -66 -184t-171 -66q-62 0 -117 24l-24 70q54 -10 101 -2t78.5 52t31.5 116v549h-87q-81 0 -108 -53t-4 -136l-64 17q-27 46 -30 98.5t16.5 97t70 74t122.5 29.5h903v-127h-109q-98 0 -98 -105v-518q0 -49 19 -87t48 -38
q22 0 34 25t17.5 55t24.5 55t53 25q32 0 52 -22t20 -62q0 -66 -53 -105.5t-141 -39.5z" />
    <glyph glyph-name="uni0400" unicode="&#x400;" horiz-adv-x="1150" 
d="M61 43q69 12 96 31.5t27 72.5v977q0 53 -27.5 73t-95.5 32v43h930q28 0 31 -25q12 -106 41 -223h-39q-38 97 -100 143.5t-164 46.5h-262q-65 0 -96 -21t-31 -75v-350q0 -55 30 -73.5t97 -18.5h202q89 0 122 34t46 113h33v-354h-33q-7 39 -15.5 63t-26.5 45.5t-49 31
t-77 9.5h-202q-66 0 -96.5 -19t-30.5 -73v-370q0 -57 40 -77.5t152 -19.5l236 2q54 1 93 9.5t64 26t39 34t29 41.5l49 76h41q-45 -80 -61 -219q-3 -29 -33 -29h-959v43zM301 1694q0 27 22 47t50 20q36 0 82 -49l198 -215q29 -29 15 -49q-7 -14 -21 -16.5t-37 10.5l-241 157
q-68 45 -68 95z" />
    <glyph glyph-name="uni0401" unicode="&#x401;" horiz-adv-x="1150" 
d="M61 43q69 12 96 31.5t27 72.5v977q0 53 -27.5 73t-95.5 32v43h930q28 0 31 -25q12 -106 41 -223h-39q-38 97 -100 143.5t-164 46.5h-262q-65 0 -96 -21t-31 -75v-350q0 -55 30 -73.5t97 -18.5h202q89 0 122 34t46 113h33v-354h-33q-7 39 -15.5 63t-26.5 45.5t-49 31
t-77 9.5h-202q-66 0 -96.5 -19t-30.5 -73v-370q0 -57 40 -77.5t152 -19.5l236 2q54 1 93 9.5t64 26t39 34t29 41.5l49 76h41q-45 -80 -61 -219q-3 -29 -33 -29h-959v43zM291 1616q0 41 30.5 71.5t71.5 30.5t72 -30.5t31 -71.5t-31 -73t-72 -32t-71.5 31.5t-30.5 73.5z
M668 1616q0 41 30.5 71.5t71.5 30.5q40 0 71 -30.5t31 -71.5t-31 -73t-71 -32q-41 0 -71.5 31.5t-30.5 73.5z" />
    <glyph glyph-name="uni0403" unicode="&#x403;" horiz-adv-x="1083" 
d="M61 43q69 12 96 31.5t27 72.5v977q0 53 -27 73.5t-96 33.5v41h908l63 -230h-47q-38 76 -59.5 108t-52 49.5t-78.5 17.5h-299q-65 0 -95 -20t-30 -73v-977q0 -54 31 -73.5t114 -30.5v-43h-455v43zM430 1448q-17 20 12 49l201 215q43 49 82 49q28 0 49 -20t21 -47
q0 -50 -68 -95l-240 -157q-41 -26 -57 6z" />
    <glyph glyph-name="uni0404" unicode="&#x404;" horiz-adv-x="1308" 
d="M719 -20q-129 0 -247 45.5t-210 127.5t-146.5 209t-54.5 279q0 123 36.5 230t100.5 185.5t149.5 135t185.5 85t206 28.5q110 0 203.5 -30.5t153.5 -78.5t93.5 -105t33.5 -112t-32 -91t-85 -36q-47 0 -78 33t-35 94q-3 47 -23 90.5t-56.5 83t-99 63t-142.5 23.5
q-190 0 -306 -131t-116 -354q0 -39 17.5 -67t54.5 -28h456v-63h-440q-79 0 -45 -113q49 -172 198 -274.5t336 -102.5q116 0 208 44t173 135l29 -25q-18 -33 -45.5 -67t-74.5 -73.5t-102.5 -69.5t-133 -50t-162.5 -20z" />
    <glyph glyph-name="uni0405" unicode="&#x405;" horiz-adv-x="1093" 
d="M512 -20q-203 0 -389 110q-28 70 -37 141t3 116.5t42 45.5q14 0 20.5 -4t12.5 -20q50 -154 162.5 -241.5t259.5 -86.5q118 3 187 60t69 169q0 27 -5.5 51.5t-12.5 43.5t-23.5 37.5t-27.5 30.5t-37 26.5t-39.5 22t-47 20.5t-47.5 17.5t-53.5 17.5t-52.5 18q-91 31 -159 66
t-125 82.5t-86.5 110.5t-29.5 140q0 156 123 253.5t336 97.5q206 0 367 -95q28 -70 36.5 -141t-3.5 -116.5t-42 -45.5q-22 0 -32 25q-50 151 -153 232t-230 81q-118 0 -176 -66.5t-58 -160.5q0 -47 16 -85t40.5 -65t66 -51t80.5 -39.5t96 -34.5q173 -59 245 -98
q206 -110 214 -296v-15q0 -92 -43.5 -162.5t-117.5 -111t-162 -60.5t-187 -20z" />
    <glyph glyph-name="uni0406" unicode="&#x406;" horiz-adv-x="557" 
d="M61 43q69 12 96 31.5t27 72.5v977q0 53 -27.5 73t-95.5 32v43h435v-43q-69 -12 -97 -32t-28 -73v-977q0 -53 28 -72.5t97 -31.5v-43h-435v43z" />
    <glyph glyph-name="uni0407" unicode="&#x407;" horiz-adv-x="557" 
d="M61 43q69 12 96 31.5t27 72.5v977q0 53 -27.5 73t-95.5 32v43h435v-43q-69 -12 -97 -32t-28 -73v-977q0 -53 28 -72.5t97 -31.5v-43h-435v43zM-14 1616q0 41 30.5 71.5t71.5 30.5t71.5 -30.5t30.5 -71.5q0 -42 -30.5 -73.5t-71.5 -31.5t-71.5 31.5t-30.5 73.5zM362 1616
q0 41 31 71.5t72 30.5q40 0 71 -30.5t31 -71.5t-31 -73t-71 -32q-41 0 -72 32t-31 73z" />
    <glyph glyph-name="uni0408" unicode="&#x408;" horiz-adv-x="735" 
d="M236 -20q-134 0 -205.5 57t-71.5 137q0 47 26 78t70 31q48 0 70 -32t22 -79q0 -54 27.5 -96.5t83.5 -42.5q54 0 80.5 38.5t26.5 106.5v946q0 54 -31.5 74t-114.5 31v43h455v-43q-68 -12 -95.5 -32t-27.5 -73v-841q0 -155 -82.5 -229t-232.5 -74z" />
    <glyph glyph-name="uni040D" unicode="&#x40d;" horiz-adv-x="1368" 
d="M872 43q69 12 96 31.5t27 72.5v816l-624 -730v-86q0 -53 28 -72.5t97 -31.5v-43h-435v43q69 12 96 31.5t27 72.5v977q0 53 -27.5 73t-95.5 32v43h435v-43q-69 -12 -97 -32t-28 -73v-805l624 734v71q0 53 -27.5 73t-95.5 32v43h435v-43q-69 -12 -97 -32t-28 -73v-977
q0 -53 28 -72.5t97 -31.5v-43h-435v43zM401 1694q0 27 22 47t50 20q36 0 82 -49l199 -215q28 -28 14 -49q-7 -14 -20.5 -16.5t-36.5 10.5l-242 157q-68 45 -68 95z" />
    <glyph glyph-name="uni040E" unicode="&#x40e;" horiz-adv-x="1323" 
d="M369 -31q-87 0 -142 39t-55 103q0 46 27.5 74t76.5 28q38 0 58 -23.5t25 -52.5t21 -52.5t46 -23.5q93 0 205 209l-414 774q-58 109 -87.5 141.5t-98.5 45.5v41h442v-41q-138 -10 -67 -144l325 -616l311 625q28 61 -4.5 95.5t-111.5 39.5v41h366v-41q-66 -8 -99.5 -39
t-66.5 -96l-381 -760q-104 -207 -183.5 -287t-192.5 -80zM436 1679q0 31 27 31h16q8 0 14 -7t7 -17q11 -61 62 -101.5t136 -40.5q84 0 135.5 41t61.5 101q3 24 23 24h14q26 0 26 -31q0 -101 -68 -171t-192 -70q-125 0 -193.5 70t-68.5 171z" />
    <glyph glyph-name="uni0410" unicode="&#x410;" horiz-adv-x="1460" 
d="M41 43q72 13 111 45.5t71 104.5l395 923q41 94 41 156l117 12l451 -1040q48 -114 82.5 -152.5t109.5 -48.5v-43h-461v43q48 7 74.5 18t34.5 28.5t3.5 37.5t-19.5 53l-60 137q-18 39 -46 54.5t-73 15.5h-397q-92 0 -117 -61l-59 -136q-27 -66 6 -101t125 -46v-43h-389v43z
M434 506q-10 -26 -1.5 -40.5t30.5 -14.5h418q20 0 31 14.5t1 36.5l-221 514q-10 26 -19.5 26t-21.5 -28z" />
    <glyph glyph-name="uni0411" unicode="&#x411;" horiz-adv-x="1222" 
d="M61 43q69 12 96 31.5t27 72.5v977q0 53 -27 73.5t-96 33.5v41h908l63 -230h-47q-38 76 -59.5 108t-52 49.5t-78.5 17.5h-299q-65 0 -95 -20t-30 -73v-227q0 -58 25 -83.5t87 -25.5h133q250 0 387.5 -106t137.5 -295q0 -187 -136 -287t-389 -100h-555v43zM371 150
q0 -49 20.5 -68t59.5 -19h165q172 0 249 88t77 240q0 74 -17.5 132.5t-54.5 104.5t-101.5 70.5t-152.5 24.5h-133q-62 0 -87 -25.5t-25 -83.5v-464z" />
    <glyph glyph-name="uni0412" unicode="&#x412;" horiz-adv-x="1269" 
d="M61 43q69 12 96 31.5t27 72.5v979q0 52 -27.5 71.5t-95.5 31.5v43h594q219 0 339 -75t120 -218q0 -110 -74.5 -186t-222.5 -111q180 -28 275.5 -112.5t95.5 -221.5q0 -154 -117 -251t-305 -97q-28 0 -177.5 7.5t-292.5 7.5t-235 -15v43zM371 152q0 -91 73 -91h256
q299 0 299 281q0 107 -44.5 174.5t-155 105t-295.5 37.5q-70 0 -101.5 -18.5t-31.5 -69.5v-419zM371 805q0 -52 30 -70t97 -18h151q277 0 277 254q0 246 -273 246h-155q-66 0 -96.5 -19t-30.5 -70v-323z" />
    <glyph glyph-name="uni0413" unicode="&#x413;" horiz-adv-x="1083" 
d="M61 43q69 12 96 31.5t27 72.5v977q0 53 -27 73.5t-96 33.5v41h908l63 -230h-47q-38 76 -59.5 108t-52 49.5t-78.5 17.5h-299q-65 0 -95 -20t-30 -73v-977q0 -54 31 -73.5t114 -30.5v-43h-455v43z" />
    <glyph glyph-name="uni0414" unicode="&#x414;" horiz-adv-x="1413" 
d="M51 45q0 20 21 23q71 10 124.5 68.5t86.5 150t53 226.5t27.5 279.5t7.5 329.5q0 59 -35 81.5t-127 27.5v41h1134v-41q-81 -5 -121 -28.5t-40 -80.5v-975q0 -46 32.5 -62.5t116.5 -16.5q11 0 17 -6t4 -15l-49 -283h-43q0 43 -2 71t-9.5 54.5t-18.5 42t-33.5 29.5
t-48.5 20.5t-70.5 11.5t-93 6t-120.5 1h-336q-181 0 -273.5 -22.5t-126.5 -71t-34 -142.5h-43v281zM199 68h678q61 0 89.5 17t28.5 65v972q0 56 -28.5 75.5t-89.5 19.5h-322q-61 0 -90 -19.5t-29 -75.5q0 -277 -21.5 -491t-76.5 -370t-139 -193z" />
    <glyph glyph-name="uni0415" unicode="&#x415;" horiz-adv-x="1150" 
d="M61 43q69 12 96 31.5t27 72.5v977q0 53 -27.5 73t-95.5 32v43h930q28 0 31 -25q12 -106 41 -223h-39q-38 97 -100 143.5t-164 46.5h-262q-65 0 -96 -21t-31 -75v-350q0 -55 30 -73.5t97 -18.5h202q89 0 122 34t46 113h33v-354h-33q-7 39 -15.5 63t-26.5 45.5t-49 31
t-77 9.5h-202q-66 0 -96.5 -19t-30.5 -73v-370q0 -57 40 -77.5t152 -19.5l236 2q54 1 93 9.5t64 26t39 34t29 41.5l49 76h41q-45 -80 -61 -219q-3 -29 -33 -29h-959v43z" />
    <glyph glyph-name="uni0416" unicode="&#x416;" horiz-adv-x="1984" 
d="M41 43q32 6 52 12t52.5 23t67 50t74.5 83l344 438q13 18 19 28t12 25.5t2.5 30t-15.5 29.5l-297 371q-19 23 -35 26t-30.5 -9t-29 -26.5t-37.5 -27.5t-48 -13q-41 0 -70.5 29t-29.5 72q0 44 32.5 73t94.5 29q35 0 63 -8t51 -28t37 -35.5t38.5 -49t37.5 -49.5l287 -352
q73 -94 174 -94h6v454q0 53 -27.5 73t-95.5 32v43h434v-43q-69 -12 -97 -32t-28 -73v-454h8q102 0 175 94l284 352q12 15 37.5 49t39 49t37 35.5t51.5 28.5t63 8q63 0 96 -29t33 -73q0 -43 -30 -72t-71 -29q-26 0 -49 13t-37.5 27.5t-29 26.5t-30 9t-34.5 -26l-297 -371
q-16 -20 -16 -41t8 -35t26 -37l345 -438q40 -50 74.5 -83t66.5 -50t52 -23t52 -12v-43h-458v43q34 1 55 12t21.5 36.5t-29.5 62.5l-295 362q-43 54 -73.5 74t-66.5 20h-8v-463q0 -53 28 -72.5t97 -31.5v-43h-434v43q69 12 96 31.5t27 72.5v463h-6q-36 0 -66 -19.5t-73 -74.5
l-295 -362q-30 -37 -29.5 -62.5t21.5 -36.5t55 -12v-43h-459v43z" />
    <glyph glyph-name="uni0417" unicode="&#x417;" horiz-adv-x="1132" 
d="M539 -25q-199 0 -333 101t-134 260q0 127 98 127q27 0 42.5 -8.5t25 -29t14.5 -42.5t15.5 -62.5t23.5 -76.5q80 -211 260 -211q136 0 223.5 107t87.5 263q0 134 -70 203.5t-174 69.5q-65 0 -165 -39l-23 53q49 16 73 24.5t64.5 23.5t60 25t49 26.5t44 30.5t32.5 34.5
t26 42t14 49t6 58.5q0 104 -56 168.5t-176 64.5q-127 0 -229 -78.5t-152 -226.5q-4 -15 -11 -20t-21 -5q-44 0 -47 98t38 205q161 95 381 95q208 0 324.5 -85t116.5 -210q0 -189 -279 -275q42 5 90.5 -4.5t96.5 -36t87.5 -66t64 -99t24.5 -130.5q0 -184 -146.5 -304
t-365.5 -120z" />
    <glyph glyph-name="uni0418" unicode="&#x418;" horiz-adv-x="1368" 
d="M872 43q69 12 96 31.5t27 72.5v816l-624 -730v-86q0 -53 28 -72.5t97 -31.5v-43h-435v43q69 12 96 31.5t27 72.5v977q0 53 -27.5 73t-95.5 32v43h435v-43q-69 -12 -97 -32t-28 -73v-805l624 734v71q0 53 -27.5 73t-95.5 32v43h435v-43q-69 -12 -97 -32t-28 -73v-977
q0 -53 28 -72.5t97 -31.5v-43h-435v43z" />
    <glyph glyph-name="uni0419" unicode="&#x419;" horiz-adv-x="1368" 
d="M872 43q69 12 96 31.5t27 72.5v816l-624 -730v-86q0 -53 28 -72.5t97 -31.5v-43h-435v43q69 12 96 31.5t27 72.5v977q0 53 -27.5 73t-95.5 32v43h435v-43q-69 -12 -97 -32t-28 -73v-805l624 734v71q0 53 -27.5 73t-95.5 32v43h435v-43q-69 -12 -97 -32t-28 -73v-977
q0 -53 28 -72.5t97 -31.5v-43h-435v43zM418 1679q0 31 26 31h17q17 0 20 -24q11 -60 62.5 -101t136.5 -41q84 0 135.5 41t61.5 101q3 24 22 24h14q27 0 27 -31q0 -101 -68 -171t-192 -70q-125 0 -193.5 70t-68.5 171z" />
    <glyph glyph-name="uni041A" unicode="&#x41a;" horiz-adv-x="1275" 
d="M766 43q34 1 55 12t21.5 36.5t-29.5 62.5l-295 362q-43 55 -73 74.5t-66 19.5h-8v-463q0 -53 28 -72.5t97 -31.5v-43h-435v43q69 12 96 31.5t27 72.5v977q0 53 -27.5 73t-95.5 32v43h435v-43q-69 -12 -97 -32t-28 -73v-454h8q101 0 174 94l285 352q13 16 37.5 49.5
t38.5 49t37 35.5t51 28t63 8q63 0 96 -29t33 -73q0 -43 -29.5 -72t-70.5 -29q-26 0 -49 13t-37.5 27.5t-29.5 26.5t-30.5 9t-34.5 -26l-297 -371q-16 -20 -15.5 -41t8.5 -35t26 -37l344 -438q40 -50 74.5 -83t67 -50t52.5 -23t52 -12v-43h-459v43z" />
    <glyph glyph-name="uni041B" unicode="&#x41b;" horiz-adv-x="1445" 
d="M215 -23q-79 0 -131.5 36t-52.5 102q0 46 26 74t74 28q35 0 50 -17.5t15 -42.5v-50t13 -42.5t45 -17.5q38 0 66 21.5t43.5 55t24.5 83.5t12 95.5t3 103.5v718q0 53 -35.5 73t-121.5 34v41h1138v-41q-68 -13 -95 -33.5t-27 -73.5v-977q0 -53 27 -72.5t95 -31.5v-43h-432
v43q69 12 96 31.5t27 72.5v977q0 53 -27 67.5t-96 14.5h-364q-58 0 -84.5 -15t-26.5 -67v-673v-18q0 -48 -0.5 -76.5t-5.5 -82.5t-14 -88.5t-28.5 -78t-46.5 -69t-70 -43.5t-97 -18z" />
    <glyph glyph-name="uni041C" unicode="&#x41c;" horiz-adv-x="1638" 
d="M61 43q70 12 98.5 31.5t28.5 72.5v977q0 53 -29 73t-98 32v43h320l453 -934l432 934h311v-43q-68 -12 -95.5 -32t-27.5 -73v-977q0 -53 27 -72.5t96 -31.5v-43h-432v43q69 12 96 31.5t27 72.5v973l-461 -999h-62l-489 1003v-977q0 -53 28.5 -72.5t96.5 -31.5v-43h-320v43
z" />
    <glyph glyph-name="uni041D" unicode="&#x41d;" horiz-adv-x="1404" 
d="M61 43q69 12 96 31.5t27 72.5v977q0 53 -27.5 73t-95.5 32v43h435v-43q-69 -12 -97 -32t-28 -73v-393q0 -72 73 -72h519q71 0 71 72v393q0 53 -27.5 73t-95.5 32v43h432v-43q-68 -12 -95 -32t-27 -73v-977q0 -53 27 -72.5t95 -31.5v-43h-432v43q69 12 96 31.5t27 72.5
v388q0 69 -69 69h-523q-71 0 -71 -69v-388q0 -53 28 -72.5t97 -31.5v-43h-435v43z" />
    <glyph glyph-name="uni041E" unicode="&#x41e;" horiz-adv-x="1435" 
d="M705 -20q-181 0 -328.5 83.5t-231.5 232.5t-84 335q0 189 88.5 344t242 242.5t339.5 87.5q136 0 255 -49t204.5 -135t134.5 -207t49 -259q0 -190 -88 -345t-241.5 -242.5t-339.5 -87.5zM270 707q0 -144 39 -268.5t105 -209.5t155.5 -133.5t188.5 -48.5q61 0 118 17.5
t110 58t92.5 101t63 152.5t23.5 206q0 143 -39 266.5t-105 208t-155 132.5t-188 48q-78 0 -147.5 -29t-129.5 -89t-95.5 -166t-35.5 -246z" />
    <glyph glyph-name="uni041F" unicode="&#x41f;" horiz-adv-x="1372" 
d="M61 43q69 12 96 31.5t27 72.5v977q0 53 -27.5 73t-95.5 32v43h1250v-43q-68 -12 -95.5 -32t-27.5 -73v-977q0 -53 27 -72.5t96 -31.5v-43h-432v43q68 12 95 31.5t27 72.5v977q0 52 -24 67t-86 15h-408q-63 0 -87.5 -15t-24.5 -67v-977q0 -53 28 -72.5t97 -31.5v-43h-435
v43z" />
    <glyph glyph-name="uni0420" unicode="&#x420;" horiz-adv-x="1191" 
d="M61 43q69 12 96 31.5t27 72.5v977q0 53 -27.5 73t-95.5 32v43h555q253 0 389 -100t136 -287t-137.5 -292.5t-387.5 -105.5h-133q-62 0 -87 -26t-25 -84v-230q0 -54 31 -73.5t114 -30.5v-43h-455v43zM371 657q0 -60 25 -86t87 -26h133q172 0 249 90t77 246q0 333 -326 333
h-145q-54 0 -77 -19t-23 -73v-465z" />
    <glyph glyph-name="uni0421" unicode="&#x421;" horiz-adv-x="1308" 
d="M723 -20q-103 0 -200 28t-181 84.5t-146.5 135t-98.5 185t-36 228.5q0 123 36.5 230t100.5 185.5t149.5 135t185.5 85t206 28.5q110 0 203.5 -30.5t153.5 -78.5t93.5 -105t33.5 -112t-32 -91t-85 -36q-47 0 -78 33t-35 94q-3 47 -23 90.5t-56.5 83t-99 63t-142.5 23.5
q-191 0 -307.5 -134t-116.5 -366q0 -140 46.5 -259t126.5 -200.5t188.5 -127.5t230.5 -46q113 0 199.5 43.5t168.5 135.5l29 -25q-23 -42 -63 -86t-102.5 -90t-154 -75t-194.5 -29z" />
    <glyph glyph-name="uni0422" unicode="&#x422;" horiz-adv-x="1212" 
d="M305 43q128 11 168.5 30t40.5 74v936q0 39 -4.5 59.5t-22 36.5t-50.5 21.5t-91 5.5q-107 0 -156 -40t-92 -160h-47l33 254q3 16 22 16q66 -4 136 -4h729q73 0 135 4q21 0 24 -16l31 -254h-47q-43 120 -92 160t-156 40q-58 0 -91 -5.5t-50 -21.5t-21 -36t-4 -60v-936
q0 -56 39.5 -74.5t167.5 -29.5v-43h-602v43z" />
    <glyph glyph-name="uni0423" unicode="&#x423;" horiz-adv-x="1323" 
d="M369 -31q-87 0 -142 39t-55 103q0 46 27.5 74t76.5 28q38 0 58 -23.5t25 -52.5t21 -52.5t46 -23.5q93 0 205 209l-414 774q-58 109 -87.5 141.5t-98.5 45.5v41h442v-41q-138 -10 -67 -144l325 -616l311 625q28 61 -4.5 95.5t-111.5 39.5v41h366v-41q-66 -8 -99.5 -39
t-66.5 -96l-381 -760q-104 -207 -183.5 -287t-192.5 -80z" />
    <glyph glyph-name="uni0424" unicode="&#x424;" horiz-adv-x="1515" 
d="M541 43q69 11 97 32.5t28 76.5q0 60 -25 86t-88 26h-45q-211 0 -329 97t-118 276t118 276t329 97h45q63 0 88 25.5t25 84.5q0 56 -27.5 77t-97.5 34v41h434v-41q-70 -13 -96.5 -34t-26.5 -77q0 -59 25 -84.5t88 -25.5h43q212 0 329 -97t117 -276t-117 -276t-329 -97h-43
q-63 0 -88 -26t-25 -86q0 -55 27.5 -76.5t95.5 -32.5v-43h-434v43zM264 637q0 -309 244 -309h45q62 0 87.5 25t25.5 83v402q0 58 -25.5 83t-87.5 25h-45q-244 0 -244 -309zM852 436q0 -58 25.5 -83t87.5 -25h43q243 0 243 309t-243 309h-43q-62 0 -87.5 -25t-25.5 -83v-402z
" />
    <glyph glyph-name="uni0425" unicode="&#x425;" horiz-adv-x="1361" 
d="M41 43q51 4 99 32.5t138.5 123t229.5 272.5l102 131l-299 428q-74 107 -125 149.5t-123 49.5v43h453v-43q-68 -8 -80 -31t31 -88l262 -375q253 320 267 422q8 63 -66 71q-4 1 -8 1v43h395v-43q-50 -4 -97 -33t-136 -123t-228 -272l-92 -117l307 -440q77 -109 128 -151.5
t122 -49.5v-43h-453v43q45 5 64.5 16t17 35.5t-31.5 67.5l-271 389q-258 -324 -280 -428q-15 -67 55 -78q7 -1 16 -2v-43h-397v43z" />
    <glyph glyph-name="uni0426" unicode="&#x426;" horiz-adv-x="1452" 
d="M1309 -236q0 43 -2 71t-9.5 54.5t-18 42t-32.5 29.5t-47.5 20.5t-69 11.5t-90.5 6t-118 1h-861v43q69 12 96 31.5t27 72.5v977q0 53 -27.5 73t-95.5 32v43h435v-43q-69 -12 -97 -32t-28 -73v-974q0 -49 29.5 -65.5t93.5 -16.5h432q95 0 112 45q4 20 4 34v977q0 53 -27 73
t-95 32v43h434v-43q-69 -12 -97 -32t-28 -73v-788h2v-186q0 -48 32.5 -65t116.5 -17q10 0 16 -6t5 -15l-49 -283h-43z" />
    <glyph glyph-name="uni0427" unicode="&#x427;" horiz-adv-x="1368" 
d="M872 43q69 12 96 31.5t27 72.5v250q0 68 -29 76q-15 4 -30 -14q-39 -46 -143 -88.5t-230 -42.5q-70 0 -133 19.5t-118.5 60t-88.5 114.5t-33 172v430q0 52 -29.5 72.5t-99.5 34.5v41h455v-41q-77 -13 -108 -33.5t-31 -73.5v-389q0 -129 78.5 -209t242.5 -80
q134 0 215.5 81.5t81.5 199.5v397q0 53 -27 73.5t-96 33.5v41h435v-41q-69 -13 -97 -33.5t-28 -73.5v-977q0 -53 28 -72.5t97 -31.5v-43h-435v43z" />
    <glyph glyph-name="uni0428" unicode="&#x428;" horiz-adv-x="1777" 
d="M61 0v43q69 12 96 31.5t27 72.5v977q0 53 -27.5 73t-95.5 32v43h435v-43q-69 -12 -97 -32t-28 -73v-977q0 -48 32.5 -63.5t120.5 -15.5h154q61 0 89 15t28 64v977q0 53 -27.5 73t-95.5 32v43h434v-43q-69 -12 -97 -32t-28 -73v-977q0 -48 33 -63.5t121 -15.5h153
q61 0 89 15t28 64v977q0 53 -27.5 73t-95.5 32v43h434v-43q-69 -12 -97 -32t-28 -73v-977q0 -53 28 -72.5t97 -31.5v-43h-1655z" />
    <glyph glyph-name="uni0429" unicode="&#x429;" horiz-adv-x="1816" 
d="M1673 -236q0 43 -2 71t-9.5 54.5t-18 42t-32.5 29.5t-47.5 20.5t-69 11.5t-90.5 6t-118 1h-1223v43q69 12 96 31.5t27 72.5v977q0 53 -27.5 73t-95.5 32v43h435v-43q-69 -12 -97 -32t-28 -73v-977q0 -48 32.5 -63.5t120.5 -15.5h154q61 0 89 15t28 64v977q0 53 -27.5 73
t-95.5 32v43h434v-43q-69 -12 -97 -32t-28 -73v-977q0 -48 33 -63.5t121 -15.5h153q61 0 89 15t28 64v977q0 53 -27.5 73t-95.5 32v43h434v-43q-69 -12 -97 -32t-28 -73v-788h2v-189q0 -48 32.5 -63.5t117.5 -15.5q23 0 20 -21l-49 -283h-43z" />
    <glyph glyph-name="uni042A" unicode="&#x42a;" horiz-adv-x="1386" 
d="M256 43q69 12 96 31.5t27 72.5v977q0 93 -107 93q-70 0 -105 -33.5t-89 -141.5h-47l63 230h594v-41q-69 -13 -96 -33.5t-27 -73.5v-227q0 -58 25.5 -83.5t87.5 -25.5h133q249 0 386.5 -106t137.5 -295q0 -187 -136.5 -287t-387.5 -100h-555v43zM565 150q0 -49 20 -68
t60 -19h166q170 0 247 88t77 240q0 154 -77 243t-247 89h-133q-62 0 -87.5 -25.5t-25.5 -83.5v-464z" />
    <glyph glyph-name="uni042B" unicode="&#x42b;" horiz-adv-x="1714" 
d="M371 150q0 -26 6 -44q2 -6 12 -22q18 -21 62 -21h165q172 0 249 88t77 240q0 74 -17.5 132.5t-54.5 104.5t-101.5 70.5t-152.5 24.5h-133q-62 0 -87 -25.5t-25 -83.5v-464zM61 0v43q69 12 96 31.5t27 72.5v977q0 53 -27.5 73t-95.5 32v43h435v-43q-69 -12 -97 -32
t-28 -73v-227q0 -58 25 -83.5t87 -25.5h133q250 0 387.5 -106t137.5 -295q0 -187 -136 -287t-389 -100h-555zM1219 0v43q68 12 95 31.5t27 72.5v977q0 53 -27 73t-95 32v43h434v-43q-69 -12 -97 -32t-28 -73v-977q0 -53 28 -72.5t97 -31.5v-43h-434z" />
    <glyph glyph-name="uni042C" unicode="&#x42c;" horiz-adv-x="1185" 
d="M371 150q0 -26 6 -44q2 -6 12 -22q18 -21 62 -21h165q172 0 249 88t77 240q0 74 -17.5 132.5t-54.5 104.5t-101.5 70.5t-152.5 24.5h-133q-62 0 -87 -25.5t-25 -83.5v-464zM61 0v43q69 12 96 31.5t27 72.5v977q0 53 -27.5 73t-95.5 32v43h435v-43q-69 -12 -97 -32
t-28 -73v-227q0 -58 25 -83.5t87 -25.5h133q250 0 387.5 -106t137.5 -295q0 -187 -136 -287t-389 -100h-555z" />
    <glyph glyph-name="uni042D" unicode="&#x42d;" horiz-adv-x="1298" 
d="M582 -20q-85 0 -163.5 20t-134 50t-103 69.5t-75 73.5t-45.5 67l29 25q81 -91 173 -135t208 -44q188 0 337 102.5t198 274.5q34 113 -45 113h-441v63h459q37 0 53.5 28t16.5 67q0 223 -115 354t-305 131q-80 0 -143.5 -23.5t-100.5 -63t-57 -83t-23 -90.5
q-4 -62 -34 -94.5t-78 -32.5q-53 0 -85 36t-32 91t33.5 112t93.5 105t154 78.5t204 30.5q106 0 205.5 -28.5t184.5 -85t149 -135t100.5 -185.5t36.5 -230q0 -152 -54.5 -279t-146 -209t-209 -127.5t-245.5 -45.5z" />
    <glyph glyph-name="uni042E" unicode="&#x42e;" horiz-adv-x="1951" 
d="M61 43q69 12 96 31.5t27 72.5v977q0 53 -27.5 73t-95.5 32v43h435v-43q-69 -12 -97 -32t-28 -73v-456h207q9 181 99 327t240 228t330 82q136 0 255 -49t204.5 -135t134.5 -207t49 -259q0 -190 -88 -345t-241.5 -242.5t-339.5 -87.5q-177 0 -322 80t-230 223t-91 321h-207
v-457q0 -53 28 -72.5t97 -31.5v-43h-435v43zM786 707q0 -144 39 -268.5t105 -209.5t155.5 -133.5t188.5 -48.5q61 0 118 17.5t110 58t92.5 101t63 152.5t23.5 206q0 143 -39 266.5t-105 208t-155 132.5t-188 48q-78 0 -147.5 -29t-129.5 -89t-95.5 -166t-35.5 -246z" />
    <glyph glyph-name="uni042F" unicode="&#x42f;" horiz-adv-x="1259" 
d="M41 43q58 0 93.5 63t92.5 242q60 199 219 246q7 2 9.5 5.5t0 7t-9.5 5.5q-288 75 -288 316q0 165 123 254.5t358 89.5h559v-43q-69 -12 -97 -32t-28 -73v-977q0 -53 28 -72.5t97 -31.5v-43h-455v43q83 11 113.5 30.5t30.5 73.5v320q0 61 -31 86t-117 25q-130 0 -202 -55
t-117 -197q-23 -70 -39 -112.5t-37 -83.5t-42 -62.5t-51.5 -38.5t-67 -23t-87.5 -6h-55v43zM348 924q0 -285 281 -285h145q62 0 87.5 26t25.5 85v372q0 54 -30 73t-103 19h-119q-287 0 -287 -290z" />
    <glyph glyph-name="uni0430" unicode="&#x430;" horiz-adv-x="1011" 
d="M328 -12q-72 0 -130.5 22t-97.5 74.5t-39 128.5q0 62 27.5 111.5t91.5 93.5t180 76t283 51q25 2 37 14t12 43v43q0 115 -55 179.5t-168 64.5q-71 0 -107 -26.5t-44 -64t-12.5 -75t-26 -64t-70.5 -26.5q-43 0 -65.5 24t-22.5 68q0 56 35.5 99.5t94.5 68t128 37t145 12.5
q178 0 255 -81t77 -255v-469q0 -88 94 -57v-23q-14 -30 -48 -49.5t-73 -19.5q-59 0 -97.5 37.5t-41.5 111.5q2 15 -9 13q-9 -1 -19 -13q-57 -69 -147 -109t-187 -40zM238 250q0 -73 47 -120.5t139 -47.5q110 0 189 71t79 175v94q0 40 -16.5 58t-65.5 12q-372 -45 -372 -242z
" />
    <glyph glyph-name="uni0431" unicode="&#x431;" horiz-adv-x="1042" 
d="M524 -12q-42 0 -84 8.5t-88.5 29.5t-87.5 53.5t-78.5 84.5t-64.5 118t-43.5 158.5t-16.5 202.5q-2 318 123.5 473.5t386.5 155.5h119q77 0 108 7.5t54 31.5h39q0 -65 -17 -105t-58.5 -60.5t-94 -27t-141.5 -6.5h-109q-149 0 -235 -65t-86 -179q0 -100 71 -100
q18 0 43.5 18t56 43.5t68 51t92.5 43.5t117 18q170 0 276.5 -123t106.5 -338q0 -118 -35.5 -212.5t-97.5 -155.5t-144.5 -93t-179.5 -32zM246 475q0 -182 83.5 -307t211.5 -125q121 0 196.5 98t75.5 260q0 180 -91 302t-226 122q-114 0 -182 -94.5t-68 -255.5z" />
    <glyph glyph-name="uni0432" unicode="&#x432;" horiz-adv-x="952" 
d="M61 39q66 9 88.5 29t22.5 75v648q0 49 -25.5 68.5t-85.5 25.5v39h435q164 0 261 -54.5t97 -162.5q0 -156 -213 -203q119 -21 189.5 -85t70.5 -157q0 -262 -387 -262q-101 0 -177.5 4t-82.5 4q-102 0 -193 -8v39zM336 145q0 -44 14.5 -63t50.5 -19h107q114 0 171.5 50.5
t57.5 142.5q0 213 -319 213h-31q-51 0 -51 -51v-273zM336 582q0 -52 51 -52h115q89 0 136.5 43t47.5 121q0 79 -48 123.5t-136 44.5h-115q-51 0 -51 -51v-229z" />
    <glyph glyph-name="uni0433" unicode="&#x433;" horiz-adv-x="894" 
d="M61 39q67 9 89 29t22 77v646q0 49 -25.5 68.5t-85.5 25.5v39h748l37 -215h-39q-23 61 -47 91t-69.5 46t-125.5 16h-178q-51 0 -51 -53v-664q0 -57 22 -77t88 -29v-39h-385v39z" />
    <glyph glyph-name="uni0434" unicode="&#x434;" horiz-adv-x="1183" 
d="M41 41q0 19 20 22q70 10 123 61t83.5 123t50 171t26 190.5t6.5 196.5q0 75 -162 80v39h951v-39q-75 -3 -118.5 -23.5t-43.5 -54.5v-655q0 -51 33.5 -71t113.5 -20q26 0 23 -24l-49 -262h-39q0 57 -3 90.5t-16.5 61t-30.5 40.5t-57 21.5t-82.5 10t-119.5 1.5h-330
q-76 0 -127.5 -3.5t-91.5 -14t-62 -25.5t-36 -42t-18.5 -59t-4.5 -81h-39v266zM199 61h495q60 0 89.5 20t29.5 71v649q0 33 -17 47t-57 14h-264q-37 0 -50 -11.5t-13 -45.5q0 -283 -54 -484t-159 -260z" />
    <glyph glyph-name="uni0435" unicode="&#x435;" horiz-adv-x="978" 
d="M532 -12q-129 0 -235.5 57t-171 167.5t-64.5 254.5q0 111 38 201.5t103.5 150t151.5 91.5t183 32q154 0 244.5 -74t90.5 -192q0 -101 -86.5 -144.5t-304.5 -52.5l-182 -8q-29 -1 -41 -16.5t-12 -48.5q0 -57 27 -112t74 -99t117.5 -70.5t151.5 -26.5q167 0 258 117l33 -27
q-17 -31 -46 -62.5t-74 -64t-111.5 -53t-143.5 -20.5zM236 596q0 -49 15.5 -62.5t51.5 -11.5l150 2q147 5 199.5 36t52.5 114q0 93 -51 153t-154 60q-85 0 -147 -45t-89.5 -109.5t-27.5 -136.5z" />
    <glyph glyph-name="uni0436" unicode="&#x436;" horiz-adv-x="1581" 
d="M41 39q42 9 84 40t108 101l281 299q33 36 0 78l-219 252q-16 20 -28 24t-23 -3.5t-21 -18t-28.5 -20t-40.5 -9.5q-32 0 -57 20t-25 56q0 35 26 56.5t74 21.5q52 0 89.5 -27.5t84.5 -83.5l225 -264q51 -61 111 -61h23v278q0 57 -22.5 77.5t-88.5 29.5v39h385v-39
q-66 -9 -88.5 -29.5t-22.5 -77.5v-278h23q59 0 110 61l226 264q47 57 84 84t90 27q48 0 74 -21.5t26 -56.5q0 -36 -25.5 -56t-56.5 -20q-26 0 -48 13.5t-32.5 26.5t-26.5 12t-36 -25l-217 -252q-33 -42 0 -78l280 -299q64 -69 106.5 -100.5t86.5 -40.5v-39h-363v39
q85 19 33 74l-250 270q-26 29 -63 29h-21v-267q0 -57 22 -77t89 -29v-39h-385v39q67 9 89 29t22 77v267h-21q-40 0 -66 -29l-249 -270q-52 -55 34 -74v-39h-362v39z" />
    <glyph glyph-name="uni0437" unicode="&#x437;" horiz-adv-x="878" 
d="M416 -16q-166 0 -260.5 81.5t-94.5 200.5q0 38 20 60t54 22q29 0 44.5 -13.5t19.5 -31.5t11.5 -54.5t18.5 -64.5q24 -63 74.5 -105t132.5 -42q102 0 160.5 69.5t58.5 172.5q0 87 -45.5 136.5t-117.5 49.5q-37 0 -115 -33l-19 45q132 50 184 108t52 158q0 146 -148 146
q-90 0 -153 -52.5t-90 -154.5q-2 -5 -5.5 -17t-4.5 -15.5t-4.5 -10.5t-6.5 -8.5t-8.5 -3.5t-13.5 -2q-25 0 -37.5 25t-11.5 63t8.5 77.5t19.5 71.5q153 80 312 80q144 0 219 -61.5t75 -153.5q0 -66 -40.5 -119.5t-102.5 -81.5q96 -6 160.5 -63.5t64.5 -157.5
q0 -139 -120.5 -230t-290.5 -91z" />
    <glyph glyph-name="uni0438" unicode="&#x438;" horiz-adv-x="1163" 
d="M715 39q66 9 88 29t22 77v535l-489 -502v-33q0 -57 22 -77t88 -29v-39h-385v39q67 9 89 29t22 77v633q0 57 -22.5 77.5t-88.5 29.5v39h385v-39q-66 -9 -88 -29.5t-22 -77.5v-534l489 501v33q0 57 -22 77.5t-88 29.5v39h387v-39q-68 -9 -90.5 -29.5t-22.5 -77.5v-633
q0 -57 22.5 -77t90.5 -29v-39h-387v39z" />
    <glyph glyph-name="uni0439" unicode="&#x439;" horiz-adv-x="1163" 
d="M715 39q66 9 88 29t22 77v535l-489 -502v-33q0 -57 22 -77t88 -29v-39h-385v39q67 9 89 29t22 77v633q0 57 -22.5 77.5t-88.5 29.5v39h385v-39q-66 -9 -88 -29.5t-22 -77.5v-534l489 501v33q0 57 -22 77.5t-88 29.5v39h387v-39q-68 -9 -90.5 -29.5t-22.5 -77.5v-633
q0 -57 22.5 -77t90.5 -29v-39h-387v39zM322 1331q0 31 26 31h17q16 0 20 -25q11 -60 62 -100.5t137 -40.5q84 0 135 40.5t61 100.5q4 25 23 25h14q27 0 27 -31q0 -101 -68 -171t-192 -70q-125 0 -193.5 70t-68.5 171z" />
    <glyph glyph-name="uni043A" unicode="&#x43a;" horiz-adv-x="1030" 
d="M637 39q85 19 33 74l-250 270q-26 29 -64 29h-20v-267q0 -57 22 -77t88 -29v-39h-385v39q67 9 89 29t22 77v633q0 57 -22.5 77.5t-88.5 29.5v39h385v-39q-66 -9 -88 -29.5t-22 -77.5v-278h22q60 0 111 61l225 264q47 57 84 84t90 27q48 0 74.5 -21.5t26.5 -56.5
q0 -36 -25.5 -56t-56.5 -20q-26 0 -48 13.5t-33 26.5t-27 12t-36 -25l-217 -252q-33 -42 0 -78l281 -299q65 -69 106.5 -100.5t85.5 -40.5v-39h-362v39z" />
    <glyph glyph-name="uni043B" unicode="&#x43b;" horiz-adv-x="1204" 
d="M219 -23q-79 0 -128.5 34.5t-49.5 97.5q0 47 27.5 73.5t68.5 26.5q34 0 49.5 -17.5t17.5 -42t3 -49t15 -42t46 -17.5q29 0 50.5 14.5t35 45t21.5 63t12 83.5t5 90.5t1 98.5v342q0 56 -36 76.5t-130 30.5v39h916v-39q-68 -9 -90.5 -29.5t-22.5 -77.5v-633q0 -57 22.5 -77
t90.5 -29v-39h-387v39q66 9 88 29t22 77v633q0 56 -21 70t-89 14h-193q-68 0 -89 -14t-21 -70v-325q0 -67 -1 -110.5t-6 -98.5t-14.5 -90t-26.5 -72t-42 -57.5t-61 -34t-83 -13.5z" />
    <glyph glyph-name="uni043C" unicode="&#x43c;" horiz-adv-x="1275" 
d="M61 39q67 9 89 29t22 77v633q0 57 -22.5 77.5t-88.5 29.5v39h269l309 -650l301 650h274v-39q-66 -9 -88 -29.5t-22 -77.5v-633q0 -57 22 -77t88 -29v-39h-385v39q67 9 89 29t22 77v643l-332 -712h-43l-336 702v-633q0 -57 22 -77t87 -29v-39h-277v39z" />
    <glyph glyph-name="uni043D" unicode="&#x43d;" horiz-adv-x="1193" 
d="M745 39q67 9 89 29t22 77v283h-520v-283q0 -57 22 -77t88 -29v-39h-385v39q67 9 89 29t22 77v633q0 57 -22.5 77.5t-88.5 29.5v39h385v-39q-66 -9 -88 -29.5t-22 -77.5v-289h520v289q0 57 -22.5 77.5t-88.5 29.5v39h388v-39q-68 -9 -90.5 -29.5t-22.5 -77.5v-633
q0 -57 22.5 -77t90.5 -29v-39h-388v39z" />
    <glyph glyph-name="uni043E" unicode="&#x43e;" horiz-adv-x="1064" 
d="M530 -12q-126 0 -232 56t-171.5 166t-65.5 253t66 254t173.5 168t236.5 57q125 0 230.5 -55.5t171 -165t65.5 -252.5t-66 -254.5t-173 -169t-235 -57.5zM242 539q0 -134 42 -246.5t120.5 -180t177.5 -67.5q110 0 176.5 88.5t66.5 257.5q0 134 -42.5 246.5t-121 180
t-176.5 67.5q-111 0 -177 -88t-66 -258z" />
    <glyph glyph-name="uni043F" unicode="&#x43f;" horiz-adv-x="1204" 
d="M61 39q67 9 89 29t22 77v633q0 57 -22.5 77.5t-88.5 29.5v39h1082v-39q-68 -9 -90.5 -29.5t-22.5 -77.5v-633q0 -57 22.5 -77t90.5 -29v-39h-387v39q66 9 88 29t22 77v633q0 56 -21 70t-89 14h-310q-68 0 -89 -14t-21 -70v-633q0 -57 22 -77t88 -29v-39h-385v39z" />
    <glyph glyph-name="uni0440" unicode="&#x440;" horiz-adv-x="1128" 
d="M43 -346q73 8 102 30.5t29 77.5v967q0 74 -25.5 100t-107.5 19v39l225 51q34 8 53 -8.5t19 -55.5v-28q0 -19 11 -24t28 12q35 39 115 73.5t172 34.5q172 0 287.5 -128t115.5 -337q0 -114 -37 -208.5t-99 -155t-140.5 -93t-163.5 -32.5q-60 0 -114 16.5t-88.5 33.5
t-47.5 17q-39 0 -39 -94v-199q0 -55 30.5 -77.5t110.5 -30.5v-43h-436v43zM338 367q0 -83 27.5 -148.5t72.5 -102.5t95 -56t102 -19q125 0 197.5 97.5t72.5 258.5q0 185 -93 308.5t-237 123.5q-42 0 -80 -11.5t-75 -37t-59.5 -77.5t-22.5 -123v-213z" />
    <glyph glyph-name="uni0441" unicode="&#x441;" horiz-adv-x="997" 
d="M545 -12q-97 0 -184.5 32.5t-154 92t-106 150.5t-39.5 200q0 112 41 204t110 151.5t158.5 91.5t188.5 32q158 0 255 -75t97 -165q0 -43 -25.5 -70.5t-66.5 -27.5q-37 0 -61.5 22.5t-28.5 67.5q-9 80 -60 136.5t-155 56.5q-130 0 -207.5 -94.5t-77.5 -260.5
q0 -198 118.5 -315t293.5 -117q164 0 250 131l35 -28q-14 -35 -44.5 -70.5t-77 -69t-114.5 -54.5t-145 -21z" />
    <glyph glyph-name="uni0442" unicode="&#x442;" horiz-adv-x="931" 
d="M264 39q74 9 97.5 29t23.5 77v637q0 51 -26.5 65.5t-98.5 14.5q-83 0 -115.5 -29.5t-64.5 -121.5h-39l25 213h802l23 -213h-39q-33 95 -64.5 123t-111.5 28q-73 0 -100 -14.5t-27 -65.5v-637q0 -57 23.5 -77t97.5 -29v-39h-406v39z" />
    <glyph glyph-name="uni0443" unicode="&#x443;" horiz-adv-x="1071" 
d="M246 -406q-76 0 -121 36t-45 91q0 45 28.5 73t73.5 28q39 0 58 -24t21 -53t14 -53t40 -24q63 0 123 152q21 53 22.5 107t-6.5 86t-24 75l-246 604q-40 98 -69 131t-95 58v43h408v-43q-59 -17 -80 -35.5t-18 -51t32 -102.5l183 -448q20 -44 35.5 -44t35.5 46l91 233
q30 75 48.5 130t29.5 95t10 68t-5.5 45.5t-22 30t-33.5 19t-46 14.5v43h363v-43q-89 -25 -126 -59.5t-75 -129.5l-344 -850q-25 -62 -46 -101t-51 -76t-70 -54t-93 -17z" />
    <glyph glyph-name="uni0444" unicode="&#x444;" horiz-adv-x="1744" 
d="M659 -348q74 8 103 31t29 79v388q-131 -162 -324 -162q-173 0 -289.5 126t-116.5 332q0 116 37 211.5t99.5 156.5t142.5 94.5t168 33.5q52 0 103.5 -11.5t81 -23t54 -17.5t34.5 5t10 45v195q0 73 -26 99t-108 19v39l226 49q34 8 52.5 -7t18.5 -50v-446q0 -16 11 -21
t28 12q34 41 113 77t174 36q171 0 287 -127.5t116 -333.5q0 -116 -37 -211t-99 -155.5t-141 -93.5t-165 -33q-56 0 -109 13.5t-82.5 27.5t-53.5 22t-33 -1.5t-9 -43.5v-244q0 -56 29 -79t104 -31v-41h-428v41zM229 530q0 -187 90.5 -308.5t239.5 -121.5q41 0 79 10.5
t74 33.5t57.5 66t21.5 101v291q0 71 -27.5 127.5t-72.5 89.5t-97 50.5t-105 17.5q-121 0 -190.5 -97.5t-69.5 -259.5zM954 344q0 -75 27.5 -134.5t72.5 -95t96 -53.5t103 -18q123 0 193 96t70 258q0 185 -90 308.5t-230 123.5q-33 0 -65 -6.5t-65 -22.5t-57 -41t-39.5 -65.5
t-15.5 -91.5v-258z" />
    <glyph glyph-name="uni0445" unicode="&#x445;" horiz-adv-x="1019" 
d="M31 43q94 25 147.5 64t140.5 149l130 170l-195 270q-64 88 -107.5 126.5t-107.5 58.5v43h414v-43q-34 -9 -52.5 -20t-25.5 -24t1 -35t22 -45t42 -61l103 -149q95 125 127.5 192t18 96t-74.5 46v43h371v-43q-95 -25 -148 -64t-139 -149l-125 -162l201 -277
q63 -88 106.5 -126.5t108.5 -59.5v-43h-414v43q29 8 46.5 16t25 20t8.5 23.5t-9 32.5t-22 40.5t-36 53.5l-107 154q-73 -97 -110 -156t-44 -97.5t11 -56.5t63 -30v-43h-370v43z" />
    <glyph glyph-name="uni0446" unicode="&#x446;" horiz-adv-x="1236" 
d="M1112 -225q0 34 -1 57.5t-5.5 46.5t-9 37.5t-16.5 28.5t-24 21.5t-35 14.5t-45 10t-59 5.5t-72 3t-89 0.5h-695v39q67 9 89 29t22 77v633q0 57 -22.5 77.5t-88.5 29.5v39h385v-39q-66 -9 -88 -29.5t-22 -77.5v-633q0 -54 21.5 -69t88.5 -15h310q62 0 86 11t24 57v649
q0 57 -22 77.5t-88 29.5v39h387v-39q-68 -9 -90.5 -29.5t-22.5 -77.5v-651q0 -20 5.5 -32.5t11.5 -19.5t26 -10t33 -3.5t48 -0.5h22q27 0 24 -24l-49 -262h-39z" />
    <glyph glyph-name="uni0447" unicode="&#x447;" horiz-adv-x="1136" 
d="M444 233q-58 0 -107.5 18t-92.5 58t-67.5 115t-24.5 180v170q0 55 -23 75.5t-88 29.5v45h391v-45q-65 -9 -87.5 -29.5t-22.5 -75.5v-170q0 -121 56.5 -199.5t156.5 -78.5q104 0 183 80t79 192v176q0 55 -23 75.5t-88 29.5v45h389v-45q-65 -9 -87.5 -29.5t-22.5 -75.5
v-624q0 -55 22.5 -75.5t87.5 -29.5v-45h-389v45q65 9 88 29.5t23 75.5v217q0 32 -11 31q-9 0 -50 -38q-102 -91 -201 -116q-44 -11 -91 -11z" />
    <glyph glyph-name="uni0448" unicode="&#x448;" horiz-adv-x="1515" 
d="M61 39q67 9 89 29t22 77v633q0 57 -22.5 77.5t-88.5 29.5v39h385v-39q-66 -9 -88 -29.5t-22 -77.5v-633q0 -54 21.5 -69t88.5 -15h119q67 0 89 15t22 69v633q0 57 -22.5 77.5t-88.5 29.5v39h385v-39q-66 -9 -88 -29.5t-22 -77.5v-633q0 -54 21.5 -69t88.5 -15h119
q67 0 89 15t22 69v633q0 57 -22.5 77.5t-88.5 29.5v39h385v-39q-66 -9 -88.5 -29.5t-22.5 -77.5v-633q0 -57 22 -77t89 -29v-39h-1393v39z" />
    <glyph glyph-name="uni0449" unicode="&#x449;" horiz-adv-x="1550" 
d="M1425 -225q0 34 -1 57.5t-5.5 46.5t-9 37.5t-16.5 28.5t-24 21.5t-35 14.5t-45 10t-59 5.5t-72 3t-89 0.5h-1008v39q67 9 89 29t22 77v633q0 57 -22.5 77.5t-88.5 29.5v39h385v-39q-66 -9 -88 -29.5t-22 -77.5v-633q0 -54 21.5 -69t88.5 -15h119q67 0 89 15t22 69v633
q0 57 -22.5 77.5t-88.5 29.5v39h385v-39q-66 -9 -88 -29.5t-22 -77.5v-633q0 -54 21.5 -69t88.5 -15h119q67 0 89 15t22 69v633q0 57 -22.5 77.5t-88.5 29.5v39h385v-39q-66 -9 -88.5 -29.5t-22.5 -77.5v-633q0 -42 13 -65q9 -9 27.5 -13.5t36.5 -5t59 -0.5h10q27 0 24 -24
l-49 -262h-39z" />
    <glyph glyph-name="uni044A" unicode="&#x44a;" horiz-adv-x="1114" 
d="M31 752l26 172h531v-39q-66 -9 -88.5 -29.5t-22.5 -77.5v-82q0 -17 12 -29t29 -12h107q199 0 318.5 -86t119.5 -243q0 -156 -119.5 -241t-318.5 -85h-422v39q66 9 88 29t22 77v633v13q-2 39 -22 55t-70 16q-56 0 -90 -24t-61 -86h-39zM477 145q0 -53 27.5 -69.5
t118.5 -16.5q71 0 123.5 21.5t82 59.5t43 84t13.5 102t-13.5 102t-42.5 84.5t-81 60t-123 21.5h-107q-17 0 -29 -12t-12 -29v-408z" />
    </font>
</defs>
</svg>
